<?xml version="1.0" encoding="UTF-8" standalone="no"?>
<svg
   version="1.2"
   width="133.36mm"
   height="82.559998mm"
   viewBox="0 0 13336 8255.9998"
   preserveAspectRatio="xMidYMid"
   fill-rule="evenodd"
   stroke-width="28.222"
   stroke-linejoin="round"
   xml:space="preserve"
   id="svg1035"
   sodipodi:docname="blocking_timing.svg"
   inkscape:version="1.1 (c68e22c387, 2021-05-23)"
   xmlns:inkscape="http://www.inkscape.org/namespaces/inkscape"
   xmlns:sodipodi="http://sodipodi.sourceforge.net/DTD/sodipodi-0.dtd"
   xmlns="http://www.w3.org/2000/svg"
   xmlns:svg="http://www.w3.org/2000/svg"
   xmlns:ooo="http://xml.openoffice.org/svg/export"><sodipodi:namedview
   id="namedview1037"
   pagecolor="#ffffff"
   bordercolor="#666666"
   borderopacity="1.0"
   inkscape:pageshadow="2"
   inkscape:pageopacity="0.0"
   inkscape:pagecheckerboard="0"
   inkscape:document-units="mm"
   showgrid="false"
   inkscape:zoom="1.3933651"
   inkscape:cx="285.99826"
   inkscape:cy="120.21257"
   inkscape:window-width="2560"
   inkscape:window-height="1016"
   inkscape:window-x="0"
   inkscape:window-y="0"
   inkscape:window-maximized="1"
   inkscape:current-layer="id119"
   inkscape:snap-global="true"
   fit-margin-top="0"
   fit-margin-left="0"
   fit-margin-right="0"
   fit-margin-bottom="0" />
 <defs
   class="ClipPathGroup"
   id="defs8">
  <clipPath
   id="presentation_clip_path"
   clipPathUnits="userSpaceOnUse">
   <rect
   x="0"
   y="0"
   width="29700"
   height="21000"
   id="rect2" />
  </clipPath>
  <clipPath
   id="presentation_clip_path_shrink"
   clipPathUnits="userSpaceOnUse">
   <rect
   x="29"
   y="21"
   width="29641"
   height="20958"
   id="rect5" />
  </clipPath>
 
   
  
    
   
     
    
      
      
      
      
      
      
      
      
      
      
      
      
      
      
      
      
      
      
      
      
      
      
      
      
      
      
      
      
      
      
      
      
      
      
      
      
      
      
     
       
      </defs>
 <defs
   class="TextShapeIndex"
   id="defs12">
  <g
   ooo:slide="id1"
   ooo:id-list="id3 id4 id5 id6 id7 id8 id9 id10 id11 id12 id13 id14 id15 id16 id17 id18 id19 id20 id21 id22 id23 id24 id25 id26 id27 id28 id29 id30 id31 id32 id33 id34 id35 id36 id37 id38 id39 id40 id41 id42 id43 id44 id45 id46 id47 id48 id49 id50 id51 id52 id53 id54 id55 id56 id57 id58 id59 id60 id61 id62 id63 id64 id65 id66 id67 id68 id69 id70 id71 id72 id73 id74 id75 id76 id77 id78 id79 id80 id81 id82 id83 id84 id85 id86 id87 id88 id89 id90 id91 id92 id93 id94 id95 id96 id97 id98 id99 id100 id101 id102 id103 id104 id105 id106 id107 id108 id109 id110 id111 id112 id113 id114 id115 id116 id117 id118 id119 id120 id121 id122 id123 id124 id125 id126 id127 id128 id129 id130 id131 id132 id133 id134"
   id="g10" />
 </defs>
 <defs
   class="EmbeddedBulletChars"
   id="defs44">
  <g
   id="bullet-char-template-57356"
   transform="matrix(4.8828125e-4,0,0,-4.8828125e-4,0,0)">
   <path
   d="M 580,1141 1163,571 580,0 -4,571 Z"
   id="path14" />
  </g>
  <g
   id="bullet-char-template-57354"
   transform="matrix(4.8828125e-4,0,0,-4.8828125e-4,0,0)">
   <path
   d="M 8,1128 H 1137 V 0 H 8 Z"
   id="path17" />
  </g>
  <g
   id="bullet-char-template-10146"
   transform="matrix(4.8828125e-4,0,0,-4.8828125e-4,0,0)">
   <path
   d="M 174,0 602,739 174,1481 1456,739 Z M 1358,739 309,1346 659,739 Z"
   id="path20" />
  </g>
  <g
   id="bullet-char-template-10132"
   transform="matrix(4.8828125e-4,0,0,-4.8828125e-4,0,0)">
   <path
   d="M 2015,739 1276,0 H 717 l 543,543 H 174 v 393 h 1086 l -543,545 h 557 z"
   id="path23" />
  </g>
  <g
   id="bullet-char-template-10007"
   transform="matrix(4.8828125e-4,0,0,-4.8828125e-4,0,0)">
   <path
   d="m 0,-2 c -7,16 -16,29 -25,39 l 381,530 c -94,256 -141,385 -141,387 0,25 13,38 40,38 9,0 21,-2 34,-5 21,4 42,12 65,25 l 27,-13 111,-251 280,301 64,-25 24,25 c 21,-10 41,-24 62,-43 C 886,937 835,863 770,784 769,783 710,716 594,584 L 774,223 c 0,-27 -21,-55 -63,-84 l 16,-20 C 717,90 699,76 672,76 641,76 570,178 457,381 L 164,-76 c -22,-34 -53,-51 -92,-51 -42,0 -63,17 -64,51 -7,9 -10,24 -10,44 0,9 1,19 2,30 z"
   id="path26" />
  </g>
  <g
   id="bullet-char-template-10004"
   transform="matrix(4.8828125e-4,0,0,-4.8828125e-4,0,0)">
   <path
   d="M 285,-33 C 182,-33 111,30 74,156 52,228 41,333 41,471 c 0,78 14,145 41,201 34,71 87,106 158,106 53,0 88,-31 106,-94 l 23,-176 c 8,-64 28,-97 59,-98 l 735,706 c 11,11 33,17 66,17 42,0 63,-15 63,-46 V 965 c 0,-36 -10,-64 -30,-84 L 442,47 C 390,-6 338,-33 285,-33 Z"
   id="path29" />
  </g>
  <g
   id="bullet-char-template-9679"
   transform="matrix(4.8828125e-4,0,0,-4.8828125e-4,0,0)">
   <path
   d="M 813,0 C 632,0 489,54 383,161 276,268 223,411 223,592 c 0,181 53,324 160,431 106,107 249,161 430,161 179,0 323,-54 432,-161 108,-107 162,-251 162,-431 0,-180 -54,-324 -162,-431 C 1136,54 992,0 813,0 Z"
   id="path32" />
  </g>
  <g
   id="bullet-char-template-8226"
   transform="matrix(4.8828125e-4,0,0,-4.8828125e-4,0,0)">
   <path
   d="m 346,457 c -73,0 -137,26 -191,78 -54,51 -81,114 -81,188 0,73 27,136 81,188 54,52 118,78 191,78 73,0 134,-26 185,-79 51,-51 77,-114 77,-187 0,-75 -25,-137 -76,-188 -50,-52 -112,-78 -186,-78 z"
   id="path35" />
  </g>
  <g
   id="bullet-char-template-8211"
   transform="matrix(4.8828125e-4,0,0,-4.8828125e-4,0,0)">
   <path
   d="M -4,459 H 1135 V 606 H -4 Z"
   id="path38" />
  </g>
  <g
   id="bullet-char-template-61548"
   transform="matrix(4.8828125e-4,0,0,-4.8828125e-4,0,0)">
   <path
   d="m 173,740 c 0,163 58,303 173,419 116,115 255,173 419,173 163,0 302,-58 418,-173 116,-116 174,-256 174,-419 0,-163 -58,-303 -174,-418 C 1067,206 928,148 765,148 601,148 462,206 346,322 231,437 173,577 173,740 Z"
   id="path41" />
  </g>
 </defs>
 <g
   id="g49"
   transform="translate(-12430,-1635)">
  <g
   id="id2"
   class="Master_Slide">
   <g
   id="bg-id2"
   class="Background" />
   <g
   id="bo-id2"
   class="BackgroundObjects" />
  </g>
 </g>
 <g
   class="SlideGroup"
   id="g1033"
   transform="translate(-12430,-1635)">
  <g
   class="com.sun.star.drawing.ClosedBezierShape"
   id="g56">
       <g
   id="id3">
        <rect
   class="BoundingBox"
   stroke="none"
   fill="none"
   x="12430"
   y="1635"
   width="13336"
   height="8256"
   id="rect51" />
        <path
   fill="#000000"
   stroke="none"
   d="m 12430,9890 c 0,-2752 0,-5503 0,-8255 4445,0 8890,0 13335,0 0,2752 0,5503 0,8255 -4445,0 -8890,0 -13335,0 z"
   id="path53" />
       </g>
      </g><g
   id="g10840"
   transform="translate(11089.638,3484.4506)"><g
     class="com.sun.star.drawing.ClosedBezierShape"
     id="g932"
     transform="translate(-11089.638,-3484.4506)">
       <g
   id="id121">
        <rect
   class="BoundingBox"
   stroke="none"
   fill="none"
   x="16716"
   y="5127"
   width="1906"
   height="953"
   id="rect927" />
        <path
   fill="#e57373"
   stroke="none"
   d="m 16716,6079 c 0,-317 0,-635 0,-952 635,0 1270,0 1905,0 0,317 0,635 0,952 -635,0 -1270,0 -1905,0 z"
   id="path929" />
       </g>
      </g><path
     id="rect10074-7"
     style="stroke-width:70.7919;stroke-linecap:round"
     d="m 8086.7791,1454.2142 54.327,53.5118 -1269.0846,1288.4268 -54.3275,-53.5118 z" /><path
     id="path10221-0"
     style="stroke-width:70.7919;stroke-linecap:round"
     d="m 7886.7789,1454.2142 54.3272,53.5118 -1269.0846,1288.4268 -54.3275,-53.5118 z" /><path
     id="path10223-9"
     style="stroke-width:70.7919;stroke-linecap:round"
     d="m 8486.7791,1454.2142 54.327,53.5118 -1269.0846,1288.4268 -54.3275,-53.5118 z" /><path
     id="path10225-3"
     style="stroke-width:70.7919;stroke-linecap:round"
     d="m 8286.7791,1454.2142 54.327,53.5118 -1269.0846,1288.4268 -54.3275,-53.5118 z" /><path
     id="path10280-6"
     style="stroke-width:70.7919;stroke-linecap:round"
     d="m 6486.7789,1454.2142 54.3272,53.5118 -1269.0846,1288.4268 -54.3275,-53.5118 z" /><path
     id="path10282-2"
     style="stroke-width:70.7919;stroke-linecap:round"
     d="m 6286.7789,1454.2142 54.3272,53.5118 -1269.0846,1288.4268 -54.3275,-53.5118 z" /><path
     id="path10284-6"
     style="stroke-width:70.7919;stroke-linecap:round"
     d="m 6886.7789,1454.2142 54.3272,53.5118 -1269.0846,1288.4268 -54.3275,-53.5118 z" /><path
     id="path10286-1"
     style="stroke-width:70.7919;stroke-linecap:round"
     d="m 6686.7789,1454.2142 54.3272,53.5118 -1269.0846,1288.4268 -54.3275,-53.5118 z" /><path
     id="path10288-8"
     style="stroke-width:70.7919;stroke-linecap:round"
     d="m 7286.779,1454.2142 54.327,53.5118 -1269.0845,1288.4268 -54.3275,-53.5118 z" /><path
     id="path10290-7"
     style="stroke-width:70.7919;stroke-linecap:round"
     d="m 7086.779,1454.2142 54.327,53.5118 -1269.0845,1288.4268 -54.3275,-53.5118 z" /><path
     id="path10292-9"
     style="stroke-width:70.7919;stroke-linecap:round"
     d="m 7686.779,1454.2142 54.327,53.5118 -1269.0845,1288.4268 -54.3275,-53.5118 z" /><path
     id="path10294-2"
     style="stroke-width:70.7919;stroke-linecap:round"
     d="m 7486.779,1454.2142 54.327,53.5118 -1269.0845,1288.4268 -54.3275,-53.5118 z" /><path
     id="path10296-0"
     style="stroke-width:70.7919;stroke-linecap:round"
     d="m 6086.7789,1454.2142 54.3272,53.5118 -1269.0846,1288.4268 -54.3275,-53.5118 z" /><path
     id="path10325-2"
     style="stroke-width:70.7919;stroke-linecap:round"
     d="m 5886.7789,1454.2142 54.3272,53.5118 -1269.0846,1288.4268 -54.3275,-53.5118 z" /></g><g
   class="Group"
   id="g609">
       <g
   class="com.sun.star.drawing.ClosedBezierShape"
   id="g544">
        <g
   id="id69">
         <rect
   class="BoundingBox"
   stroke="none"
   fill="none"
   x="18621"
   y="5127"
   width="3176"
   height="953"
   id="rect539" />
         <path
   fill="#e57373"
   stroke="none"
   d="m 18621,6079 c 0,-317 0,-635 0,-952 1058,0 2117,0 3175,0 0,317 0,635 0,952 -1058,0 -2117,0 -3175,0 z"
   id="path541" />
        </g>
       </g>
       <g
   class="com.sun.star.drawing.ClosedBezierShape"
   id="g551">
        <g
   id="id70">
         <rect
   class="BoundingBox"
   stroke="none"
   fill="none"
   x="18915"
   y="5431"
   width="216"
   height="357"
   id="rect546" />
         <path
   fill="#000000"
   stroke="none"
   d="m 18916,5787 c 0,-18 0,-36 0,-54 25,0 50,0 76,0 0,-83 0,-165 0,-248 -26,0 -51,0 -76,0 0,-18 0,-36 0,-54 71,0 142,0 214,0 0,18 0,36 0,54 -25,0 -51,0 -76,0 0,83 0,165 0,248 25,0 51,0 76,0 0,18 0,36 0,54 -72,0 -143,0 -214,0 z"
   id="path548" />
        </g>
       </g>
       <g
   class="com.sun.star.drawing.ClosedBezierShape"
   id="g558">
        <g
   id="id71">
         <rect
   class="BoundingBox"
   stroke="none"
   fill="none"
   x="19206"
   y="5510"
   width="226"
   height="279"
   id="rect553" />
         <path
   fill="#000000"
   stroke="none"
   d="m 19206,5787 v -272 h 59 v 47 h 4 c 3,-17 11,-29 24,-38 12,-9 28,-14 48,-14 27,0 49,9 65,27 16,18 24,42 24,72 v 178 h -61 v -171 c 0,-16 -5,-29 -14,-38 -9,-10 -21,-15 -36,-15 -16,0 -29,5 -38,15 -9,10 -13,23 -13,40 v 169 z"
   id="path555" />
        </g>
       </g>
       <g
   class="com.sun.star.drawing.ClosedBezierShape"
   id="g565">
        <g
   id="id72">
         <rect
   class="BoundingBox"
   stroke="none"
   fill="none"
   x="19501"
   y="5510"
   width="238"
   height="283"
   id="rect560" />
         <path
   fill="#000000"
   stroke="none"
   d="m 19619,5792 c -18,0 -34,-2 -49,-7 -14,-5 -27,-12 -37,-22 -10,-9 -18,-20 -24,-33 -5,-13 -8,-28 -8,-44 v -70 c 0,-16 3,-30 8,-43 6,-13 14,-24 24,-34 10,-9 23,-16 37,-21 15,-5 31,-8 49,-8 15,0 30,2 44,7 13,4 25,11 35,19 10,8 19,19 26,30 6,12 11,25 13,40 h -62 c -2,-12 -8,-23 -18,-30 -10,-8 -23,-12 -38,-12 -18,0 -31,5 -41,14 -10,9 -15,22 -15,38 v 70 c 0,16 5,29 14,38 10,9 24,14 42,14 14,0 27,-4 37,-12 11,-7 17,-17 19,-30 h 62 c -2,15 -7,28 -13,40 -7,12 -16,22 -26,30 -10,8 -22,15 -36,19 -13,5 -28,7 -43,7 z"
   id="path562" />
        </g>
       </g>
       <g
   class="com.sun.star.drawing.ClosedBezierShape"
   id="g572">
        <g
   id="id73">
         <rect
   class="BoundingBox"
   stroke="none"
   fill="none"
   x="19810"
   y="5510"
   width="233"
   height="279"
   id="rect567" />
         <path
   fill="#000000"
   stroke="none"
   d="m 19810,5515 h 59 v 47 h 4 c 3,-17 12,-29 25,-38 13,-9 30,-14 50,-14 30,0 52,9 69,27 16,18 25,43 25,75 v 20 h -65 v -14 c 0,-18 -5,-31 -14,-41 -10,-10 -23,-15 -40,-15 -16,0 -28,5 -37,15 -9,10 -14,24 -14,41 v 169 h -62 z"
   id="path569" />
        </g>
       </g>
       <g
   class="com.sun.star.drawing.ClosedBezierShape"
   id="g579">
        <g
   id="id74">
         <rect
   class="BoundingBox"
   stroke="none"
   fill="none"
   x="20089"
   y="5510"
   width="238"
   height="283"
   id="rect574" />
         <path
   fill="#000000"
   stroke="none"
   d="m 20208,5792 c -18,0 -34,-3 -49,-8 -15,-5 -27,-12 -37,-21 -10,-9 -18,-21 -24,-34 -6,-13 -8,-28 -8,-44 v -69 c 0,-16 2,-30 8,-44 6,-13 14,-24 24,-33 10,-10 22,-17 37,-22 15,-5 31,-7 49,-7 17,0 34,3 48,8 15,5 27,12 37,21 10,9 18,21 24,34 5,13 8,28 8,44 v 50 h -174 v 17 c 0,18 5,33 15,43 10,10 24,15 42,15 13,0 25,-2 34,-6 9,-4 16,-10 20,-18 h 61 c -3,11 -8,21 -15,31 -7,9 -15,17 -25,23 -11,6 -22,11 -35,15 -12,3 -26,5 -40,5 z m 57,-167 v -8 c 0,-18 -5,-32 -15,-42 -10,-10 -24,-16 -42,-16 -18,0 -32,6 -42,16 -10,10 -15,24 -15,42 v 8 z"
   id="path576" />
        </g>
       </g>
       <g
   class="com.sun.star.drawing.ClosedBezierShape"
   id="g586">
        <g
   id="id75">
         <rect
   class="BoundingBox"
   stroke="none"
   fill="none"
   x="20380"
   y="5510"
   width="251"
   height="279"
   id="rect581" />
         <path
   fill="#000000"
   stroke="none"
   d="m 20381,5515 h 47 v 40 h 4 c 1,-14 6,-25 14,-33 8,-8 19,-12 32,-12 13,0 24,4 32,12 9,8 15,19 18,33 h 2 c 1,-14 6,-25 14,-33 8,-8 19,-12 32,-12 17,0 30,6 39,19 10,12 14,29 14,50 v 208 h -52 v -203 c 0,-20 -8,-30 -23,-30 -16,0 -23,10 -23,31 v 202 h -52 v -203 c 0,-17 -5,-27 -16,-29 -4,-1 -6,-1 -8,-1 -1,0 -4,0 -7,1 -10,2 -15,13 -15,30 v 202 h -52 z"
   id="path583" />
        </g>
       </g>
       <g
   class="com.sun.star.drawing.ClosedBezierShape"
   id="g593">
        <g
   id="id76">
         <rect
   class="BoundingBox"
   stroke="none"
   fill="none"
   x="20682"
   y="5510"
   width="238"
   height="283"
   id="rect588" />
         <path
   fill="#000000"
   stroke="none"
   d="m 20801,5792 c -18,0 -34,-3 -49,-8 -15,-5 -27,-12 -37,-21 -10,-9 -18,-21 -24,-34 -6,-13 -8,-28 -8,-44 v -69 c 0,-16 2,-30 8,-44 6,-13 14,-24 24,-33 10,-10 22,-17 37,-22 15,-5 31,-7 49,-7 17,0 34,3 48,8 15,5 27,12 37,21 10,9 18,21 24,34 5,13 8,28 8,44 v 50 h -174 v 17 c 0,18 5,33 15,43 10,10 24,15 42,15 13,0 25,-2 34,-6 9,-4 16,-10 20,-18 h 61 c -3,11 -8,21 -15,31 -7,9 -15,17 -25,23 -11,6 -22,11 -35,15 -12,3 -26,5 -40,5 z m 57,-167 v -8 c 0,-18 -5,-32 -15,-42 -10,-10 -24,-16 -42,-16 -18,0 -32,6 -42,16 -10,10 -15,24 -15,42 v 8 z"
   id="path590" />
        </g>
       </g>
       <g
   class="com.sun.star.drawing.ClosedBezierShape"
   id="g600">
        <g
   id="id77">
         <rect
   class="BoundingBox"
   stroke="none"
   fill="none"
   x="20984"
   y="5510"
   width="226"
   height="279"
   id="rect595" />
         <path
   fill="#000000"
   stroke="none"
   d="m 20984,5787 v -272 h 59 v 47 h 4 c 3,-17 11,-29 24,-38 12,-9 28,-14 48,-14 27,0 49,9 65,27 16,18 24,42 24,72 v 178 h -61 v -171 c 0,-16 -5,-29 -14,-38 -9,-10 -21,-15 -36,-15 -16,0 -29,5 -38,15 -9,10 -13,23 -13,40 v 169 z"
   id="path597" />
        </g>
       </g>
       <g
   class="com.sun.star.drawing.ClosedBezierShape"
   id="g607">
        <g
   id="id78">
         <rect
   class="BoundingBox"
   stroke="none"
   fill="none"
   x="21267"
   y="5431"
   width="242"
   height="357"
   id="rect602" />
         <path
   fill="#000000"
   stroke="none"
   d="m 21268,5515 h 75 v -84 h 62 v 84 h 103 v 56 h -103 v 132 c 0,8 2,15 7,20 5,6 12,8 22,8 h 69 v 56 h -74 c -26,0 -47,-8 -63,-23 -15,-15 -23,-35 -23,-61 v -132 h -75 z"
   id="path604" />
        </g>
       </g>
      </g><g
   class="Group"
   id="g753">
       <g
   class="com.sun.star.drawing.ClosedBezierShape"
   id="g688">
        <g
   id="id89">
         <rect
   class="BoundingBox"
   stroke="none"
   fill="none"
   x="15446"
   y="3842"
   width="3176"
   height="953"
   id="rect683" />
         <path
   fill="#fff176"
   stroke="none"
   d="m 15446,4794 c 0,-317 0,-635 0,-952 1058,0 2117,0 3175,0 0,317 0,635 0,952 -1058,0 -2117,0 -3175,0 z"
   id="path685" />
        </g>
       </g>
       <g
   class="com.sun.star.drawing.ClosedBezierShape"
   id="g695">
        <g
   id="id90">
         <rect
   class="BoundingBox"
   stroke="none"
   fill="none"
   x="15740"
   y="4145"
   width="216"
   height="358"
   id="rect690" />
         <path
   fill="#000000"
   stroke="none"
   d="m 15741,4502 c 0,-18 0,-36 0,-54 25,0 50,0 76,0 0,-83 0,-165 0,-248 -26,0 -51,0 -76,0 0,-18 0,-36 0,-54 71,0 142,0 214,0 0,18 0,36 0,54 -25,0 -51,0 -76,0 0,83 0,165 0,248 25,0 51,0 76,0 0,18 0,36 0,54 -72,0 -143,0 -214,0 z"
   id="path692" />
        </g>
       </g>
       <g
   class="com.sun.star.drawing.ClosedBezierShape"
   id="g702">
        <g
   id="id91">
         <rect
   class="BoundingBox"
   stroke="none"
   fill="none"
   x="16031"
   y="4225"
   width="226"
   height="278"
   id="rect697" />
         <path
   fill="#000000"
   stroke="none"
   d="m 16031,4502 v -272 h 59 v 47 h 4 c 3,-17 11,-29 24,-38 12,-9 28,-14 48,-14 27,0 49,9 65,27 16,18 24,42 24,72 v 178 h -61 v -171 c 0,-16 -5,-29 -14,-38 -9,-10 -21,-15 -36,-15 -16,0 -29,5 -38,15 -9,10 -13,23 -13,40 v 169 z"
   id="path699" />
        </g>
       </g>
       <g
   class="com.sun.star.drawing.ClosedBezierShape"
   id="g709">
        <g
   id="id92">
         <rect
   class="BoundingBox"
   stroke="none"
   fill="none"
   x="16326"
   y="4225"
   width="238"
   height="283"
   id="rect704" />
         <path
   fill="#000000"
   stroke="none"
   d="m 16444,4507 c -18,0 -34,-2 -49,-7 -14,-5 -27,-12 -37,-22 -10,-9 -18,-20 -24,-33 -5,-13 -8,-28 -8,-44 v -70 c 0,-16 3,-30 8,-43 6,-13 14,-24 24,-34 10,-9 23,-16 37,-21 15,-5 31,-8 49,-8 15,0 30,2 44,7 13,4 25,11 35,19 10,8 19,19 26,30 6,12 11,25 13,40 h -62 c -2,-12 -8,-23 -18,-30 -10,-8 -23,-12 -38,-12 -18,0 -31,5 -41,14 -10,9 -15,22 -15,38 v 70 c 0,16 5,29 14,38 10,9 24,14 42,14 14,0 27,-4 37,-12 11,-7 17,-17 19,-30 h 62 c -2,15 -7,28 -13,40 -7,12 -16,22 -26,30 -10,8 -22,15 -36,19 -13,5 -28,7 -43,7 z"
   id="path706" />
        </g>
       </g>
       <g
   class="com.sun.star.drawing.ClosedBezierShape"
   id="g716">
        <g
   id="id93">
         <rect
   class="BoundingBox"
   stroke="none"
   fill="none"
   x="16635"
   y="4225"
   width="233"
   height="278"
   id="rect711" />
         <path
   fill="#000000"
   stroke="none"
   d="m 16635,4230 h 59 v 47 h 4 c 3,-17 12,-29 25,-38 13,-9 30,-14 50,-14 30,0 52,9 69,27 16,18 25,43 25,75 v 20 h -65 v -14 c 0,-18 -5,-31 -14,-41 -10,-10 -23,-15 -40,-15 -16,0 -28,5 -37,15 -9,10 -14,24 -14,41 v 169 h -62 z"
   id="path713" />
        </g>
       </g>
       <g
   class="com.sun.star.drawing.ClosedBezierShape"
   id="g723">
        <g
   id="id94">
         <rect
   class="BoundingBox"
   stroke="none"
   fill="none"
   x="16914"
   y="4225"
   width="238"
   height="283"
   id="rect718" />
         <path
   fill="#000000"
   stroke="none"
   d="m 17033,4507 c -18,0 -34,-3 -49,-8 -15,-5 -27,-12 -37,-21 -10,-9 -18,-21 -24,-34 -6,-13 -8,-28 -8,-44 v -69 c 0,-16 2,-30 8,-44 6,-13 14,-24 24,-33 10,-10 22,-17 37,-22 15,-5 31,-7 49,-7 17,0 34,3 48,8 15,5 27,12 37,21 10,9 18,21 24,34 5,13 8,28 8,44 v 50 h -174 v 17 c 0,18 5,33 15,43 10,10 24,15 42,15 13,0 25,-2 34,-6 9,-4 16,-10 20,-18 h 61 c -3,11 -8,21 -15,31 -7,9 -15,17 -25,23 -11,6 -22,11 -35,15 -12,3 -26,5 -40,5 z m 57,-167 v -8 c 0,-18 -5,-32 -15,-42 -10,-10 -24,-16 -42,-16 -18,0 -32,6 -42,16 -10,10 -15,24 -15,42 v 8 z"
   id="path720" />
        </g>
       </g>
       <g
   class="com.sun.star.drawing.ClosedBezierShape"
   id="g730">
        <g
   id="id95">
         <rect
   class="BoundingBox"
   stroke="none"
   fill="none"
   x="17205"
   y="4225"
   width="251"
   height="278"
   id="rect725" />
         <path
   fill="#000000"
   stroke="none"
   d="m 17206,4230 h 47 v 40 h 4 c 1,-14 6,-25 14,-33 8,-8 19,-12 32,-12 13,0 24,4 32,12 9,8 15,19 18,33 h 2 c 1,-14 6,-25 14,-33 8,-8 19,-12 32,-12 17,0 30,6 39,19 10,12 14,29 14,50 v 208 h -52 v -203 c 0,-20 -8,-30 -23,-30 -16,0 -23,10 -23,31 v 202 h -52 v -203 c 0,-17 -5,-27 -16,-29 -4,-1 -6,-1 -8,-1 -1,0 -4,0 -7,1 -10,2 -15,13 -15,30 v 202 h -52 z"
   id="path727" />
        </g>
       </g>
       <g
   class="com.sun.star.drawing.ClosedBezierShape"
   id="g737">
        <g
   id="id96">
         <rect
   class="BoundingBox"
   stroke="none"
   fill="none"
   x="17507"
   y="4225"
   width="238"
   height="283"
   id="rect732" />
         <path
   fill="#000000"
   stroke="none"
   d="m 17626,4507 c -18,0 -34,-3 -49,-8 -15,-5 -27,-12 -37,-21 -10,-9 -18,-21 -24,-34 -6,-13 -8,-28 -8,-44 v -69 c 0,-16 2,-30 8,-44 6,-13 14,-24 24,-33 10,-10 22,-17 37,-22 15,-5 31,-7 49,-7 17,0 34,3 48,8 15,5 27,12 37,21 10,9 18,21 24,34 5,13 8,28 8,44 v 50 h -174 v 17 c 0,18 5,33 15,43 10,10 24,15 42,15 13,0 25,-2 34,-6 9,-4 16,-10 20,-18 h 61 c -3,11 -8,21 -15,31 -7,9 -15,17 -25,23 -11,6 -22,11 -35,15 -12,3 -26,5 -40,5 z m 57,-167 v -8 c 0,-18 -5,-32 -15,-42 -10,-10 -24,-16 -42,-16 -18,0 -32,6 -42,16 -10,10 -15,24 -15,42 v 8 z"
   id="path734" />
        </g>
       </g>
       <g
   class="com.sun.star.drawing.ClosedBezierShape"
   id="g744">
        <g
   id="id97">
         <rect
   class="BoundingBox"
   stroke="none"
   fill="none"
   x="17809"
   y="4225"
   width="226"
   height="278"
   id="rect739" />
         <path
   fill="#000000"
   stroke="none"
   d="m 17809,4502 v -272 h 59 v 47 h 4 c 3,-17 11,-29 24,-38 12,-9 28,-14 48,-14 27,0 49,9 65,27 16,18 24,42 24,72 v 178 h -61 v -171 c 0,-16 -5,-29 -14,-38 -9,-10 -21,-15 -36,-15 -16,0 -29,5 -38,15 -9,10 -13,23 -13,40 v 169 z"
   id="path741" />
        </g>
       </g>
       <g
   class="com.sun.star.drawing.ClosedBezierShape"
   id="g751">
        <g
   id="id98">
         <rect
   class="BoundingBox"
   stroke="none"
   fill="none"
   x="18092"
   y="4145"
   width="242"
   height="358"
   id="rect746" />
         <path
   fill="#000000"
   stroke="none"
   d="m 18093,4230 h 75 v -84 h 62 v 84 h 103 v 56 h -103 v 132 c 0,8 2,15 7,20 5,6 12,8 22,8 h 69 v 56 h -74 c -26,0 -47,-8 -63,-23 -15,-15 -23,-35 -23,-61 v -132 h -75 z"
   id="path748" />
        </g>
       </g>
      </g><g
   class="com.sun.star.drawing.OpenBezierShape"
   id="g762">
       <g
   id="id99">
        <rect
   class="BoundingBox"
   stroke="none"
   fill="none"
   x="15465"
   y="4795"
   width="281"
   height="3059"
   id="rect755" />
        <path
   fill="none"
   stroke="#ffffff"
   stroke-width="53"
   stroke-linejoin="round"
   stroke-linecap="round"
   d="M 15605,5166 V 7826"
   id="path757" />
        <path
   fill="#ffffff"
   stroke="none"
   d="m 15715,5163 30,22 -140,-390 -139,390 28,-21 33,-17 37,-11 39,-5 40,4 38,11 z"
   id="path759" />
       </g>
      </g><g
   class="Group"
   id="g799">
       <g
   class="com.sun.star.drawing.ClosedBezierShape"
   id="g769">
        <g
   id="id100">
         <rect
   class="BoundingBox"
   stroke="none"
   fill="none"
   x="15224"
   y="8905"
   width="404"
   height="275"
   id="rect764" />
         <path
   fill="#ffffff"
   stroke="none"
   d="m 15225,9018 c 0,-24 3,-43 9,-59 6,-16 16,-32 29,-49 l 35,29 c -19,24 -29,49 -29,75 0,33 12,59 37,78 25,20 65,30 120,30 53,0 92,-10 118,-29 25,-20 38,-46 38,-78 0,-17 -3,-31 -9,-43 -5,-12 -13,-25 -24,-39 l 35,-28 c 12,12 22,27 31,46 8,19 12,41 12,66 0,31 -8,59 -23,84 -16,25 -39,44 -69,57 -30,14 -67,21 -109,21 -43,0 -79,-7 -109,-21 -31,-15 -53,-34 -69,-59 -15,-24 -23,-51 -23,-81 z"
   id="path766" />
        </g>
       </g>
       <g
   class="com.sun.star.drawing.ClosedBezierShape"
   id="g776">
        <g
   id="id101">
         <rect
   class="BoundingBox"
   stroke="none"
   fill="none"
   x="15197"
   y="8743"
   width="431"
   height="105"
   id="rect771" />
         <path
   fill="#ffffff"
   stroke="none"
   d="m 15627,8784 c 0,19 -6,35 -17,46 -12,11 -28,16 -48,16 h -359 l -6,-52 h 363 c 9,0 15,-1 19,-4 3,-3 5,-7 5,-14 0,-7 -1,-14 -3,-19 l 36,-14 c 7,12 10,26 10,41 z"
   id="path773" />
        </g>
       </g>
       <g
   class="com.sun.star.drawing.ClosedBezierShape"
   id="g783">
        <g
   id="id102">
         <rect
   class="BoundingBox"
   stroke="none"
   fill="none"
   x="15180"
   y="8616"
   width="441"
   height="75"
   id="rect778" />
         <path
   fill="#ffffff"
   stroke="none"
   d="m 15620,8627 v 51 h -297 v -51 z m -440,26 c 0,-11 3,-20 10,-26 7,-7 15,-11 26,-11 10,0 18,4 25,11 6,6 9,15 9,26 0,11 -3,19 -9,26 -7,7 -15,10 -25,10 -11,0 -19,-3 -26,-10 -7,-7 -10,-15 -10,-26 z"
   id="path780" />
        </g>
       </g>
       <g
   class="com.sun.star.drawing.ClosedBezierShape"
   id="g790">
        <g
   id="id103">
         <rect
   class="BoundingBox"
   stroke="none"
   fill="none"
   x="15316"
   y="8318"
   width="312"
   height="222"
   id="rect785" />
         <path
   fill="#ffffff"
   stroke="none"
   d="m 15316,8409 c 0,-18 3,-34 8,-48 5,-15 13,-29 24,-43 l 33,25 c -8,11 -13,21 -17,31 -3,10 -5,21 -5,33 0,24 10,43 29,56 19,13 47,20 85,20 38,0 65,-7 83,-20 18,-13 27,-32 27,-56 0,-12 -2,-22 -5,-32 -4,-10 -10,-21 -18,-33 l 34,-24 c 22,27 33,58 33,91 0,40 -14,72 -41,95 -27,23 -64,35 -112,35 -31,0 -59,-5 -83,-16 -24,-10 -42,-25 -55,-45 -13,-19 -20,-42 -20,-69 z"
   id="path787" />
        </g>
       </g>
       <g
   class="com.sun.star.drawing.ClosedBezierShape"
   id="g797">
        <g
   id="id104">
         <rect
   class="BoundingBox"
   stroke="none"
   fill="none"
   x="15197"
   y="8011"
   width="424"
   height="237"
   id="rect792" />
         <path
   fill="#ffffff"
   stroke="none"
   d="m 15620,8195 c 0,17 0,34 0,51 -139,0 -278,0 -417,0 -2,-17 -4,-34 -6,-51 141,0 282,0 423,0 z m -166,-62 c 55,-41 111,-81 166,-122 0,21 0,42 0,62 -54,40 -108,79 -162,118 -45,-36 -90,-73 -135,-109 0,-20 0,-39 0,-58 44,36 87,73 131,109 z"
   id="path794" />
        </g>
       </g>
      </g><g
   class="com.sun.star.drawing.OpenBezierShape"
   id="g808">
       <g
   id="id105">
        <rect
   class="BoundingBox"
   stroke="none"
   fill="none"
   x="16577"
   y="6064"
   width="281"
   height="1789"
   id="rect801" />
        <path
   fill="none"
   stroke="#ffffff"
   stroke-width="53"
   stroke-linejoin="round"
   stroke-linecap="round"
   d="M 16717,6435 V 7825"
   id="path803" />
        <path
   fill="#ffffff"
   stroke="none"
   d="m 16827,6432 30,22 -140,-390 -139,390 28,-21 33,-17 37,-11 39,-5 40,4 38,11 z"
   id="path805" />
       </g>
      </g><g
   class="Group"
   id="g845">
       <g
   class="com.sun.star.drawing.ClosedBezierShape"
   id="g815">
        <g
   id="id106">
         <rect
   class="BoundingBox"
   stroke="none"
   fill="none"
   x="16495"
   y="8905"
   width="403"
   height="275"
   id="rect810" />
         <path
   fill="#ffffff"
   stroke="none"
   d="m 16495,9018 c 0,-24 3,-43 9,-59 6,-16 16,-32 29,-49 l 35,29 c -19,24 -29,49 -29,75 0,33 12,59 37,78 25,20 65,30 120,30 53,0 92,-10 118,-29 25,-20 38,-46 38,-78 0,-17 -3,-31 -9,-43 -5,-12 -13,-25 -24,-39 l 35,-28 c 12,12 22,27 31,46 8,19 12,41 12,66 0,31 -8,59 -23,84 -16,25 -39,44 -69,57 -30,14 -67,21 -109,21 -43,0 -79,-7 -109,-21 -31,-15 -53,-34 -69,-59 -15,-24 -23,-51 -23,-81 z"
   id="path812" />
        </g>
       </g>
       <g
   class="com.sun.star.drawing.ClosedBezierShape"
   id="g822">
        <g
   id="id107">
         <rect
   class="BoundingBox"
   stroke="none"
   fill="none"
   x="16467"
   y="8743"
   width="431"
   height="105"
   id="rect817" />
         <path
   fill="#ffffff"
   stroke="none"
   d="m 16897,8784 c 0,19 -6,35 -17,46 -12,11 -28,16 -48,16 h -359 l -6,-52 h 363 c 9,0 15,-1 19,-4 3,-3 5,-7 5,-14 0,-7 -1,-14 -3,-19 l 36,-14 c 7,12 10,26 10,41 z"
   id="path819" />
        </g>
       </g>
       <g
   class="com.sun.star.drawing.ClosedBezierShape"
   id="g829">
        <g
   id="id108">
         <rect
   class="BoundingBox"
   stroke="none"
   fill="none"
   x="16450"
   y="8616"
   width="441"
   height="75"
   id="rect824" />
         <path
   fill="#ffffff"
   stroke="none"
   d="m 16890,8627 v 51 h -297 v -51 z m -440,26 c 0,-11 3,-20 10,-26 7,-7 15,-11 26,-11 10,0 18,4 25,11 6,6 10,15 10,26 0,11 -4,19 -10,26 -7,7 -15,10 -25,10 -11,0 -19,-3 -26,-10 -7,-7 -10,-15 -10,-26 z"
   id="path826" />
        </g>
       </g>
       <g
   class="com.sun.star.drawing.ClosedBezierShape"
   id="g836">
        <g
   id="id109">
         <rect
   class="BoundingBox"
   stroke="none"
   fill="none"
   x="16586"
   y="8318"
   width="312"
   height="222"
   id="rect831" />
         <path
   fill="#ffffff"
   stroke="none"
   d="m 16586,8409 c 0,-18 3,-34 8,-48 5,-15 13,-29 24,-43 l 33,25 c -8,11 -13,21 -17,31 -3,10 -5,21 -5,33 0,24 10,43 29,56 19,13 47,20 85,20 38,0 65,-7 83,-20 18,-13 27,-32 27,-56 0,-12 -2,-22 -5,-32 -4,-10 -10,-21 -18,-33 l 34,-24 c 22,27 33,58 33,91 0,40 -14,72 -41,95 -27,23 -64,35 -112,35 -31,0 -59,-5 -83,-16 -24,-10 -42,-25 -55,-45 -13,-19 -20,-42 -20,-69 z"
   id="path833" />
        </g>
       </g>
       <g
   class="com.sun.star.drawing.ClosedBezierShape"
   id="g843">
        <g
   id="id110">
         <rect
   class="BoundingBox"
   stroke="none"
   fill="none"
   x="16467"
   y="8011"
   width="424"
   height="237"
   id="rect838" />
         <path
   fill="#ffffff"
   stroke="none"
   d="m 16890,8195 c 0,17 0,34 0,51 -139,0 -278,0 -417,0 -2,-17 -4,-34 -6,-51 141,0 282,0 423,0 z m -166,-62 c 55,-41 111,-81 166,-122 0,21 0,42 0,62 -54,40 -108,79 -162,118 -45,-36 -90,-73 -135,-109 0,-20 0,-39 0,-58 44,36 87,73 131,109 z"
   id="path840" />
        </g>
       </g>
      </g><g
   class="Group"
   id="g891">
       <g
   class="com.sun.star.drawing.ClosedBezierShape"
   id="g861">
        <g
   id="id112">
         <rect
   class="BoundingBox"
   stroke="none"
   fill="none"
   x="17765"
   y="8897"
   width="403"
   height="275"
   id="rect856" />
         <path
   fill="#ffffff"
   stroke="none"
   d="m 17765,9010 c 0,-24 3,-43 9,-59 6,-16 16,-32 29,-49 l 35,29 c -19,24 -29,49 -29,75 0,33 12,59 37,78 25,20 65,30 120,30 53,0 92,-10 118,-29 25,-20 38,-46 38,-78 0,-17 -3,-31 -9,-43 -5,-12 -13,-25 -24,-39 l 35,-28 c 12,12 22,27 31,46 8,19 12,41 12,66 0,31 -8,59 -23,84 -16,25 -39,44 -69,57 -30,14 -67,21 -109,21 -43,0 -79,-7 -109,-21 -31,-15 -53,-34 -69,-59 -15,-24 -23,-51 -23,-81 z"
   id="path858" />
        </g>
       </g>
       <g
   class="com.sun.star.drawing.ClosedBezierShape"
   id="g868">
        <g
   id="id113">
         <rect
   class="BoundingBox"
   stroke="none"
   fill="none"
   x="17737"
   y="8735"
   width="431"
   height="105"
   id="rect863" />
         <path
   fill="#ffffff"
   stroke="none"
   d="m 18167,8776 c 0,19 -6,35 -17,46 -12,11 -28,16 -48,16 h -359 l -6,-52 h 363 c 9,0 15,-1 19,-4 3,-3 5,-8 5,-14 0,-7 -1,-14 -3,-19 l 36,-14 c 7,12 10,26 10,41 z"
   id="path865" />
        </g>
       </g>
       <g
   class="com.sun.star.drawing.ClosedBezierShape"
   id="g875">
        <g
   id="id114">
         <rect
   class="BoundingBox"
   stroke="none"
   fill="none"
   x="17720"
   y="8608"
   width="441"
   height="75"
   id="rect870" />
         <path
   fill="#ffffff"
   stroke="none"
   d="m 18160,8619 v 51 h -297 v -51 z m -440,26 c 0,-11 3,-20 10,-26 7,-7 15,-11 26,-11 10,0 18,4 25,11 6,6 10,15 10,26 0,11 -4,19 -10,26 -7,7 -15,10 -25,10 -11,0 -19,-3 -26,-10 -7,-7 -10,-15 -10,-26 z"
   id="path872" />
        </g>
       </g>
       <g
   class="com.sun.star.drawing.ClosedBezierShape"
   id="g882">
        <g
   id="id115">
         <rect
   class="BoundingBox"
   stroke="none"
   fill="none"
   x="17856"
   y="8310"
   width="312"
   height="222"
   id="rect877" />
         <path
   fill="#ffffff"
   stroke="none"
   d="m 17856,8401 c 0,-18 3,-34 8,-48 5,-15 13,-29 24,-43 l 33,25 c -8,11 -13,21 -17,31 -3,10 -5,21 -5,33 0,24 10,43 29,56 19,13 47,20 85,20 38,0 65,-7 83,-20 18,-13 27,-32 27,-56 0,-12 -2,-22 -5,-32 -4,-10 -10,-21 -18,-33 l 34,-24 c 22,27 33,58 33,91 0,40 -14,72 -41,95 -27,23 -64,35 -112,35 -31,0 -59,-5 -83,-16 -24,-10 -42,-25 -55,-45 -13,-19 -20,-42 -20,-69 z"
   id="path879" />
        </g>
       </g>
       <g
   class="com.sun.star.drawing.ClosedBezierShape"
   id="g889">
        <g
   id="id116">
         <rect
   class="BoundingBox"
   stroke="none"
   fill="none"
   x="17736"
   y="8003"
   width="425"
   height="237"
   id="rect884" />
         <path
   fill="#ffffff"
   stroke="none"
   d="m 18160,8187 c 0,17 0,34 0,51 -139,0 -278,0 -417,0 -2,-17 -4,-34 -6,-51 141,0 282,0 423,0 z m -166,-62 c 55,-41 111,-81 166,-122 0,21 0,42 0,62 -54,40 -108,79 -162,118 -45,-36 -90,-73 -135,-109 0,-20 0,-39 0,-58 44,36 87,73 131,109 z"
   id="path886" />
        </g>
       </g>
      </g><g
   class="com.sun.star.drawing.OpenBezierShape"
   id="g900">
       <g
   id="id117">
        <rect
   class="BoundingBox"
   stroke="none"
   fill="none"
   x="18482"
   y="3063"
   width="281"
   height="822"
   id="rect893" />
        <path
   fill="none"
   stroke="#ffffff"
   stroke-width="53"
   stroke-linejoin="round"
   stroke-linecap="round"
   d="m 18622,3434 v 423"
   id="path895" />
        <path
   fill="#ffffff"
   stroke="none"
   d="m 18732,3431 30,22 -140,-390 -139,390 28,-21 33,-17 37,-11 39,-5 40,4 38,11 z"
   id="path897" />
       </g>
      </g><g
   class="com.sun.star.drawing.OpenBezierShape"
   id="g909">
       <g
   id="id118">
        <rect
   class="BoundingBox"
   stroke="none"
   fill="none"
   x="21657"
   y="3063"
   width="281"
   height="2092"
   id="rect902" />
        <path
   fill="none"
   stroke="#ffffff"
   stroke-width="53"
   stroke-linejoin="round"
   stroke-linecap="round"
   d="M 21797,3434 V 5127"
   id="path904" />
        <path
   fill="#ffffff"
   stroke="none"
   d="m 21907,3431 30,22 -140,-390 -139,390 28,-21 33,-17 37,-11 39,-5 40,4 38,11 z"
   id="path906" />
       </g>
      </g><g
   class="com.sun.star.drawing.OpenBezierShape"
   id="g918">
       <g
   id="id119">
        <rect
   class="BoundingBox"
   stroke="none"
   fill="none"
   x="24832"
   y="3063"
   width="281"
   height="3362"
   id="rect911" />
        <path
   fill="none"
   stroke="#ffffff"
   stroke-width="53"
   stroke-linejoin="round"
   stroke-linecap="round"
   d="M 24972,3434 V 6397"
   id="path913"
   style="stroke-width:53;stroke-miterlimit:4;stroke-dasharray:none" />
        <path
   fill="#ffffff"
   stroke="none"
   d="m 25082,3431 30,22 -140,-390 -139,390 28,-21 33,-17 37,-11 39,-5 40,4 38,11 z"
   id="path915" />
       </g>
      </g><g
   id="g10660"><g
     id="g10588"
     transform="translate(10849.149,2281.2485)"><g
       id="id120"
       transform="translate(-10847.149,-2280.2485)">
        <path
   id="rect920"
   class="BoundingBox"
   style="fill:none"
   d="m 17987,6397 h 3810 v 953 h -3810 z" />
        <path
   fill="#ffb74d"
   stroke="none"
   d="m 17987,7349 c 0,-317 0,-635 0,-952 1270,0 2539,0 3809,0 0,317 0,635 0,952 -1270,0 -2539,0 -3809,0 z"
   id="path922" />
       </g><path
       id="rect10074"
       style="stroke-width:70.7919;stroke-linecap:round"
       d="m 9569.0849,4000.1377 54.3272,53.5118 L 8354.3275,5342.0763 8300,5288.5645 Z" /><path
       id="path10221"
       style="stroke-width:70.7919;stroke-linecap:round"
       d="m 9369.0849,4000.1377 54.3272,53.5118 L 8154.3275,5342.0763 8100,5288.5645 Z" /><path
       id="path10223"
       style="stroke-width:70.7919;stroke-linecap:round"
       d="m 9969.0849,4000.1377 54.3271,53.5118 L 8754.3275,5342.0763 8700,5288.5645 Z" /><path
       id="path10225"
       style="stroke-width:70.7919;stroke-linecap:round"
       d="m 9769.0849,4000.1377 54.3272,53.5118 L 8554.3275,5342.0763 8500,5288.5645 Z" /><path
       id="path10272"
       style="stroke-width:70.7919;stroke-linecap:round"
       d="m 10369.085,4000.1377 54.327,53.5118 L 9154.3275,5342.0763 9100,5288.5645 Z" /><path
       id="path10274"
       style="stroke-width:70.7919;stroke-linecap:round"
       d="m 10169.085,4000.1377 54.327,53.5118 L 8954.3275,5342.0763 8900,5288.5645 Z" /><path
       id="path10276"
       style="stroke-width:70.7919;stroke-linecap:round"
       d="m 10769.085,4000.1377 54.327,53.5118 L 9554.3275,5342.0763 9500,5288.5645 Z" /><path
       id="path10278"
       style="stroke-width:70.7919;stroke-linecap:round"
       d="m 10569.085,4000.1377 54.327,53.5118 L 9354.3275,5342.0763 9300,5288.5645 Z" /><path
       id="path10280"
       style="stroke-width:70.7919;stroke-linecap:round"
       d="m 7969.0849,4000.1377 54.3272,53.5118 L 6754.3275,5342.0763 6700,5288.5645 Z" /><path
       id="path10282"
       style="stroke-width:70.7919;stroke-linecap:round"
       d="m 7769.0849,4000.1377 54.3272,53.5118 L 6554.3275,5342.0763 6500,5288.5645 Z" /><path
       id="path10284"
       style="stroke-width:70.7919;stroke-linecap:round"
       d="m 8369.0849,4000.1377 54.3272,53.5118 L 7154.3275,5342.0763 7100,5288.5645 Z" /><path
       id="path10286"
       style="stroke-width:70.7919;stroke-linecap:round"
       d="m 8169.0849,4000.1377 54.3272,53.5118 L 6954.3275,5342.0763 6900,5288.5645 Z" /><path
       id="path10288"
       style="stroke-width:70.7919;stroke-linecap:round"
       d="m 8769.085,4000.1377 54.327,53.5118 L 7554.3275,5342.0763 7500,5288.5645 Z" /><path
       id="path10290"
       style="stroke-width:70.7919;stroke-linecap:round"
       d="m 8569.085,4000.1377 54.327,53.5118 L 7354.3275,5342.0763 7300,5288.5645 Z" /><path
       id="path10292"
       style="stroke-width:70.7919;stroke-linecap:round"
       d="m 9169.085,4000.1377 54.327,53.5118 L 7954.3275,5342.0763 7900,5288.5645 Z" /><path
       id="path10294"
       style="stroke-width:70.7919;stroke-linecap:round"
       d="m 8969.085,4000.1377 54.327,53.5118 L 7754.3275,5342.0763 7700,5288.5645 Z" /><path
       id="path10296"
       style="stroke-width:70.7919;stroke-linecap:round"
       d="m 7569.0849,4000.1377 54.3272,53.5118 L 6354.3275,5342.0763 6300,5288.5645 Z" /><path
       id="path10325"
       style="stroke-width:70.7919;stroke-linecap:round"
       d="m 7369.0849,4000.1377 54.3272,53.5118 L 6154.3275,5342.0763 6100,5288.5645 Z" /><path
       id="path10327"
       style="stroke-width:70.7919;stroke-linecap:round"
       d="m 10969.085,4000.1377 54.327,53.5118 L 9754.3275,5342.0763 9700,5288.5645 Z" /><path
       id="path10329"
       style="stroke-width:70.7919;stroke-linecap:round"
       d="m 11369.085,4000.1377 54.327,53.5118 -1269.084,1288.4268 -54.328,-53.5118 z" /><path
       id="path10331"
       style="stroke-width:70.7919;stroke-linecap:round"
       d="m 11169.085,4000.1377 54.327,53.5118 L 9954.328,5342.0763 9900,5288.5645 Z" /><path
       id="path10333"
       style="stroke-width:70.7919;stroke-linecap:round"
       d="m 11769.085,4000.1377 54.327,53.5118 -1269.084,1288.4268 -54.328,-53.5118 z" /><path
       id="path10335"
       style="stroke-width:70.7919;stroke-linecap:round"
       d="m 11569.085,4000.1377 54.327,53.5118 -1269.084,1288.4268 -54.328,-53.5118 z" /></g></g><g
   class="com.sun.star.drawing.OpenBezierShape"
   id="g854">
       <g
   id="id111">
        <rect
   class="BoundingBox"
   stroke="none"
   fill="none"
   x="17847"
   y="7334"
   width="281"
   height="519"
   id="rect847" />
        <path
   fill="none"
   stroke="#ffffff"
   stroke-width="53"
   stroke-linejoin="round"
   stroke-linecap="round"
   d="m 17987,7705 v 120"
   id="path849" />
        <path
   fill="#ffffff"
   stroke="none"
   d="m 18097,7702 29,22 -139,-390 -140,390 29,-21 33,-17 37,-11 39,-5 40,4 38,11 z"
   id="path851" />
       </g>
      </g><g
   class="Group"
   id="g681">
       <g
   class="com.sun.star.drawing.ClosedBezierShape"
   id="g616">
        <g
   id="id79">
         <rect
   class="BoundingBox"
   stroke="none"
   fill="none"
   x="21798"
   y="6397"
   width="3175"
   height="953"
   id="rect611" />
         <path
   fill="#ffb74d"
   stroke="none"
   d="m 21798,7349 c 0,-317 0,-635 0,-952 1058,0 2116,0 3174,0 0,317 0,635 0,952 -1058,0 -2116,0 -3174,0 z"
   id="path613" />
        </g>
       </g>
       <g
   class="com.sun.star.drawing.ClosedBezierShape"
   id="g623">
        <g
   id="id80">
         <rect
   class="BoundingBox"
   stroke="none"
   fill="none"
   x="22092"
   y="6701"
   width="216"
   height="357"
   id="rect618" />
         <path
   fill="#000000"
   stroke="none"
   d="m 22093,7057 c 0,-18 0,-36 0,-54 25,0 50,0 76,0 0,-83 0,-165 0,-248 -26,0 -51,0 -76,0 0,-18 0,-36 0,-54 71,0 142,0 214,0 0,18 0,36 0,54 -25,0 -51,0 -76,0 0,83 0,165 0,248 25,0 51,0 76,0 0,18 0,36 0,54 -72,0 -143,0 -214,0 z"
   id="path620" />
        </g>
       </g>
       <g
   class="com.sun.star.drawing.ClosedBezierShape"
   id="g630">
        <g
   id="id81">
         <rect
   class="BoundingBox"
   stroke="none"
   fill="none"
   x="22383"
   y="6780"
   width="226"
   height="278"
   id="rect625" />
         <path
   fill="#000000"
   stroke="none"
   d="m 22383,7057 v -272 h 59 v 47 h 4 c 3,-17 11,-29 24,-38 12,-9 28,-14 48,-14 27,0 49,9 65,27 16,18 24,42 24,72 v 178 h -61 v -171 c 0,-16 -5,-29 -14,-38 -9,-10 -21,-15 -36,-15 -16,0 -29,5 -38,15 -9,10 -13,23 -13,40 v 169 z"
   id="path627" />
        </g>
       </g>
       <g
   class="com.sun.star.drawing.ClosedBezierShape"
   id="g637">
        <g
   id="id82">
         <rect
   class="BoundingBox"
   stroke="none"
   fill="none"
   x="22678"
   y="6780"
   width="238"
   height="283"
   id="rect632" />
         <path
   fill="#000000"
   stroke="none"
   d="m 22796,7062 c -18,0 -34,-2 -49,-7 -14,-5 -27,-12 -37,-22 -10,-9 -18,-20 -24,-33 -5,-13 -8,-28 -8,-44 v -70 c 0,-16 3,-30 8,-43 6,-13 14,-24 24,-34 10,-9 23,-16 37,-21 15,-5 31,-8 49,-8 15,0 30,2 44,7 13,4 25,11 35,19 10,8 19,19 26,30 6,12 11,25 13,40 h -62 c -2,-12 -8,-23 -18,-30 -10,-8 -23,-12 -38,-12 -18,0 -31,5 -41,14 -10,9 -15,22 -15,38 v 70 c 0,16 5,29 14,38 10,9 24,14 42,14 14,0 27,-4 37,-12 11,-7 17,-17 19,-30 h 62 c -2,15 -7,28 -13,40 -7,12 -16,22 -26,30 -10,8 -22,15 -36,19 -13,5 -28,7 -43,7 z"
   id="path634" />
        </g>
       </g>
       <g
   class="com.sun.star.drawing.ClosedBezierShape"
   id="g644">
        <g
   id="id83">
         <rect
   class="BoundingBox"
   stroke="none"
   fill="none"
   x="22987"
   y="6780"
   width="233"
   height="278"
   id="rect639" />
         <path
   fill="#000000"
   stroke="none"
   d="m 22987,6785 h 59 v 47 h 4 c 3,-17 12,-29 25,-38 13,-9 30,-14 50,-14 30,0 52,9 69,27 16,18 25,43 25,75 v 20 h -65 v -14 c 0,-18 -5,-31 -14,-41 -10,-10 -23,-15 -40,-15 -16,0 -28,5 -37,15 -9,10 -14,24 -14,41 v 169 h -62 z"
   id="path641" />
        </g>
       </g>
       <g
   class="com.sun.star.drawing.ClosedBezierShape"
   id="g651">
        <g
   id="id84">
         <rect
   class="BoundingBox"
   stroke="none"
   fill="none"
   x="23266"
   y="6780"
   width="238"
   height="283"
   id="rect646" />
         <path
   fill="#000000"
   stroke="none"
   d="m 23385,7062 c -18,0 -34,-3 -49,-8 -15,-5 -27,-12 -37,-21 -10,-9 -18,-21 -24,-34 -6,-13 -8,-28 -8,-44 v -69 c 0,-16 2,-30 8,-44 6,-13 14,-24 24,-33 10,-10 22,-17 37,-22 15,-5 31,-7 49,-7 17,0 34,3 48,8 15,5 27,12 37,21 10,9 18,21 24,34 5,13 8,28 8,44 v 50 h -174 v 17 c 0,18 5,33 15,43 10,10 24,15 42,15 13,0 25,-2 34,-6 9,-4 16,-10 20,-18 h 61 c -3,11 -8,21 -15,31 -7,9 -15,17 -25,23 -11,6 -22,11 -35,15 -12,3 -26,5 -40,5 z m 57,-167 v -8 c 0,-18 -5,-32 -15,-42 -10,-10 -24,-16 -42,-16 -18,0 -32,6 -42,16 -10,10 -15,24 -15,42 v 8 z"
   id="path648" />
        </g>
       </g>
       <g
   class="com.sun.star.drawing.ClosedBezierShape"
   id="g658">
        <g
   id="id85">
         <rect
   class="BoundingBox"
   stroke="none"
   fill="none"
   x="23557"
   y="6780"
   width="251"
   height="278"
   id="rect653" />
         <path
   fill="#000000"
   stroke="none"
   d="m 23558,6785 h 47 v 40 h 4 c 1,-14 6,-25 14,-33 8,-8 19,-12 32,-12 13,0 24,4 32,12 9,8 15,19 18,33 h 2 c 1,-14 6,-25 14,-33 8,-8 19,-12 32,-12 17,0 30,6 39,19 10,12 14,29 14,50 v 208 h -52 v -203 c 0,-20 -8,-30 -23,-30 -16,0 -23,10 -23,31 v 202 h -52 v -203 c 0,-17 -5,-27 -16,-29 -4,-1 -6,-1 -8,-1 -1,0 -4,0 -7,1 -10,2 -15,13 -15,30 v 202 h -52 z"
   id="path655" />
        </g>
       </g>
       <g
   class="com.sun.star.drawing.ClosedBezierShape"
   id="g665">
        <g
   id="id86">
         <rect
   class="BoundingBox"
   stroke="none"
   fill="none"
   x="23859"
   y="6780"
   width="238"
   height="283"
   id="rect660" />
         <path
   fill="#000000"
   stroke="none"
   d="m 23978,7062 c -18,0 -34,-3 -49,-8 -15,-5 -27,-12 -37,-21 -10,-9 -18,-21 -24,-34 -6,-13 -8,-28 -8,-44 v -69 c 0,-16 2,-30 8,-44 6,-13 14,-24 24,-33 10,-10 22,-17 37,-22 15,-5 31,-7 49,-7 17,0 34,3 48,8 15,5 27,12 37,21 10,9 18,21 24,34 5,13 8,28 8,44 v 50 h -174 v 17 c 0,18 5,33 15,43 10,10 24,15 42,15 13,0 25,-2 34,-6 9,-4 16,-10 20,-18 h 61 c -3,11 -8,21 -15,31 -7,9 -15,17 -25,23 -11,6 -22,11 -35,15 -12,3 -26,5 -40,5 z m 57,-167 v -8 c 0,-18 -5,-32 -15,-42 -10,-10 -24,-16 -42,-16 -18,0 -32,6 -42,16 -10,10 -15,24 -15,42 v 8 z"
   id="path662" />
        </g>
       </g>
       <g
   class="com.sun.star.drawing.ClosedBezierShape"
   id="g672">
        <g
   id="id87">
         <rect
   class="BoundingBox"
   stroke="none"
   fill="none"
   x="24161"
   y="6780"
   width="226"
   height="278"
   id="rect667" />
         <path
   fill="#000000"
   stroke="none"
   d="m 24161,7057 v -272 h 59 v 47 h 4 c 3,-17 11,-29 24,-38 12,-9 28,-14 48,-14 27,0 49,9 65,27 16,18 24,42 24,72 v 178 h -61 v -171 c 0,-16 -5,-29 -14,-38 -9,-10 -21,-15 -36,-15 -16,0 -29,5 -38,15 -9,10 -13,23 -13,40 v 169 z"
   id="path669" />
        </g>
       </g>
       <g
   class="com.sun.star.drawing.ClosedBezierShape"
   id="g679">
        <g
   id="id88">
         <rect
   class="BoundingBox"
   stroke="none"
   fill="none"
   x="24444"
   y="6701"
   width="242"
   height="357"
   id="rect674" />
         <path
   fill="#000000"
   stroke="none"
   d="m 24445,6785 h 75 v -84 h 62 v 84 h 103 v 56 h -103 v 132 c 0,8 2,15 7,20 5,6 12,8 22,8 h 69 v 56 h -74 c -26,0 -47,-8 -63,-23 -15,-15 -23,-35 -23,-61 v -132 h -75 z"
   id="path676" />
        </g>
       </g>
      </g><g
   class="Group"
   id="g997">
       <g
   class="com.sun.star.drawing.ClosedBezierShape"
   id="g939">
        <g
   id="id122">
         <rect
   class="BoundingBox"
   stroke="none"
   fill="none"
   x="13063"
   y="2395"
   width="275"
   height="403"
   id="rect934" />
         <path
   fill="#ffffff"
   stroke="none"
   d="m 13224,2395 c 24,0 43,3 59,9 16,6 33,16 49,29 l -29,35 c -24,-19 -49,-29 -75,-29 -33,0 -59,12 -78,37 -20,25 -30,65 -30,120 0,53 10,92 29,118 20,25 46,38 78,38 17,0 31,-3 43,-9 12,-5 25,-13 39,-24 l 28,35 c -12,12 -27,22 -46,31 -19,8 -41,12 -66,12 -31,0 -59,-8 -84,-23 -24,-16 -44,-39 -57,-69 -14,-30 -21,-67 -21,-109 0,-43 7,-79 21,-109 15,-31 34,-53 59,-69 24,-15 51,-23 81,-23 z"
   id="path936" />
        </g>
       </g>
       <g
   class="com.sun.star.drawing.ClosedBezierShape"
   id="g946">
        <g
   id="id123">
         <rect
   class="BoundingBox"
   stroke="none"
   fill="none"
   x="13373"
   y="2486"
   width="267"
   height="312"
   id="rect941" />
         <path
   fill="#ffffff"
   stroke="none"
   d="m 13506,2486 c 42,0 74,14 98,42 23,28 34,66 34,113 0,31 -5,58 -16,82 -10,23 -25,42 -45,55 -20,12 -44,19 -71,19 -42,0 -75,-14 -98,-42 -23,-28 -35,-65 -35,-113 0,-31 5,-58 16,-82 10,-23 26,-41 46,-54 20,-13 43,-20 71,-20 z m 0,42 c -51,0 -77,38 -77,114 0,75 26,113 77,113 51,0 76,-38 76,-114 0,-75 -25,-113 -76,-113 z"
   id="path943" />
        </g>
       </g>
       <g
   class="com.sun.star.drawing.ClosedBezierShape"
   id="g953">
        <g
   id="id124">
         <rect
   class="BoundingBox"
   stroke="none"
   fill="none"
   x="13721"
   y="2493"
   width="226"
   height="305"
   id="rect948" />
         <path
   fill="#ffffff"
   stroke="none"
   d="m 13946,2790 h -45 l -4,-46 c -11,18 -24,32 -39,40 -14,9 -32,13 -53,13 -26,0 -47,-8 -61,-24 -15,-15 -22,-38 -22,-67 v -213 h 52 v 208 c 0,20 3,34 10,43 8,8 19,12 35,12 29,0 54,-17 75,-51 v -212 h 52 z"
   id="path950" />
        </g>
       </g>
       <g
   class="com.sun.star.drawing.ClosedBezierShape"
   id="g960">
        <g
   id="id125">
         <rect
   class="BoundingBox"
   stroke="none"
   fill="none"
   x="14050"
   y="2486"
   width="228"
   height="305"
   id="rect955" />
         <path
   fill="#ffffff"
   stroke="none"
   d="m 14190,2486 c 28,0 49,8 64,24 15,16 23,39 23,67 v 213 h -52 v -206 c 0,-21 -4,-36 -12,-44 -8,-9 -20,-13 -35,-13 -16,0 -30,4 -42,13 -12,9 -23,22 -34,39 v 211 h -51 v -297 h 44 l 5,44 c 10,-16 23,-28 39,-37 15,-9 33,-14 51,-14 z"
   id="path957" />
        </g>
       </g>
       <g
   class="com.sun.star.drawing.ClosedBezierShape"
   id="g967">
        <g
   id="id126">
         <rect
   class="BoundingBox"
   stroke="none"
   fill="none"
   x="14332"
   y="2419"
   width="200"
   height="379"
   id="rect962" />
         <path
   fill="#ffffff"
   stroke="none"
   d="m 14531,2777 c -20,13 -42,20 -67,20 -25,0 -45,-7 -59,-22 -14,-14 -21,-35 -21,-63 v -179 h -52 v -40 h 52 v -67 l 52,-6 v 73 h 70 l -5,40 h -65 v 177 c 0,16 3,27 8,34 5,7 15,10 27,10 13,0 26,-4 40,-13 z"
   id="path964" />
        </g>
       </g>
       <g
   class="com.sun.star.drawing.ClosedBezierShape"
   id="g974">
        <g
   id="id127">
         <rect
   class="BoundingBox"
   stroke="none"
   fill="none"
   x="14558"
   y="2486"
   width="248"
   height="313"
   id="rect969" />
         <path
   fill="#ffffff"
   stroke="none"
   d="m 14804,2633 c 0,8 0,17 -1,26 h -190 c 3,33 11,57 25,73 15,15 33,23 56,23 14,0 27,-2 39,-6 12,-5 25,-11 38,-20 l 22,31 c -31,25 -66,37 -103,37 -42,0 -74,-14 -97,-41 -23,-27 -35,-64 -35,-111 0,-31 5,-59 15,-83 10,-23 24,-42 43,-56 19,-13 40,-20 66,-20 39,0 69,13 90,39 22,26 32,62 32,108 z m -51,-15 c 0,-30 -6,-52 -18,-68 -11,-15 -29,-23 -52,-23 -43,0 -66,31 -70,94 h 140 z"
   id="path971" />
        </g>
       </g>
       <g
   class="com.sun.star.drawing.ClosedBezierShape"
   id="g981">
        <g
   id="id128">
         <rect
   class="BoundingBox"
   stroke="none"
   fill="none"
   x="14888"
   y="2486"
   width="161"
   height="305"
   id="rect976" />
         <path
   fill="#ffffff"
   stroke="none"
   d="m 15018,2486 c 10,0 20,1 29,3 l -10,51 c -9,-2 -17,-3 -25,-3 -19,0 -34,7 -45,20 -11,14 -20,35 -27,63 v 170 h -51 v -297 h 44 l 5,60 c 8,-22 19,-39 32,-50 14,-11 30,-17 48,-17 z"
   id="path978" />
        </g>
       </g>
       <g
   class="com.sun.star.drawing.ClosedBezierShape"
   id="g988">
        <g
   id="id129">
         <rect
   class="BoundingBox"
   stroke="none"
   fill="none"
   x="15079"
   y="2511"
   width="80"
   height="287"
   id="rect983" />
         <path
   fill="#ffffff"
   stroke="none"
   d="m 15118,2719 c 11,0 21,3 28,11 8,7 12,17 12,28 0,10 -4,20 -12,27 -7,8 -17,12 -28,12 -11,0 -20,-4 -28,-12 -7,-7 -11,-17 -11,-27 0,-11 4,-21 11,-28 8,-8 17,-11 28,-11 z m 0,-208 c 11,0 21,4 28,11 8,8 12,17 12,28 0,11 -4,20 -12,28 -7,8 -17,11 -28,11 -11,0 -20,-3 -28,-11 -7,-8 -11,-17 -11,-28 0,-11 4,-20 11,-28 8,-7 17,-11 28,-11 z"
   id="path985" />
        </g>
       </g>
       <g
   class="com.sun.star.drawing.ClosedBezierShape"
   id="g995">
        <g
   id="id130">
         <rect
   class="BoundingBox"
   stroke="none"
   fill="none"
   x="15514"
   y="2407"
   width="254"
   height="391"
   id="rect990" />
         <path
   fill="#ffffff"
   stroke="none"
   d="m 15640,2407 c 42,0 74,17 95,50 21,33 32,82 32,145 0,63 -11,111 -32,145 -21,33 -53,50 -95,50 -41,0 -73,-17 -94,-50 -21,-34 -32,-82 -32,-145 0,-63 11,-112 32,-145 21,-33 53,-50 94,-50 z m 0,41 c -24,0 -42,12 -54,36 -12,24 -18,64 -18,118 0,54 6,93 18,117 12,25 30,37 54,37 24,0 42,-12 54,-37 13,-24 19,-63 19,-117 0,-54 -6,-93 -19,-117 -12,-25 -30,-37 -54,-37 z"
   id="path992" />
        </g>
       </g>
      </g><g
   class="com.sun.star.drawing.ClosedBezierShape"
   id="g1004">
       <g
   id="id131">
        <rect
   class="BoundingBox"
   stroke="none"
   fill="none"
   x="18516"
   y="2412"
   width="165"
   height="379"
   id="rect999" />
        <path
   fill="#ffffff"
   stroke="none"
   d="m 18679,2790 c -17,0 -34,0 -52,0 0,-107 0,-215 0,-322 -29,18 -58,36 -88,54 -7,-13 -15,-25 -22,-37 39,-24 78,-48 116,-72 16,0 31,0 46,0 0,125 0,251 0,377 z"
   id="path1001" />
       </g>
      </g><g
   class="com.sun.star.drawing.ClosedBezierShape"
   id="g1011">
       <g
   id="id132">
        <rect
   class="BoundingBox"
   stroke="none"
   fill="none"
   x="21671"
   y="2406"
   width="238"
   height="384"
   id="rect1006" />
        <path
   fill="#ffffff"
   stroke="none"
   d="m 21786,2406 c 22,0 42,5 59,14 17,9 30,21 40,36 9,16 14,34 14,53 0,23 -5,45 -16,66 -10,21 -26,44 -47,68 -22,25 -54,59 -98,103 h 170 l -6,43 h -223 v -41 c 50,-52 86,-91 107,-115 21,-24 36,-45 45,-63 9,-18 14,-38 14,-59 0,-19 -6,-34 -17,-45 -11,-12 -26,-17 -45,-17 -16,0 -29,3 -41,9 -11,7 -24,17 -36,32 l -35,-27 c 16,-19 33,-33 51,-43 19,-9 40,-14 64,-14 z"
   id="path1008" />
       </g>
      </g><g
   class="com.sun.star.drawing.ClosedBezierShape"
   id="g1018">
       <g
   id="id133">
        <rect
   class="BoundingBox"
   stroke="none"
   fill="none"
   x="24839"
   y="2406"
   width="244"
   height="391"
   id="rect1013" />
        <path
   fill="#ffffff"
   stroke="none"
   d="m 24958,2406 c 23,0 43,5 60,13 17,9 29,21 38,35 9,15 14,31 14,48 0,23 -7,42 -20,57 -14,15 -32,25 -54,30 25,2 46,11 62,27 16,16 23,37 23,64 0,22 -5,42 -15,60 -11,17 -26,31 -45,41 -20,10 -43,15 -68,15 -23,0 -44,-4 -63,-13 -20,-8 -36,-21 -51,-38 l 31,-29 c 13,13 26,23 39,29 13,6 27,9 42,9 24,0 42,-7 56,-20 14,-14 20,-32 20,-54 0,-25 -6,-43 -19,-53 -13,-10 -31,-15 -56,-15 h -28 l 6,-40 h 19 c 20,0 36,-6 49,-17 13,-12 20,-28 20,-49 0,-18 -6,-32 -17,-42 -12,-11 -27,-16 -46,-16 -15,0 -28,3 -40,8 -12,5 -25,14 -38,26 l -27,-31 c 32,-30 68,-45 108,-45 z"
   id="path1015" />
       </g>
      </g><g
   class="com.sun.star.drawing.ClosedBezierShape"
   id="g1025">
       <g
   id="id134">
        <rect
   class="BoundingBox"
   stroke="none"
   fill="none"
   x="12890"
   y="2096"
   width="12413"
   height="982"
   id="rect1020" />
        <path
   fill="none"
   stroke="#ffffff"
   stroke-width="28"
   stroke-linejoin="round"
   d="m 12904,3063 v -953 h 12383 v 953 z"
   id="path1022" />
       </g>
      </g>
 </g>
</svg>
