<?xml version="1.0" encoding="UTF-8" standalone="no"?>
<svg
   version="1.2"
   width="95.260002mm"
   height="82.559998mm"
   viewBox="0 0 9526.0002 8255.9998"
   preserveAspectRatio="xMidYMid"
   fill-rule="evenodd"
   stroke-width="28.222"
   stroke-linejoin="round"
   xml:space="preserve"
   id="svg1035"
   sodipodi:docname="non_blocking_timing.svg"
   inkscape:version="1.1 (c68e22c387, 2021-05-23)"
   xmlns:inkscape="http://www.inkscape.org/namespaces/inkscape"
   xmlns:sodipodi="http://sodipodi.sourceforge.net/DTD/sodipodi-0.dtd"
   xmlns="http://www.w3.org/2000/svg"
   xmlns:svg="http://www.w3.org/2000/svg"
   xmlns:ooo="http://xml.openoffice.org/svg/export"><sodipodi:namedview
   id="namedview1037"
   pagecolor="#ffffff"
   bordercolor="#666666"
   borderopacity="1.0"
   inkscape:pageshadow="2"
   inkscape:pageopacity="0.0"
   inkscape:pagecheckerboard="0"
   inkscape:document-units="mm"
   showgrid="false"
   fit-margin-top="0"
   fit-margin-left="0"
   fit-margin-right="0"
   fit-margin-bottom="0"
   inkscape:zoom="0.98525794"
   inkscape:cx="498.85414"
   inkscape:cy="254.24814"
   inkscape:window-width="2560"
   inkscape:window-height="1016"
   inkscape:window-x="0"
   inkscape:window-y="0"
   inkscape:window-maximized="1"
   inkscape:current-layer="svg1035" />
 <defs
   class="ClipPathGroup"
   id="defs8">
  <clipPath
   id="presentation_clip_path"
   clipPathUnits="userSpaceOnUse">
   <rect
   x="0"
   y="0"
   width="29700"
   height="21000"
   id="rect2" />
  </clipPath>
  <clipPath
   id="presentation_clip_path_shrink"
   clipPathUnits="userSpaceOnUse">
   <rect
   x="29"
   y="21"
   width="29641"
   height="20958"
   id="rect5" />
  </clipPath>
 
  
 
   
  
    
   
     
    
      
      
      
      
      
      
      
      
      
      
      
      
      
      
      
      
      
      
      
      
      
      
      
      
      
      
      
      
      
      
      
      
      
      
      
      
      
      
     </defs>
 <defs
   class="TextShapeIndex"
   id="defs12">
  <g
   ooo:slide="id1"
   ooo:id-list="id3 id4 id5 id6 id7 id8 id9 id10 id11 id12 id13 id14 id15 id16 id17 id18 id19 id20 id21 id22 id23 id24 id25 id26 id27 id28 id29 id30 id31 id32 id33 id34 id35 id36 id37 id38 id39 id40 id41 id42 id43 id44 id45 id46 id47 id48 id49 id50 id51 id52 id53 id54 id55 id56 id57 id58 id59 id60 id61 id62 id63 id64 id65 id66 id67 id68 id69 id70 id71 id72 id73 id74 id75 id76 id77 id78 id79 id80 id81 id82 id83 id84 id85 id86 id87 id88 id89 id90 id91 id92 id93 id94 id95 id96 id97 id98 id99 id100 id101 id102 id103 id104 id105 id106 id107 id108 id109 id110 id111 id112 id113 id114 id115 id116 id117 id118 id119 id120 id121 id122 id123 id124 id125 id126 id127 id128 id129 id130 id131 id132 id133 id134"
   id="g10" />
 </defs>
 <defs
   class="EmbeddedBulletChars"
   id="defs44">
  <g
   id="bullet-char-template-57356"
   transform="matrix(4.8828125e-4,0,0,-4.8828125e-4,0,0)">
   <path
   d="M 580,1141 1163,571 580,0 -4,571 Z"
   id="path14" />
  </g>
  <g
   id="bullet-char-template-57354"
   transform="matrix(4.8828125e-4,0,0,-4.8828125e-4,0,0)">
   <path
   d="M 8,1128 H 1137 V 0 H 8 Z"
   id="path17" />
  </g>
  <g
   id="bullet-char-template-10146"
   transform="matrix(4.8828125e-4,0,0,-4.8828125e-4,0,0)">
   <path
   d="M 174,0 602,739 174,1481 1456,739 Z M 1358,739 309,1346 659,739 Z"
   id="path20" />
  </g>
  <g
   id="bullet-char-template-10132"
   transform="matrix(4.8828125e-4,0,0,-4.8828125e-4,0,0)">
   <path
   d="M 2015,739 1276,0 H 717 l 543,543 H 174 v 393 h 1086 l -543,545 h 557 z"
   id="path23" />
  </g>
  <g
   id="bullet-char-template-10007"
   transform="matrix(4.8828125e-4,0,0,-4.8828125e-4,0,0)">
   <path
   d="m 0,-2 c -7,16 -16,29 -25,39 l 381,530 c -94,256 -141,385 -141,387 0,25 13,38 40,38 9,0 21,-2 34,-5 21,4 42,12 65,25 l 27,-13 111,-251 280,301 64,-25 24,25 c 21,-10 41,-24 62,-43 C 886,937 835,863 770,784 769,783 710,716 594,584 L 774,223 c 0,-27 -21,-55 -63,-84 l 16,-20 C 717,90 699,76 672,76 641,76 570,178 457,381 L 164,-76 c -22,-34 -53,-51 -92,-51 -42,0 -63,17 -64,51 -7,9 -10,24 -10,44 0,9 1,19 2,30 z"
   id="path26" />
  </g>
  <g
   id="bullet-char-template-10004"
   transform="matrix(4.8828125e-4,0,0,-4.8828125e-4,0,0)">
   <path
   d="M 285,-33 C 182,-33 111,30 74,156 52,228 41,333 41,471 c 0,78 14,145 41,201 34,71 87,106 158,106 53,0 88,-31 106,-94 l 23,-176 c 8,-64 28,-97 59,-98 l 735,706 c 11,11 33,17 66,17 42,0 63,-15 63,-46 V 965 c 0,-36 -10,-64 -30,-84 L 442,47 C 390,-6 338,-33 285,-33 Z"
   id="path29" />
  </g>
  <g
   id="bullet-char-template-9679"
   transform="matrix(4.8828125e-4,0,0,-4.8828125e-4,0,0)">
   <path
   d="M 813,0 C 632,0 489,54 383,161 276,268 223,411 223,592 c 0,181 53,324 160,431 106,107 249,161 430,161 179,0 323,-54 432,-161 108,-107 162,-251 162,-431 0,-180 -54,-324 -162,-431 C 1136,54 992,0 813,0 Z"
   id="path32" />
  </g>
  <g
   id="bullet-char-template-8226"
   transform="matrix(4.8828125e-4,0,0,-4.8828125e-4,0,0)">
   <path
   d="m 346,457 c -73,0 -137,26 -191,78 -54,51 -81,114 -81,188 0,73 27,136 81,188 54,52 118,78 191,78 73,0 134,-26 185,-79 51,-51 77,-114 77,-187 0,-75 -25,-137 -76,-188 -50,-52 -112,-78 -186,-78 z"
   id="path35" />
  </g>
  <g
   id="bullet-char-template-8211"
   transform="matrix(4.8828125e-4,0,0,-4.8828125e-4,0,0)">
   <path
   d="M -4,459 H 1135 V 606 H -4 Z"
   id="path38" />
  </g>
  <g
   id="bullet-char-template-61548"
   transform="matrix(4.8828125e-4,0,0,-4.8828125e-4,0,0)">
   <path
   d="m 173,740 c 0,163 58,303 173,419 116,115 255,173 419,173 163,0 302,-58 418,-173 116,-116 174,-256 174,-419 0,-163 -58,-303 -174,-418 C 1067,206 928,148 765,148 601,148 462,206 346,322 231,437 173,577 173,740 Z"
   id="path41" />
  </g>
 </defs>
 <g
   id="g49"
   transform="translate(-1635,-1635)">
  <g
   id="id2"
   class="Master_Slide">
   <g
   id="bg-id2"
   class="Background" />
   <g
   id="bo-id2"
   class="BackgroundObjects" />
  </g>
 </g>
 <g
   class="com.sun.star.drawing.ClosedBezierShape"
   id="g63"
   transform="translate(-1635,-1635)">
       <g
   id="id4">
        <rect
   class="BoundingBox"
   stroke="none"
   fill="none"
   x="1635"
   y="1635"
   width="9526"
   height="8256"
   id="rect58" />
        <path
   fill="#000000"
   stroke="none"
   d="m 1635,9890 c 0,-2752 0,-5503 0,-8255 3175,0 6350,0 9525,0 0,2752 0,5503 0,8255 -3175,0 -6350,0 -9525,0 z"
   id="path60" />
       </g>
      </g><g
   class="Group"
   id="g135"
   transform="translate(-1635,-1635)">
       <g
   class="com.sun.star.drawing.ClosedBezierShape"
   id="g70">
        <g
   id="id5">
         <rect
   class="BoundingBox"
   stroke="none"
   fill="none"
   x="5919"
   y="5113"
   width="3176"
   height="953"
   id="rect65" />
         <path
   fill="#e57373"
   stroke="none"
   d="m 5919,6065 c 0,-317 0,-635 0,-952 1058,0 2117,0 3175,0 0,317 0,635 0,952 -1058,0 -2117,0 -3175,0 z"
   id="path67" />
        </g>
       </g>
       <g
   class="com.sun.star.drawing.ClosedBezierShape"
   id="g77">
        <g
   id="id6">
         <rect
   class="BoundingBox"
   stroke="none"
   fill="none"
   x="6213"
   y="5417"
   width="216"
   height="357"
   id="rect72" />
         <path
   fill="#000000"
   stroke="none"
   d="m 6214,5773 c 0,-18 0,-36 0,-54 25,0 50,0 76,0 0,-83 0,-165 0,-248 -26,0 -51,0 -76,0 0,-18 0,-36 0,-54 71,0 142,0 214,0 0,18 0,36 0,54 -25,0 -51,0 -76,0 0,83 0,165 0,248 25,0 51,0 76,0 0,18 0,36 0,54 -72,0 -143,0 -214,0 z"
   id="path74" />
        </g>
       </g>
       <g
   class="com.sun.star.drawing.ClosedBezierShape"
   id="g84">
        <g
   id="id7">
         <rect
   class="BoundingBox"
   stroke="none"
   fill="none"
   x="6504"
   y="5496"
   width="226"
   height="278"
   id="rect79" />
         <path
   fill="#000000"
   stroke="none"
   d="m 6504,5773 v -272 h 59 v 47 h 4 c 3,-17 11,-29 24,-38 12,-9 28,-14 48,-14 27,0 49,9 65,27 16,18 24,42 24,72 v 178 h -61 v -171 c 0,-16 -5,-29 -14,-38 -9,-10 -21,-15 -36,-15 -16,0 -29,5 -38,15 -9,10 -13,23 -13,40 v 169 z"
   id="path81" />
        </g>
       </g>
       <g
   class="com.sun.star.drawing.ClosedBezierShape"
   id="g91">
        <g
   id="id8">
         <rect
   class="BoundingBox"
   stroke="none"
   fill="none"
   x="6799"
   y="5496"
   width="238"
   height="283"
   id="rect86" />
         <path
   fill="#000000"
   stroke="none"
   d="m 6917,5778 c -18,0 -34,-2 -49,-7 -14,-5 -27,-12 -37,-22 -10,-9 -18,-20 -24,-33 -5,-13 -8,-28 -8,-44 v -70 c 0,-16 3,-30 8,-43 6,-13 14,-25 24,-34 10,-9 23,-16 37,-21 15,-5 31,-8 49,-8 15,0 30,2 44,7 13,4 25,11 35,19 10,8 19,19 26,30 6,12 11,25 13,40 h -62 c -2,-13 -8,-23 -18,-30 -10,-8 -23,-12 -38,-12 -18,0 -31,5 -41,14 -10,9 -15,22 -15,38 v 70 c 0,16 5,29 14,38 10,9 24,14 42,14 14,0 27,-4 37,-12 11,-7 17,-17 19,-30 h 62 c -2,15 -7,28 -13,40 -7,12 -16,22 -26,30 -10,8 -22,15 -36,19 -13,5 -28,7 -43,7 z"
   id="path88" />
        </g>
       </g>
       <g
   class="com.sun.star.drawing.ClosedBezierShape"
   id="g98">
        <g
   id="id9">
         <rect
   class="BoundingBox"
   stroke="none"
   fill="none"
   x="7108"
   y="5496"
   width="233"
   height="278"
   id="rect93" />
         <path
   fill="#000000"
   stroke="none"
   d="m 7108,5501 h 59 v 47 h 4 c 3,-17 12,-29 25,-38 13,-9 30,-14 50,-14 30,0 52,9 69,27 16,18 25,43 25,75 v 20 h -65 v -14 c 0,-18 -5,-31 -14,-41 -10,-10 -23,-15 -40,-15 -16,0 -28,5 -37,15 -9,10 -14,24 -14,41 v 169 h -62 z"
   id="path95" />
        </g>
       </g>
       <g
   class="com.sun.star.drawing.ClosedBezierShape"
   id="g105">
        <g
   id="id10">
         <rect
   class="BoundingBox"
   stroke="none"
   fill="none"
   x="7387"
   y="5496"
   width="238"
   height="283"
   id="rect100" />
         <path
   fill="#000000"
   stroke="none"
   d="m 7506,5778 c -18,0 -34,-3 -49,-8 -15,-5 -27,-12 -37,-21 -10,-9 -18,-21 -24,-34 -6,-13 -8,-28 -8,-44 v -69 c 0,-16 2,-30 8,-44 6,-13 14,-24 24,-33 10,-10 22,-17 37,-22 15,-5 31,-7 49,-7 17,0 34,3 48,8 15,5 27,12 37,21 10,9 18,21 24,34 5,13 8,28 8,44 v 50 h -174 v 17 c 0,18 5,33 15,43 10,10 24,15 42,15 13,0 25,-2 34,-6 9,-4 16,-10 20,-18 h 61 c -3,11 -8,21 -15,31 -7,9 -15,17 -25,23 -11,6 -22,11 -35,15 -12,3 -26,5 -40,5 z m 57,-167 v -8 c 0,-18 -5,-32 -15,-42 -10,-10 -24,-16 -42,-16 -18,0 -32,6 -42,16 -10,10 -15,24 -15,42 v 8 z"
   id="path102" />
        </g>
       </g>
       <g
   class="com.sun.star.drawing.ClosedBezierShape"
   id="g112">
        <g
   id="id11">
         <rect
   class="BoundingBox"
   stroke="none"
   fill="none"
   x="7678"
   y="5496"
   width="251"
   height="278"
   id="rect107" />
         <path
   fill="#000000"
   stroke="none"
   d="m 7679,5501 h 47 v 40 h 4 c 1,-14 6,-25 14,-33 8,-8 19,-12 32,-12 13,0 24,4 32,12 9,8 15,19 18,33 h 2 c 1,-14 6,-25 14,-33 8,-8 19,-12 32,-12 17,0 30,6 39,19 10,12 14,29 14,50 v 208 h -52 v -203 c 0,-20 -8,-30 -23,-30 -16,0 -23,10 -23,31 v 202 h -52 v -203 c 0,-17 -5,-27 -16,-29 -4,-1 -6,-1 -8,-1 -1,0 -4,0 -7,1 -10,2 -15,13 -15,30 v 202 h -52 z"
   id="path109" />
        </g>
       </g>
       <g
   class="com.sun.star.drawing.ClosedBezierShape"
   id="g119">
        <g
   id="id12">
         <rect
   class="BoundingBox"
   stroke="none"
   fill="none"
   x="7980"
   y="5496"
   width="238"
   height="283"
   id="rect114" />
         <path
   fill="#000000"
   stroke="none"
   d="m 8099,5778 c -18,0 -34,-3 -49,-8 -15,-5 -27,-12 -37,-21 -10,-9 -18,-21 -24,-34 -6,-13 -8,-28 -8,-44 v -69 c 0,-16 2,-30 8,-44 6,-13 14,-24 24,-33 10,-10 22,-17 37,-22 15,-5 31,-7 49,-7 17,0 34,3 48,8 15,5 27,12 37,21 10,9 18,21 24,34 5,13 8,28 8,44 v 50 h -174 v 17 c 0,18 5,33 15,43 10,10 24,15 42,15 13,0 25,-2 34,-6 9,-4 16,-10 20,-18 h 61 c -3,11 -8,21 -15,31 -7,9 -15,17 -25,23 -11,6 -22,11 -35,15 -12,3 -26,5 -40,5 z m 57,-167 v -8 c 0,-18 -5,-32 -15,-42 -10,-10 -24,-16 -42,-16 -18,0 -32,6 -42,16 -10,10 -15,24 -15,42 v 8 z"
   id="path116" />
        </g>
       </g>
       <g
   class="com.sun.star.drawing.ClosedBezierShape"
   id="g126">
        <g
   id="id13">
         <rect
   class="BoundingBox"
   stroke="none"
   fill="none"
   x="8282"
   y="5496"
   width="226"
   height="278"
   id="rect121" />
         <path
   fill="#000000"
   stroke="none"
   d="m 8282,5773 v -272 h 59 v 47 h 4 c 3,-17 11,-29 24,-38 12,-9 28,-14 48,-14 27,0 49,9 65,27 16,18 24,42 24,72 v 178 h -61 v -171 c 0,-16 -5,-29 -14,-38 -9,-10 -21,-15 -36,-15 -16,0 -29,5 -38,15 -9,10 -13,23 -13,40 v 169 z"
   id="path123" />
        </g>
       </g>
       <g
   class="com.sun.star.drawing.ClosedBezierShape"
   id="g133">
        <g
   id="id14">
         <rect
   class="BoundingBox"
   stroke="none"
   fill="none"
   x="8565"
   y="5417"
   width="242"
   height="357"
   id="rect128" />
         <path
   fill="#000000"
   stroke="none"
   d="m 8566,5501 h 75 v -84 h 62 v 84 h 103 v 56 h -103 v 132 c 0,8 2,15 7,20 5,6 12,8 22,8 h 69 v 56 h -74 c -26,0 -47,-8 -63,-23 -15,-15 -23,-35 -23,-61 v -132 h -75 z"
   id="path130" />
        </g>
       </g>
      </g><g
   class="Group"
   id="g207"
   transform="translate(-1635,-1635)">
       <g
   class="com.sun.star.drawing.ClosedBezierShape"
   id="g142">
        <g
   id="id15">
         <rect
   class="BoundingBox"
   stroke="none"
   fill="none"
   x="7191"
   y="6383"
   width="3175"
   height="953"
   id="rect137" />
         <path
   fill="#ffb74d"
   stroke="none"
   d="m 7191,7335 c 0,-317 0,-635 0,-952 1058,0 2116,0 3174,0 0,317 0,635 0,952 -1058,0 -2116,0 -3174,0 z"
   id="path139" />
        </g>
       </g>
       <g
   class="com.sun.star.drawing.ClosedBezierShape"
   id="g149">
        <g
   id="id16">
         <rect
   class="BoundingBox"
   stroke="none"
   fill="none"
   x="7485"
   y="6686"
   width="216"
   height="358"
   id="rect144" />
         <path
   fill="#000000"
   stroke="none"
   d="m 7486,7043 c 0,-18 0,-36 0,-54 25,0 50,0 76,0 0,-83 0,-165 0,-248 -26,0 -51,0 -76,0 0,-18 0,-36 0,-54 71,0 142,0 214,0 0,18 0,36 0,54 -25,0 -51,0 -76,0 0,83 0,165 0,248 25,0 51,0 76,0 0,18 0,36 0,54 -72,0 -143,0 -214,0 z"
   id="path146" />
        </g>
       </g>
       <g
   class="com.sun.star.drawing.ClosedBezierShape"
   id="g156">
        <g
   id="id17">
         <rect
   class="BoundingBox"
   stroke="none"
   fill="none"
   x="7776"
   y="6766"
   width="226"
   height="279"
   id="rect151" />
         <path
   fill="#000000"
   stroke="none"
   d="m 7776,7043 v -272 h 59 v 47 h 4 c 3,-17 11,-29 24,-38 12,-9 28,-14 48,-14 27,0 49,9 65,27 16,18 24,42 24,72 v 178 h -61 v -171 c 0,-16 -5,-29 -14,-38 -9,-10 -21,-15 -36,-15 -16,0 -29,5 -38,15 -9,10 -13,23 -13,40 v 169 z"
   id="path153" />
        </g>
       </g>
       <g
   class="com.sun.star.drawing.ClosedBezierShape"
   id="g163">
        <g
   id="id18">
         <rect
   class="BoundingBox"
   stroke="none"
   fill="none"
   x="8071"
   y="6766"
   width="238"
   height="283"
   id="rect158" />
         <path
   fill="#000000"
   stroke="none"
   d="m 8189,7048 c -18,0 -34,-2 -49,-7 -14,-5 -27,-12 -37,-22 -10,-9 -18,-20 -24,-33 -5,-13 -8,-28 -8,-44 v -70 c 0,-16 3,-30 8,-43 6,-13 14,-25 24,-34 10,-9 23,-16 37,-21 15,-5 31,-8 49,-8 15,0 30,2 44,7 13,4 25,11 35,19 10,8 19,19 26,30 6,12 11,25 13,40 h -62 c -2,-13 -8,-23 -18,-30 -10,-8 -23,-12 -38,-12 -18,0 -31,5 -41,14 -10,9 -15,22 -15,38 v 70 c 0,16 5,29 14,38 10,9 24,14 42,14 14,0 27,-4 37,-12 11,-7 17,-17 19,-30 h 62 c -2,15 -7,28 -13,40 -7,12 -16,22 -26,30 -10,8 -22,15 -36,19 -13,5 -28,7 -43,7 z"
   id="path160" />
        </g>
       </g>
       <g
   class="com.sun.star.drawing.ClosedBezierShape"
   id="g170">
        <g
   id="id19">
         <rect
   class="BoundingBox"
   stroke="none"
   fill="none"
   x="8380"
   y="6766"
   width="233"
   height="279"
   id="rect165" />
         <path
   fill="#000000"
   stroke="none"
   d="m 8380,6771 h 59 v 47 h 4 c 3,-17 12,-29 25,-38 13,-9 30,-14 50,-14 30,0 52,9 69,27 16,18 25,43 25,75 v 20 h -65 v -14 c 0,-18 -5,-31 -14,-41 -10,-10 -23,-15 -40,-15 -16,0 -28,5 -37,15 -9,10 -14,24 -14,41 v 169 h -62 z"
   id="path167" />
        </g>
       </g>
       <g
   class="com.sun.star.drawing.ClosedBezierShape"
   id="g177">
        <g
   id="id20">
         <rect
   class="BoundingBox"
   stroke="none"
   fill="none"
   x="8659"
   y="6766"
   width="238"
   height="283"
   id="rect172" />
         <path
   fill="#000000"
   stroke="none"
   d="m 8778,7048 c -18,0 -34,-3 -49,-8 -15,-5 -27,-12 -37,-21 -10,-9 -18,-21 -24,-34 -6,-13 -8,-28 -8,-44 v -69 c 0,-16 2,-30 8,-44 6,-13 14,-24 24,-33 10,-10 22,-17 37,-22 15,-5 31,-7 49,-7 17,0 34,3 48,8 15,5 27,12 37,21 10,9 18,21 24,34 5,13 8,28 8,44 v 50 h -174 v 17 c 0,18 5,33 15,43 10,10 24,15 42,15 13,0 25,-2 34,-6 9,-4 16,-10 20,-18 h 61 c -3,11 -8,21 -15,31 -7,9 -15,17 -25,23 -11,6 -22,11 -35,15 -12,3 -26,5 -40,5 z m 57,-167 v -8 c 0,-18 -5,-32 -15,-42 -10,-10 -24,-16 -42,-16 -18,0 -32,6 -42,16 -10,10 -15,24 -15,42 v 8 z"
   id="path174" />
        </g>
       </g>
       <g
   class="com.sun.star.drawing.ClosedBezierShape"
   id="g184">
        <g
   id="id21">
         <rect
   class="BoundingBox"
   stroke="none"
   fill="none"
   x="8950"
   y="6766"
   width="251"
   height="279"
   id="rect179" />
         <path
   fill="#000000"
   stroke="none"
   d="m 8951,6771 h 47 v 40 h 4 c 1,-14 6,-25 14,-33 8,-8 19,-12 32,-12 13,0 24,4 32,12 9,8 15,19 18,33 h 2 c 1,-14 6,-25 14,-33 8,-8 19,-12 32,-12 17,0 30,6 39,19 10,12 14,29 14,50 v 208 h -52 v -203 c 0,-20 -8,-30 -23,-30 -16,0 -23,10 -23,31 v 202 h -52 v -203 c 0,-17 -5,-27 -16,-29 -4,-1 -6,-1 -8,-1 -1,0 -4,0 -7,1 -10,2 -15,13 -15,30 v 202 h -52 z"
   id="path181" />
        </g>
       </g>
       <g
   class="com.sun.star.drawing.ClosedBezierShape"
   id="g191">
        <g
   id="id22">
         <rect
   class="BoundingBox"
   stroke="none"
   fill="none"
   x="9252"
   y="6766"
   width="238"
   height="283"
   id="rect186" />
         <path
   fill="#000000"
   stroke="none"
   d="m 9371,7048 c -18,0 -34,-3 -49,-8 -15,-5 -27,-12 -37,-21 -10,-9 -18,-21 -24,-34 -6,-13 -8,-28 -8,-44 v -69 c 0,-16 2,-30 8,-44 6,-13 14,-24 24,-33 10,-10 22,-17 37,-22 15,-5 31,-7 49,-7 17,0 34,3 48,8 15,5 27,12 37,21 10,9 18,21 24,34 5,13 8,28 8,44 v 50 h -174 v 17 c 0,18 5,33 15,43 10,10 24,15 42,15 13,0 25,-2 34,-6 9,-4 16,-10 20,-18 h 61 c -3,11 -8,21 -15,31 -7,9 -15,17 -25,23 -11,6 -22,11 -35,15 -12,3 -26,5 -40,5 z m 57,-167 v -8 c 0,-18 -5,-32 -15,-42 -10,-10 -24,-16 -42,-16 -18,0 -32,6 -42,16 -10,10 -15,24 -15,42 v 8 z"
   id="path188" />
        </g>
       </g>
       <g
   class="com.sun.star.drawing.ClosedBezierShape"
   id="g198">
        <g
   id="id23">
         <rect
   class="BoundingBox"
   stroke="none"
   fill="none"
   x="9554"
   y="6766"
   width="226"
   height="279"
   id="rect193" />
         <path
   fill="#000000"
   stroke="none"
   d="m 9554,7043 v -272 h 59 v 47 h 4 c 3,-17 11,-29 24,-38 12,-9 28,-14 48,-14 27,0 49,9 65,27 16,18 24,42 24,72 v 178 h -61 v -171 c 0,-16 -5,-29 -14,-38 -9,-10 -21,-15 -36,-15 -16,0 -29,5 -38,15 -9,10 -13,23 -13,40 v 169 z"
   id="path195" />
        </g>
       </g>
       <g
   class="com.sun.star.drawing.ClosedBezierShape"
   id="g205">
        <g
   id="id24">
         <rect
   class="BoundingBox"
   stroke="none"
   fill="none"
   x="9837"
   y="6686"
   width="242"
   height="358"
   id="rect200" />
         <path
   fill="#000000"
   stroke="none"
   d="m 9838,6771 h 75 v -84 h 62 v 84 h 103 v 56 h -103 v 132 c 0,8 2,15 7,20 5,6 12,8 22,8 h 69 v 56 h -74 c -26,0 -47,-8 -63,-23 -15,-15 -23,-35 -23,-61 v -132 h -75 z"
   id="path202" />
        </g>
       </g>
      </g><g
   class="Group"
   id="g279"
   transform="translate(-1635,-1635)">
       <g
   class="com.sun.star.drawing.ClosedBezierShape"
   id="g214">
        <g
   id="id25">
         <rect
   class="BoundingBox"
   stroke="none"
   fill="none"
   x="4649"
   y="3842"
   width="3176"
   height="954"
   id="rect209" />
         <path
   fill="#fff176"
   stroke="none"
   d="m 4649,4795 c 0,-317 0,-635 0,-952 1058,0 2117,0 3175,0 0,317 0,635 0,952 -1058,0 -2117,0 -3175,0 z"
   id="path211" />
        </g>
       </g>
       <g
   class="com.sun.star.drawing.ClosedBezierShape"
   id="g221">
        <g
   id="id26">
         <rect
   class="BoundingBox"
   stroke="none"
   fill="none"
   x="4943"
   y="4147"
   width="216"
   height="357"
   id="rect216" />
         <path
   fill="#000000"
   stroke="none"
   d="m 4944,4503 c 0,-18 0,-36 0,-54 25,0 50,0 76,0 0,-83 0,-165 0,-248 -26,0 -51,0 -76,0 0,-18 0,-36 0,-54 71,0 142,0 214,0 0,18 0,36 0,54 -25,0 -51,0 -76,0 0,83 0,165 0,248 25,0 51,0 76,0 0,18 0,36 0,54 -72,0 -143,0 -214,0 z"
   id="path218" />
        </g>
       </g>
       <g
   class="com.sun.star.drawing.ClosedBezierShape"
   id="g228">
        <g
   id="id27">
         <rect
   class="BoundingBox"
   stroke="none"
   fill="none"
   x="5234"
   y="4226"
   width="226"
   height="278"
   id="rect223" />
         <path
   fill="#000000"
   stroke="none"
   d="m 5234,4503 v -272 h 59 v 47 h 4 c 3,-17 11,-29 24,-38 12,-9 28,-14 48,-14 27,0 49,9 65,27 16,18 24,42 24,72 v 178 h -61 v -171 c 0,-16 -5,-29 -14,-38 -9,-10 -21,-15 -36,-15 -16,0 -29,5 -38,15 -9,10 -13,23 -13,40 v 169 z"
   id="path225" />
        </g>
       </g>
       <g
   class="com.sun.star.drawing.ClosedBezierShape"
   id="g235">
        <g
   id="id28">
         <rect
   class="BoundingBox"
   stroke="none"
   fill="none"
   x="5529"
   y="4226"
   width="238"
   height="283"
   id="rect230" />
         <path
   fill="#000000"
   stroke="none"
   d="m 5647,4508 c -18,0 -34,-2 -49,-7 -14,-5 -27,-12 -37,-22 -10,-9 -18,-20 -24,-33 -5,-13 -8,-28 -8,-44 v -70 c 0,-16 3,-30 8,-43 6,-13 14,-24 24,-34 10,-9 23,-16 37,-21 15,-5 31,-8 49,-8 15,0 30,2 44,7 13,4 25,11 35,19 10,8 19,19 26,30 6,12 11,25 13,40 h -62 c -2,-12 -8,-23 -18,-30 -10,-8 -23,-12 -38,-12 -18,0 -31,5 -41,14 -10,9 -15,22 -15,38 v 70 c 0,16 5,29 14,38 10,9 24,14 42,14 14,0 27,-4 37,-12 11,-7 17,-17 19,-30 h 62 c -2,15 -7,28 -13,40 -7,12 -16,22 -26,30 -10,8 -22,15 -36,19 -13,5 -28,7 -43,7 z"
   id="path232" />
        </g>
       </g>
       <g
   class="com.sun.star.drawing.ClosedBezierShape"
   id="g242">
        <g
   id="id29">
         <rect
   class="BoundingBox"
   stroke="none"
   fill="none"
   x="5838"
   y="4226"
   width="233"
   height="278"
   id="rect237" />
         <path
   fill="#000000"
   stroke="none"
   d="m 5838,4231 h 59 v 47 h 4 c 3,-17 12,-29 25,-38 13,-9 30,-14 50,-14 30,0 52,9 69,27 16,18 25,43 25,75 v 20 h -65 v -14 c 0,-18 -5,-31 -14,-41 -10,-10 -23,-15 -40,-15 -16,0 -28,5 -37,15 -9,10 -14,24 -14,41 v 169 h -62 z"
   id="path239" />
        </g>
       </g>
       <g
   class="com.sun.star.drawing.ClosedBezierShape"
   id="g249">
        <g
   id="id30">
         <rect
   class="BoundingBox"
   stroke="none"
   fill="none"
   x="6117"
   y="4226"
   width="238"
   height="283"
   id="rect244" />
         <path
   fill="#000000"
   stroke="none"
   d="m 6236,4508 c -18,0 -34,-3 -49,-8 -15,-5 -27,-12 -37,-21 -10,-9 -18,-21 -24,-34 -6,-13 -8,-28 -8,-44 v -69 c 0,-16 2,-30 8,-44 6,-13 14,-24 24,-33 10,-10 22,-17 37,-22 15,-5 31,-7 49,-7 17,0 34,3 48,8 15,5 27,12 37,21 10,9 18,21 24,34 5,13 8,28 8,44 v 50 h -174 v 17 c 0,18 5,33 15,43 10,10 24,15 42,15 13,0 25,-2 34,-6 9,-4 16,-10 20,-18 h 61 c -3,11 -8,21 -15,31 -7,9 -15,17 -25,23 -11,6 -22,11 -35,15 -12,3 -26,5 -40,5 z m 57,-167 v -8 c 0,-18 -5,-32 -15,-42 -10,-10 -24,-16 -42,-16 -18,0 -32,6 -42,16 -10,10 -15,24 -15,42 v 8 z"
   id="path246" />
        </g>
       </g>
       <g
   class="com.sun.star.drawing.ClosedBezierShape"
   id="g256">
        <g
   id="id31">
         <rect
   class="BoundingBox"
   stroke="none"
   fill="none"
   x="6408"
   y="4226"
   width="251"
   height="278"
   id="rect251" />
         <path
   fill="#000000"
   stroke="none"
   d="m 6409,4231 h 47 v 40 h 4 c 1,-14 6,-25 14,-33 8,-8 19,-12 32,-12 13,0 24,4 32,12 9,8 15,19 18,33 h 2 c 1,-14 6,-25 14,-33 8,-8 19,-12 32,-12 17,0 30,6 39,19 10,12 14,29 14,50 v 208 h -52 v -203 c 0,-20 -8,-30 -23,-30 -16,0 -23,10 -23,31 v 202 h -52 v -203 c 0,-17 -5,-27 -16,-29 -4,-1 -6,-1 -8,-1 -1,0 -4,0 -7,1 -10,2 -15,13 -15,30 v 202 h -52 z"
   id="path253" />
        </g>
       </g>
       <g
   class="com.sun.star.drawing.ClosedBezierShape"
   id="g263">
        <g
   id="id32">
         <rect
   class="BoundingBox"
   stroke="none"
   fill="none"
   x="6710"
   y="4226"
   width="238"
   height="283"
   id="rect258" />
         <path
   fill="#000000"
   stroke="none"
   d="m 6829,4508 c -18,0 -34,-3 -49,-8 -15,-5 -27,-12 -37,-21 -10,-9 -18,-21 -24,-34 -6,-13 -8,-28 -8,-44 v -69 c 0,-16 2,-30 8,-44 6,-13 14,-24 24,-33 10,-10 22,-17 37,-22 15,-5 31,-7 49,-7 17,0 34,3 48,8 15,5 27,12 37,21 10,9 18,21 24,34 5,13 8,28 8,44 v 50 h -174 v 17 c 0,18 5,33 15,43 10,10 24,15 42,15 13,0 25,-2 34,-6 9,-4 16,-10 20,-18 h 61 c -3,11 -8,21 -15,31 -7,9 -15,17 -25,23 -11,6 -22,11 -35,15 -12,3 -26,5 -40,5 z m 57,-167 v -8 c 0,-18 -5,-32 -15,-42 -10,-10 -24,-16 -42,-16 -18,0 -32,6 -42,16 -10,10 -15,24 -15,42 v 8 z"
   id="path260" />
        </g>
       </g>
       <g
   class="com.sun.star.drawing.ClosedBezierShape"
   id="g270">
        <g
   id="id33">
         <rect
   class="BoundingBox"
   stroke="none"
   fill="none"
   x="7012"
   y="4226"
   width="226"
   height="278"
   id="rect265" />
         <path
   fill="#000000"
   stroke="none"
   d="m 7012,4503 v -272 h 59 v 47 h 4 c 3,-17 11,-29 24,-38 12,-9 28,-14 48,-14 27,0 49,9 65,27 16,18 24,42 24,72 v 178 h -61 v -171 c 0,-16 -5,-29 -14,-38 -9,-10 -21,-15 -36,-15 -16,0 -29,5 -38,15 -9,10 -13,23 -13,40 v 169 z"
   id="path267" />
        </g>
       </g>
       <g
   class="com.sun.star.drawing.ClosedBezierShape"
   id="g277">
        <g
   id="id34">
         <rect
   class="BoundingBox"
   stroke="none"
   fill="none"
   x="7295"
   y="4147"
   width="242"
   height="357"
   id="rect272" />
         <path
   fill="#000000"
   stroke="none"
   d="m 7296,4231 h 75 v -84 h 62 v 84 h 103 v 56 h -103 v 132 c 0,8 2,15 7,20 5,6 12,8 22,8 h 69 v 56 h -74 c -26,0 -47,-8 -63,-23 -15,-15 -23,-35 -23,-61 v -132 h -75 z"
   id="path274" />
        </g>
       </g>
      </g><g
   class="com.sun.star.drawing.OpenBezierShape"
   id="g288"
   transform="translate(-1635,-1635)">
       <g
   id="id35">
        <rect
   class="BoundingBox"
   stroke="none"
   fill="none"
   x="4510"
   y="4795"
   width="281"
   height="3059"
   id="rect281" />
        <path
   fill="none"
   stroke="#ffffff"
   stroke-width="53"
   stroke-linejoin="round"
   stroke-linecap="round"
   d="M 4650,5166 V 7826"
   id="path283" />
        <path
   fill="#ffffff"
   stroke="none"
   d="m 4760,5163 29,22 -139,-390 -140,390 29,-21 33,-17 37,-11 39,-5 40,4 38,11 z"
   id="path285" />
       </g>
      </g><g
   class="Group"
   id="g325"
   transform="translate(-1635,-1635)">
       <g
   class="com.sun.star.drawing.ClosedBezierShape"
   id="g295">
        <g
   id="id36">
         <rect
   class="BoundingBox"
   stroke="none"
   fill="none"
   x="4428"
   y="8906"
   width="403"
   height="275"
   id="rect290" />
         <path
   fill="#ffffff"
   stroke="none"
   d="m 4428,9019 c 0,-24 3,-43 9,-59 6,-16 16,-32 29,-49 l 35,29 c -19,24 -29,49 -29,75 0,33 12,59 37,78 25,20 65,30 120,30 53,0 92,-10 118,-29 25,-20 38,-46 38,-78 0,-17 -3,-31 -9,-43 -5,-12 -13,-25 -24,-39 l 35,-28 c 12,12 22,27 31,46 8,19 12,41 12,66 0,31 -8,59 -23,84 -16,25 -39,44 -69,57 -30,14 -67,21 -109,21 -43,0 -79,-7 -109,-21 -31,-15 -53,-34 -69,-59 -15,-24 -23,-51 -23,-81 z"
   id="path292" />
        </g>
       </g>
       <g
   class="com.sun.star.drawing.ClosedBezierShape"
   id="g302">
        <g
   id="id37">
         <rect
   class="BoundingBox"
   stroke="none"
   fill="none"
   x="4400"
   y="8744"
   width="431"
   height="105"
   id="rect297" />
         <path
   fill="#ffffff"
   stroke="none"
   d="m 4830,8785 c 0,19 -6,35 -17,46 -12,11 -28,16 -48,16 h -359 l -6,-52 h 363 c 9,0 15,-1 19,-4 3,-3 5,-7 5,-14 0,-7 -1,-14 -3,-19 l 36,-14 c 7,12 10,26 10,41 z"
   id="path299" />
        </g>
       </g>
       <g
   class="com.sun.star.drawing.ClosedBezierShape"
   id="g309">
        <g
   id="id38">
         <rect
   class="BoundingBox"
   stroke="none"
   fill="none"
   x="4383"
   y="8617"
   width="441"
   height="75"
   id="rect304" />
         <path
   fill="#ffffff"
   stroke="none"
   d="m 4823,8628 v 51 h -297 v -51 z m -440,26 c 0,-11 3,-20 10,-26 7,-7 15,-11 26,-11 10,0 18,4 25,11 6,6 10,15 10,26 0,11 -4,19 -10,26 -7,7 -15,10 -25,10 -11,0 -19,-3 -26,-10 -7,-7 -10,-15 -10,-26 z"
   id="path306" />
        </g>
       </g>
       <g
   class="com.sun.star.drawing.ClosedBezierShape"
   id="g316">
        <g
   id="id39">
         <rect
   class="BoundingBox"
   stroke="none"
   fill="none"
   x="4519"
   y="8319"
   width="312"
   height="222"
   id="rect311" />
         <path
   fill="#ffffff"
   stroke="none"
   d="m 4519,8410 c 0,-18 3,-34 8,-48 5,-15 13,-29 24,-43 l 33,25 c -8,11 -13,21 -17,31 -3,10 -5,21 -5,33 0,24 10,43 29,56 19,13 47,20 85,20 38,0 65,-7 83,-20 18,-13 27,-32 27,-56 0,-12 -2,-22 -5,-32 -4,-10 -10,-21 -18,-33 l 34,-24 c 22,27 33,58 33,91 0,40 -14,72 -41,95 -27,23 -64,35 -112,35 -31,0 -59,-5 -83,-16 -24,-10 -42,-25 -55,-45 -13,-19 -20,-42 -20,-69 z"
   id="path313" />
        </g>
       </g>
       <g
   class="com.sun.star.drawing.ClosedBezierShape"
   id="g323">
        <g
   id="id40">
         <rect
   class="BoundingBox"
   stroke="none"
   fill="none"
   x="4399"
   y="8012"
   width="425"
   height="237"
   id="rect318" />
         <path
   fill="#ffffff"
   stroke="none"
   d="m 4823,8196 c 0,17 0,34 0,51 -139,0 -278,0 -417,0 -2,-17 -4,-34 -6,-51 141,0 282,0 423,0 z m -166,-62 c 55,-41 111,-81 166,-122 0,21 0,42 0,62 -54,40 -108,79 -162,118 -45,-36 -90,-73 -135,-109 0,-20 0,-39 0,-58 44,36 87,73 131,109 z"
   id="path320" />
        </g>
       </g>
      </g><g
   class="com.sun.star.drawing.OpenBezierShape"
   id="g334"
   transform="translate(-1635,-1635)">
       <g
   id="id41">
        <rect
   class="BoundingBox"
   stroke="none"
   fill="none"
   x="5780"
   y="6065"
   width="281"
   height="1789"
   id="rect327" />
        <path
   fill="none"
   stroke="#ffffff"
   stroke-width="53"
   stroke-linejoin="round"
   stroke-linecap="round"
   d="M 5920,6436 V 7826"
   id="path329" />
        <path
   fill="#ffffff"
   stroke="none"
   d="m 6030,6433 30,22 -140,-390 -139,390 28,-21 33,-17 37,-11 39,-5 40,4 38,11 z"
   id="path331" />
       </g>
      </g><g
   class="Group"
   id="g371"
   transform="translate(-1635,-1635)">
       <g
   class="com.sun.star.drawing.ClosedBezierShape"
   id="g341">
        <g
   id="id42">
         <rect
   class="BoundingBox"
   stroke="none"
   fill="none"
   x="5698"
   y="8906"
   width="403"
   height="275"
   id="rect336" />
         <path
   fill="#ffffff"
   stroke="none"
   d="m 5698,9019 c 0,-24 3,-43 9,-59 6,-16 16,-32 29,-49 l 35,29 c -19,24 -29,49 -29,75 0,33 12,59 37,78 25,20 65,30 120,30 53,0 92,-10 118,-29 25,-20 38,-46 38,-78 0,-17 -3,-31 -9,-43 -5,-12 -13,-25 -24,-39 l 35,-28 c 12,12 22,27 31,46 8,19 12,41 12,66 0,31 -8,59 -23,84 -16,25 -39,44 -69,57 -30,14 -67,21 -109,21 -43,0 -79,-7 -109,-21 -31,-15 -53,-34 -69,-59 -15,-24 -23,-51 -23,-81 z"
   id="path338" />
        </g>
       </g>
       <g
   class="com.sun.star.drawing.ClosedBezierShape"
   id="g348">
        <g
   id="id43">
         <rect
   class="BoundingBox"
   stroke="none"
   fill="none"
   x="5670"
   y="8744"
   width="431"
   height="105"
   id="rect343" />
         <path
   fill="#ffffff"
   stroke="none"
   d="m 6100,8785 c 0,19 -6,35 -17,46 -12,11 -28,16 -48,16 h -359 l -6,-52 h 363 c 9,0 15,-1 18,-4 4,-3 6,-7 6,-14 0,-7 -1,-14 -3,-19 l 36,-14 c 7,12 10,26 10,41 z"
   id="path345" />
        </g>
       </g>
       <g
   class="com.sun.star.drawing.ClosedBezierShape"
   id="g355">
        <g
   id="id44">
         <rect
   class="BoundingBox"
   stroke="none"
   fill="none"
   x="5653"
   y="8617"
   width="441"
   height="75"
   id="rect350" />
         <path
   fill="#ffffff"
   stroke="none"
   d="m 6093,8628 v 51 h -297 v -51 z m -440,26 c 0,-11 3,-20 10,-26 7,-7 15,-11 26,-11 10,0 18,4 25,11 6,6 10,15 10,26 0,11 -4,19 -10,26 -7,7 -15,10 -25,10 -11,0 -19,-3 -26,-10 -7,-7 -10,-15 -10,-26 z"
   id="path352" />
        </g>
       </g>
       <g
   class="com.sun.star.drawing.ClosedBezierShape"
   id="g362">
        <g
   id="id45">
         <rect
   class="BoundingBox"
   stroke="none"
   fill="none"
   x="5789"
   y="8319"
   width="312"
   height="222"
   id="rect357" />
         <path
   fill="#ffffff"
   stroke="none"
   d="m 5789,8410 c 0,-18 3,-34 8,-48 5,-15 13,-29 24,-43 l 33,25 c -8,11 -13,21 -17,31 -3,10 -5,21 -5,33 0,24 10,43 29,56 19,13 47,20 85,20 38,0 65,-7 83,-20 18,-13 27,-32 27,-56 0,-12 -2,-22 -5,-32 -4,-10 -10,-21 -18,-33 l 34,-24 c 22,27 33,58 33,91 0,40 -14,72 -41,95 -27,23 -64,35 -112,35 -31,0 -59,-5 -83,-16 -24,-10 -42,-25 -55,-45 -13,-19 -20,-42 -20,-69 z"
   id="path359" />
        </g>
       </g>
       <g
   class="com.sun.star.drawing.ClosedBezierShape"
   id="g369">
        <g
   id="id46">
         <rect
   class="BoundingBox"
   stroke="none"
   fill="none"
   x="5670"
   y="8012"
   width="424"
   height="237"
   id="rect364" />
         <path
   fill="#ffffff"
   stroke="none"
   d="m 6093,8196 c 0,17 0,34 0,51 -139,0 -278,0 -417,0 -2,-17 -4,-34 -6,-51 141,0 282,0 423,0 z m -166,-62 c 55,-41 111,-81 166,-122 0,21 0,42 0,62 -54,40 -108,79 -162,118 -45,-36 -90,-73 -135,-109 0,-20 0,-39 0,-58 44,36 87,73 131,109 z"
   id="path366" />
        </g>
       </g>
      </g><g
   class="com.sun.star.drawing.OpenBezierShape"
   id="g380"
   transform="translate(-1635,-1635)">
       <g
   id="id47">
        <rect
   class="BoundingBox"
   stroke="none"
   fill="none"
   x="7050"
   y="7335"
   width="281"
   height="519"
   id="rect373" />
        <path
   fill="none"
   stroke="#ffffff"
   stroke-width="53"
   stroke-linejoin="round"
   stroke-linecap="round"
   d="m 7190,7706 v 120"
   id="path375" />
        <path
   fill="#ffffff"
   stroke="none"
   d="m 7300,7703 29,22 -139,-390 -140,390 29,-21 33,-17 37,-11 39,-5 40,4 38,11 z"
   id="path377" />
       </g>
      </g><g
   class="Group"
   id="g417"
   transform="translate(-1635,-1635)">
       <g
   class="com.sun.star.drawing.ClosedBezierShape"
   id="g387">
        <g
   id="id48">
         <rect
   class="BoundingBox"
   stroke="none"
   fill="none"
   x="6968"
   y="8898"
   width="403"
   height="275"
   id="rect382" />
         <path
   fill="#ffffff"
   stroke="none"
   d="m 6968,9011 c 0,-24 3,-43 9,-59 6,-16 16,-32 29,-49 l 35,29 c -19,24 -29,49 -29,75 0,33 12,59 37,78 25,20 65,30 120,30 53,0 92,-10 118,-29 25,-20 38,-46 38,-78 0,-17 -3,-31 -9,-43 -5,-12 -13,-25 -24,-39 l 35,-28 c 12,12 22,27 31,46 8,19 12,41 12,66 0,31 -8,59 -23,84 -16,25 -39,44 -69,57 -30,14 -67,21 -109,21 -43,0 -79,-7 -109,-21 -31,-15 -53,-34 -69,-59 -15,-24 -23,-51 -23,-81 z"
   id="path384" />
        </g>
       </g>
       <g
   class="com.sun.star.drawing.ClosedBezierShape"
   id="g394">
        <g
   id="id49">
         <rect
   class="BoundingBox"
   stroke="none"
   fill="none"
   x="6940"
   y="8736"
   width="431"
   height="105"
   id="rect389" />
         <path
   fill="#ffffff"
   stroke="none"
   d="m 7370,8777 c 0,19 -6,35 -17,46 -12,11 -28,16 -48,16 h -359 l -6,-52 h 363 c 9,0 15,-1 19,-4 3,-3 5,-8 5,-14 0,-7 -1,-14 -3,-19 l 36,-14 c 7,12 10,26 10,41 z"
   id="path391" />
        </g>
       </g>
       <g
   class="com.sun.star.drawing.ClosedBezierShape"
   id="g401">
        <g
   id="id50">
         <rect
   class="BoundingBox"
   stroke="none"
   fill="none"
   x="6922"
   y="8609"
   width="442"
   height="75"
   id="rect396" />
         <path
   fill="#ffffff"
   stroke="none"
   d="m 7363,8620 v 51 h -297 v -51 z m -440,26 c 0,-11 3,-20 10,-26 7,-7 15,-11 26,-11 10,0 18,4 25,11 6,6 9,15 9,26 0,11 -3,19 -9,26 -7,7 -15,10 -25,10 -11,0 -19,-3 -26,-10 -7,-7 -10,-15 -10,-26 z"
   id="path398" />
        </g>
       </g>
       <g
   class="com.sun.star.drawing.ClosedBezierShape"
   id="g408">
        <g
   id="id51">
         <rect
   class="BoundingBox"
   stroke="none"
   fill="none"
   x="7059"
   y="8311"
   width="312"
   height="222"
   id="rect403" />
         <path
   fill="#ffffff"
   stroke="none"
   d="m 7059,8402 c 0,-18 3,-34 8,-48 5,-15 13,-29 24,-43 l 33,25 c -8,11 -13,21 -17,31 -3,10 -5,21 -5,33 0,24 10,43 29,56 19,13 47,20 85,20 38,0 65,-7 83,-20 18,-13 27,-32 27,-56 0,-12 -2,-22 -5,-32 -4,-10 -10,-21 -18,-33 l 34,-24 c 22,27 33,58 33,91 0,40 -14,72 -41,95 -27,23 -64,35 -112,35 -31,0 -59,-5 -83,-16 -24,-10 -42,-25 -55,-45 -13,-19 -20,-42 -20,-69 z"
   id="path405" />
        </g>
       </g>
       <g
   class="com.sun.star.drawing.ClosedBezierShape"
   id="g415">
        <g
   id="id52">
         <rect
   class="BoundingBox"
   stroke="none"
   fill="none"
   x="6940"
   y="8004"
   width="424"
   height="237"
   id="rect410" />
         <path
   fill="#ffffff"
   stroke="none"
   d="m 7363,8188 c 0,17 0,34 0,51 -139,0 -278,0 -417,0 -2,-17 -4,-34 -6,-51 141,0 282,0 423,0 z m -166,-62 c 55,-41 111,-81 166,-122 0,21 0,42 0,62 -54,40 -108,79 -162,118 -45,-36 -90,-73 -135,-109 0,-20 0,-39 0,-58 44,36 87,73 131,109 z"
   id="path412" />
        </g>
       </g>
      </g><g
   class="com.sun.star.drawing.OpenBezierShape"
   id="g426"
   transform="translate(-1635,-1635)">
       <g
   id="id53">
        <rect
   class="BoundingBox"
   stroke="none"
   fill="none"
   x="7685"
   y="3064"
   width="281"
   height="822"
   id="rect419" />
        <path
   fill="none"
   stroke="#ffffff"
   stroke-width="53"
   stroke-linejoin="round"
   stroke-linecap="round"
   d="m 7825,3435 v 423"
   id="path421" />
        <path
   fill="#ffffff"
   stroke="none"
   d="m 7935,3432 29,22 -139,-390 -140,390 29,-21 33,-17 37,-11 39,-5 40,4 38,11 z"
   id="path423" />
       </g>
      </g><g
   class="Group"
   id="g491"
   transform="translate(-1635,-1635)">
       <g
   class="com.sun.star.drawing.ClosedBezierShape"
   id="g433">
        <g
   id="id54">
         <rect
   class="BoundingBox"
   stroke="none"
   fill="none"
   x="2268"
   y="2395"
   width="275"
   height="403"
   id="rect428" />
         <path
   fill="#ffffff"
   stroke="none"
   d="m 2429,2395 c 24,0 43,3 59,9 16,6 33,16 49,29 l -29,35 c -24,-19 -49,-29 -75,-29 -33,0 -59,12 -78,37 -20,25 -30,65 -30,120 0,53 10,92 29,118 20,25 46,38 78,38 17,0 31,-3 43,-9 12,-5 25,-13 39,-24 l 28,35 c -12,12 -27,22 -46,31 -19,8 -41,12 -66,12 -31,0 -59,-8 -84,-23 -25,-16 -44,-39 -57,-69 -14,-30 -21,-67 -21,-109 0,-43 7,-79 21,-109 15,-31 34,-53 59,-69 24,-15 51,-23 81,-23 z"
   id="path430" />
        </g>
       </g>
       <g
   class="com.sun.star.drawing.ClosedBezierShape"
   id="g440">
        <g
   id="id55">
         <rect
   class="BoundingBox"
   stroke="none"
   fill="none"
   x="2578"
   y="2486"
   width="267"
   height="312"
   id="rect435" />
         <path
   fill="#ffffff"
   stroke="none"
   d="m 2711,2486 c 42,0 74,14 98,42 23,28 34,66 34,113 0,31 -5,58 -16,82 -10,23 -25,42 -45,55 -20,12 -44,19 -71,19 -42,0 -75,-14 -98,-42 -23,-28 -35,-65 -35,-113 0,-31 5,-58 16,-82 10,-23 26,-41 46,-54 20,-13 43,-20 71,-20 z m 0,42 c -51,0 -77,38 -77,114 0,75 26,113 77,113 51,0 76,-38 76,-114 0,-75 -25,-113 -76,-113 z"
   id="path437" />
        </g>
       </g>
       <g
   class="com.sun.star.drawing.ClosedBezierShape"
   id="g447">
        <g
   id="id56">
         <rect
   class="BoundingBox"
   stroke="none"
   fill="none"
   x="2926"
   y="2493"
   width="226"
   height="305"
   id="rect442" />
         <path
   fill="#ffffff"
   stroke="none"
   d="m 3151,2790 h -45 l -4,-46 c -11,18 -24,32 -39,40 -14,9 -32,13 -53,13 -26,0 -47,-8 -61,-24 -15,-15 -22,-38 -22,-67 v -213 h 52 v 208 c 0,20 3,34 10,43 8,8 19,12 35,12 29,0 54,-17 75,-51 v -212 h 52 z"
   id="path444" />
        </g>
       </g>
       <g
   class="com.sun.star.drawing.ClosedBezierShape"
   id="g454">
        <g
   id="id57">
         <rect
   class="BoundingBox"
   stroke="none"
   fill="none"
   x="3255"
   y="2486"
   width="228"
   height="305"
   id="rect449" />
         <path
   fill="#ffffff"
   stroke="none"
   d="m 3395,2486 c 28,0 49,8 64,24 15,16 23,39 23,67 v 213 h -52 v -206 c 0,-21 -4,-36 -12,-44 -8,-9 -20,-13 -35,-13 -16,0 -30,4 -42,13 -12,9 -23,22 -34,39 v 211 h -51 v -297 h 44 l 5,44 c 10,-16 23,-28 39,-37 15,-9 33,-14 51,-14 z"
   id="path451" />
        </g>
       </g>
       <g
   class="com.sun.star.drawing.ClosedBezierShape"
   id="g461">
        <g
   id="id58">
         <rect
   class="BoundingBox"
   stroke="none"
   fill="none"
   x="3537"
   y="2419"
   width="200"
   height="379"
   id="rect456" />
         <path
   fill="#ffffff"
   stroke="none"
   d="m 3736,2777 c -20,13 -42,20 -67,20 -25,0 -45,-7 -59,-22 -14,-14 -21,-35 -21,-63 v -179 h -52 v -40 h 52 v -67 l 52,-6 v 73 h 70 l -5,40 h -65 v 177 c 0,16 3,27 8,34 5,7 15,10 27,10 13,0 26,-4 40,-13 z"
   id="path458" />
        </g>
       </g>
       <g
   class="com.sun.star.drawing.ClosedBezierShape"
   id="g468">
        <g
   id="id59">
         <rect
   class="BoundingBox"
   stroke="none"
   fill="none"
   x="3763"
   y="2486"
   width="248"
   height="313"
   id="rect463" />
         <path
   fill="#ffffff"
   stroke="none"
   d="m 4009,2633 c 0,8 0,17 -1,26 h -190 c 3,33 11,57 25,73 15,15 33,23 56,23 14,0 27,-2 39,-6 12,-5 25,-11 38,-20 l 22,31 c -31,25 -66,37 -103,37 -42,0 -74,-14 -97,-41 -23,-27 -35,-64 -35,-111 0,-31 5,-59 15,-83 10,-23 24,-42 43,-56 19,-13 40,-20 66,-20 39,0 69,13 90,39 22,26 32,62 32,108 z m -51,-15 c 0,-30 -6,-52 -18,-68 -11,-15 -29,-23 -52,-23 -43,0 -66,31 -70,94 h 140 z"
   id="path465" />
        </g>
       </g>
       <g
   class="com.sun.star.drawing.ClosedBezierShape"
   id="g475">
        <g
   id="id60">
         <rect
   class="BoundingBox"
   stroke="none"
   fill="none"
   x="4093"
   y="2486"
   width="161"
   height="305"
   id="rect470" />
         <path
   fill="#ffffff"
   stroke="none"
   d="m 4223,2486 c 10,0 20,1 29,3 l -10,51 c -9,-2 -17,-3 -25,-3 -19,0 -34,7 -45,20 -11,14 -20,35 -27,63 v 170 h -51 v -297 h 44 l 5,60 c 8,-22 19,-39 32,-50 14,-11 30,-17 48,-17 z"
   id="path472" />
        </g>
       </g>
       <g
   class="com.sun.star.drawing.ClosedBezierShape"
   id="g482">
        <g
   id="id61">
         <rect
   class="BoundingBox"
   stroke="none"
   fill="none"
   x="4284"
   y="2511"
   width="80"
   height="287"
   id="rect477" />
         <path
   fill="#ffffff"
   stroke="none"
   d="m 4323,2719 c 11,0 21,3 28,11 8,7 12,17 12,28 0,10 -4,20 -12,27 -7,8 -17,12 -28,12 -11,0 -20,-4 -28,-12 -7,-7 -11,-17 -11,-27 0,-11 4,-21 11,-28 8,-8 17,-11 28,-11 z m 0,-208 c 11,0 21,4 28,11 8,8 12,17 12,28 0,11 -4,20 -12,28 -7,8 -17,11 -28,11 -11,0 -20,-3 -28,-11 -7,-8 -11,-17 -11,-28 0,-11 4,-20 11,-28 8,-7 17,-11 28,-11 z"
   id="path479" />
        </g>
       </g>
       <g
   class="com.sun.star.drawing.ClosedBezierShape"
   id="g489">
        <g
   id="id62">
         <rect
   class="BoundingBox"
   stroke="none"
   fill="none"
   x="4719"
   y="2407"
   width="254"
   height="391"
   id="rect484" />
         <path
   fill="#ffffff"
   stroke="none"
   d="m 4845,2407 c 42,0 74,17 95,50 21,33 32,82 32,145 0,63 -11,111 -32,145 -21,33 -53,50 -95,50 -41,0 -73,-17 -94,-50 -21,-34 -32,-82 -32,-145 0,-63 11,-112 32,-145 21,-33 53,-50 94,-50 z m 0,41 c -24,0 -42,12 -54,36 -12,24 -18,64 -18,118 0,54 6,93 18,117 12,25 30,37 54,37 24,0 42,-12 54,-37 13,-24 19,-63 19,-117 0,-54 -6,-93 -19,-117 -12,-25 -30,-37 -54,-37 z"
   id="path486" />
        </g>
       </g>
      </g><g
   class="com.sun.star.drawing.ClosedBezierShape"
   id="g498"
   transform="translate(-1635,-1635)">
       <g
   id="id63">
        <rect
   class="BoundingBox"
   stroke="none"
   fill="none"
   x="7721"
   y="2412"
   width="165"
   height="379"
   id="rect493" />
        <path
   fill="#ffffff"
   stroke="none"
   d="m 7884,2790 c -17,0 -34,0 -52,0 0,-107 0,-215 0,-322 -29,18 -58,36 -88,54 -7,-13 -15,-25 -22,-37 39,-24 78,-48 116,-72 16,0 31,0 46,0 0,125 0,251 0,377 z"
   id="path495" />
       </g>
      </g><g
   class="com.sun.star.drawing.OpenBezierShape"
   id="g507"
   transform="translate(-1635,-1635)">
       <g
   id="id64">
        <rect
   class="BoundingBox"
   stroke="none"
   fill="none"
   x="8955"
   y="3064"
   width="281"
   height="2092"
   id="rect500" />
        <path
   fill="none"
   stroke="#ffffff"
   stroke-width="53"
   stroke-linejoin="round"
   stroke-linecap="round"
   d="M 9095,3435 V 5128"
   id="path502" />
        <path
   fill="#ffffff"
   stroke="none"
   d="m 9205,3432 30,22 -140,-390 -139,390 28,-21 33,-17 37,-11 39,-5 40,4 38,11 z"
   id="path504" />
       </g>
      </g><g
   class="com.sun.star.drawing.OpenBezierShape"
   id="g516"
   transform="translate(-1635,-1635)">
       <g
   id="id65">
        <rect
   class="BoundingBox"
   stroke="none"
   fill="none"
   x="10225"
   y="3064"
   width="281"
   height="3362"
   id="rect509" />
        <path
   fill="none"
   stroke="#ffffff"
   stroke-width="53"
   stroke-linejoin="round"
   stroke-linecap="round"
   d="M 10365,3435 V 6398"
   id="path511" />
        <path
   fill="#ffffff"
   stroke="none"
   d="m 10475,3432 29,22 -139,-390 -140,390 29,-21 33,-17 37,-11 39,-5 40,4 38,11 z"
   id="path513" />
       </g>
      </g><g
   class="com.sun.star.drawing.ClosedBezierShape"
   id="g523"
   transform="translate(-1635,-1635)">
       <g
   id="id66">
        <rect
   class="BoundingBox"
   stroke="none"
   fill="none"
   x="8970"
   y="2407"
   width="238"
   height="384"
   id="rect518" />
        <path
   fill="#ffffff"
   stroke="none"
   d="m 9085,2407 c 22,0 42,5 59,14 17,9 30,21 40,36 9,16 14,34 14,53 0,23 -5,45 -16,66 -10,21 -26,44 -47,68 -22,25 -54,59 -98,103 h 170 l -6,43 h -223 v -41 c 50,-52 86,-91 107,-115 21,-24 36,-45 45,-63 9,-18 14,-38 14,-59 0,-19 -6,-34 -17,-45 -11,-12 -26,-17 -45,-17 -16,0 -29,3 -41,9 -11,7 -24,17 -36,32 l -35,-27 c 16,-19 33,-33 51,-43 19,-9 40,-14 64,-14 z"
   id="path520" />
       </g>
      </g><g
   class="com.sun.star.drawing.ClosedBezierShape"
   id="g530"
   transform="translate(-1635,-1635)">
       <g
   id="id67">
        <rect
   class="BoundingBox"
   stroke="none"
   fill="none"
   x="10233"
   y="2407"
   width="244"
   height="391"
   id="rect525" />
        <path
   fill="#ffffff"
   stroke="none"
   d="m 10352,2407 c 23,0 43,5 60,13 17,9 29,21 38,35 9,15 14,31 14,48 0,23 -7,42 -20,57 -14,15 -32,25 -54,30 25,2 46,11 62,27 16,16 23,37 23,64 0,22 -5,42 -15,60 -11,17 -26,31 -45,41 -20,10 -43,15 -68,15 -23,0 -44,-4 -63,-13 -20,-8 -36,-21 -51,-38 l 31,-29 c 13,13 26,23 39,29 13,6 27,9 42,9 24,0 42,-7 56,-20 14,-14 20,-32 20,-54 0,-25 -6,-43 -19,-53 -13,-10 -31,-15 -56,-15 h -28 l 6,-40 h 19 c 20,0 36,-6 49,-17 13,-12 20,-28 20,-49 0,-18 -6,-32 -17,-42 -12,-11 -27,-16 -46,-16 -15,0 -28,3 -40,8 -12,5 -25,14 -38,26 l -27,-31 c 32,-30 68,-45 108,-45 z"
   id="path527" />
       </g>
      </g><g
   class="com.sun.star.drawing.ClosedBezierShape"
   id="g537"
   transform="translate(-1635,-1635)">
       <g
   id="id68">
        <rect
   class="BoundingBox"
   stroke="none"
   fill="none"
   x="2095"
   y="2096"
   width="8602"
   height="982"
   id="rect532" />
        <path
   fill="none"
   stroke="#ffffff"
   stroke-width="28"
   stroke-linejoin="round"
   d="m 2109,3063 v -953 h 8573 v 953 z"
   id="path534" />
       </g>
      </g>
</svg>
