<?xml version="1.0" encoding="UTF-8"?>
<!DOCTYPE svg PUBLIC "-//W3C//DTD SVG 1.1//EN" "http://www.w3.org/Graphics/SVG/1.1/DTD/svg11.dtd">
<svg version="1.2" width="297mm" height="210mm" viewBox="0 0 29700 21000" preserveAspectRatio="xMidYMid" fill-rule="evenodd" stroke-width="28.222" stroke-linejoin="round" xmlns="http://www.w3.org/2000/svg" xmlns:ooo="http://xml.openoffice.org/svg/export" xmlns:xlink="http://www.w3.org/1999/xlink" xmlns:presentation="http://sun.com/xmlns/staroffice/presentation" xmlns:smil="http://www.w3.org/2001/SMIL20/" xmlns:anim="urn:oasis:names:tc:opendocument:xmlns:animation:1.0" xml:space="preserve">
 <defs class="ClipPathGroup">
  <clipPath id="presentation_clip_path" clipPathUnits="userSpaceOnUse">
   <rect x="0" y="0" width="29700" height="21000"/>
  </clipPath>
  <clipPath id="presentation_clip_path_shrink" clipPathUnits="userSpaceOnUse">
   <rect x="29" y="21" width="29641" height="20958"/>
  </clipPath>
 </defs>
 <defs class="TextShapeIndex">
  <g ooo:slide="id1" ooo:id-list="id3 id4 id5 id6 id7 id8 id9 id10 id11 id12 id13 id14 id15 id16 id17 id18 id19 id20 id21 id22 id23 id24 id25 id26 id27 id28 id29 id30 id31 id32 id33 id34 id35 id36 id37 id38 id39 id40 id41 id42 id43 id44 id45 id46 id47 id48 id49 id50 id51 id52 id53 id54 id55 id56 id57 id58 id59 id60 id61 id62 id63 id64 id65 id66 id67 id68 id69 id70 id71 id72 id73 id74 id75 id76 id77 id78 id79 id80 id81 id82 id83 id84 id85 id86 id87 id88 id89 id90 id91 id92 id93 id94 id95 id96 id97 id98 id99 id100 id101 id102 id103 id104 id105 id106 id107 id108 id109 id110 id111 id112 id113 id114 id115 id116 id117 id118 id119 id120 id121 id122 id123 id124 id125 id126 id127 id128 id129 id130 id131 id132 id133 id134"/>
 </defs>
 <defs class="EmbeddedBulletChars">
  <g id="bullet-char-template-57356" transform="scale(0.00048828125,-0.00048828125)">
   <path d="M 580,1141 L 1163,571 580,0 -4,571 580,1141 Z"/>
  </g>
  <g id="bullet-char-template-57354" transform="scale(0.00048828125,-0.00048828125)">
   <path d="M 8,1128 L 1137,1128 1137,0 8,0 8,1128 Z"/>
  </g>
  <g id="bullet-char-template-10146" transform="scale(0.00048828125,-0.00048828125)">
   <path d="M 174,0 L 602,739 174,1481 1456,739 174,0 Z M 1358,739 L 309,1346 659,739 1358,739 Z"/>
  </g>
  <g id="bullet-char-template-10132" transform="scale(0.00048828125,-0.00048828125)">
   <path d="M 2015,739 L 1276,0 717,0 1260,543 174,543 174,936 1260,936 717,1481 1274,1481 2015,739 Z"/>
  </g>
  <g id="bullet-char-template-10007" transform="scale(0.00048828125,-0.00048828125)">
   <path d="M 0,-2 C -7,14 -16,27 -25,37 L 356,567 C 262,823 215,952 215,954 215,979 228,992 255,992 264,992 276,990 289,987 310,991 331,999 354,1012 L 381,999 492,748 772,1049 836,1024 860,1049 C 881,1039 901,1025 922,1006 886,937 835,863 770,784 769,783 710,716 594,584 L 774,223 C 774,196 753,168 711,139 L 727,119 C 717,90 699,76 672,76 641,76 570,178 457,381 L 164,-76 C 142,-110 111,-127 72,-127 30,-127 9,-110 8,-76 1,-67 -2,-52 -2,-32 -2,-23 -1,-13 0,-2 Z"/>
  </g>
  <g id="bullet-char-template-10004" transform="scale(0.00048828125,-0.00048828125)">
   <path d="M 285,-33 C 182,-33 111,30 74,156 52,228 41,333 41,471 41,549 55,616 82,672 116,743 169,778 240,778 293,778 328,747 346,684 L 369,508 C 377,444 397,411 428,410 L 1163,1116 C 1174,1127 1196,1133 1229,1133 1271,1133 1292,1118 1292,1087 L 1292,965 C 1292,929 1282,901 1262,881 L 442,47 C 390,-6 338,-33 285,-33 Z"/>
  </g>
  <g id="bullet-char-template-9679" transform="scale(0.00048828125,-0.00048828125)">
   <path d="M 813,0 C 632,0 489,54 383,161 276,268 223,411 223,592 223,773 276,916 383,1023 489,1130 632,1184 813,1184 992,1184 1136,1130 1245,1023 1353,916 1407,772 1407,592 1407,412 1353,268 1245,161 1136,54 992,0 813,0 Z"/>
  </g>
  <g id="bullet-char-template-8226" transform="scale(0.00048828125,-0.00048828125)">
   <path d="M 346,457 C 273,457 209,483 155,535 101,586 74,649 74,723 74,796 101,859 155,911 209,963 273,989 346,989 419,989 480,963 531,910 582,859 608,796 608,723 608,648 583,586 532,535 482,483 420,457 346,457 Z"/>
  </g>
  <g id="bullet-char-template-8211" transform="scale(0.00048828125,-0.00048828125)">
   <path d="M -4,459 L 1135,459 1135,606 -4,606 -4,459 Z"/>
  </g>
  <g id="bullet-char-template-61548" transform="scale(0.00048828125,-0.00048828125)">
   <path d="M 173,740 C 173,903 231,1043 346,1159 462,1274 601,1332 765,1332 928,1332 1067,1274 1183,1159 1299,1043 1357,903 1357,740 1357,577 1299,437 1183,322 1067,206 928,148 765,148 601,148 462,206 346,322 231,437 173,577 173,740 Z"/>
  </g>
 </defs>
 <g>
  <g id="id2" class="Master_Slide">
   <g id="bg-id2" class="Background"/>
   <g id="bo-id2" class="BackgroundObjects"/>
  </g>
 </g>
 <g class="SlideGroup">
  <g>
   <g id="container-id1">
    <g id="id1" class="Slide" clip-path="url(#presentation_clip_path)">
     <g class="Page">
      <g class="com.sun.star.drawing.ClosedBezierShape">
       <g id="id3">
        <rect class="BoundingBox" stroke="none" fill="none" x="12430" y="1635" width="13336" height="8256"/>
        <path fill="rgb(0,0,0)" stroke="none" d="M 12430,9890 C 12430,7138 12430,4387 12430,1635 16875,1635 21320,1635 25765,1635 25765,4387 25765,7138 25765,9890 21320,9890 16875,9890 12430,9890 Z"/>
       </g>
      </g>
      <g class="com.sun.star.drawing.ClosedBezierShape">
       <g id="id4">
        <rect class="BoundingBox" stroke="none" fill="none" x="1635" y="1635" width="9526" height="8256"/>
        <path fill="rgb(0,0,0)" stroke="none" d="M 1635,9890 C 1635,7138 1635,4387 1635,1635 4810,1635 7985,1635 11160,1635 11160,4387 11160,7138 11160,9890 7985,9890 4810,9890 1635,9890 Z"/>
       </g>
      </g>
      <g class="Group">
       <g class="com.sun.star.drawing.ClosedBezierShape">
        <g id="id5">
         <rect class="BoundingBox" stroke="none" fill="none" x="5919" y="5113" width="3176" height="953"/>
         <path fill="rgb(229,115,115)" stroke="none" d="M 5919,6065 C 5919,5748 5919,5430 5919,5113 6977,5113 8036,5113 9094,5113 9094,5430 9094,5748 9094,6065 8036,6065 6977,6065 5919,6065 Z"/>
        </g>
       </g>
       <g class="com.sun.star.drawing.ClosedBezierShape">
        <g id="id6">
         <rect class="BoundingBox" stroke="none" fill="none" x="6213" y="5417" width="216" height="357"/>
         <path fill="rgb(0,0,0)" stroke="none" d="M 6214,5773 C 6214,5755 6214,5737 6214,5719 6239,5719 6264,5719 6290,5719 6290,5636 6290,5554 6290,5471 6264,5471 6239,5471 6214,5471 6214,5453 6214,5435 6214,5417 6285,5417 6356,5417 6428,5417 6428,5435 6428,5453 6428,5471 6403,5471 6377,5471 6352,5471 6352,5554 6352,5636 6352,5719 6377,5719 6403,5719 6428,5719 6428,5737 6428,5755 6428,5773 6356,5773 6285,5773 6214,5773 Z"/>
        </g>
       </g>
       <g class="com.sun.star.drawing.ClosedBezierShape">
        <g id="id7">
         <rect class="BoundingBox" stroke="none" fill="none" x="6504" y="5496" width="226" height="278"/>
         <path fill="rgb(0,0,0)" stroke="none" d="M 6504,5773 L 6504,5501 6563,5501 6563,5548 6567,5548 C 6570,5531 6578,5519 6591,5510 6603,5501 6619,5496 6639,5496 6666,5496 6688,5505 6704,5523 6720,5541 6728,5565 6728,5595 L 6728,5773 6667,5773 6667,5602 C 6667,5586 6662,5573 6653,5564 6644,5554 6632,5549 6617,5549 6601,5549 6588,5554 6579,5564 6570,5574 6566,5587 6566,5604 L 6566,5773 6504,5773 Z"/>
        </g>
       </g>
       <g class="com.sun.star.drawing.ClosedBezierShape">
        <g id="id8">
         <rect class="BoundingBox" stroke="none" fill="none" x="6799" y="5496" width="238" height="283"/>
         <path fill="rgb(0,0,0)" stroke="none" d="M 6917,5778 C 6899,5778 6883,5776 6868,5771 6854,5766 6841,5759 6831,5749 6821,5740 6813,5729 6807,5716 6802,5703 6799,5688 6799,5672 L 6799,5602 C 6799,5586 6802,5572 6807,5559 6813,5546 6821,5534 6831,5525 6841,5516 6854,5509 6868,5504 6883,5499 6899,5496 6917,5496 6932,5496 6947,5498 6961,5503 6974,5507 6986,5514 6996,5522 7006,5530 7015,5541 7022,5552 7028,5564 7033,5577 7035,5592 L 6973,5592 C 6971,5579 6965,5569 6955,5562 6945,5554 6932,5550 6917,5550 6899,5550 6886,5555 6876,5564 6866,5573 6861,5586 6861,5602 L 6861,5672 C 6861,5688 6866,5701 6875,5710 6885,5719 6899,5724 6917,5724 6931,5724 6944,5720 6954,5712 6965,5705 6971,5695 6973,5682 L 7035,5682 C 7033,5697 7028,5710 7022,5722 7015,5734 7006,5744 6996,5752 6986,5760 6974,5767 6960,5771 6947,5776 6932,5778 6917,5778 Z"/>
        </g>
       </g>
       <g class="com.sun.star.drawing.ClosedBezierShape">
        <g id="id9">
         <rect class="BoundingBox" stroke="none" fill="none" x="7108" y="5496" width="233" height="278"/>
         <path fill="rgb(0,0,0)" stroke="none" d="M 7108,5501 L 7167,5501 7167,5548 7171,5548 C 7174,5531 7183,5519 7196,5510 7209,5501 7226,5496 7246,5496 7276,5496 7298,5505 7315,5523 7331,5541 7340,5566 7340,5598 L 7340,5618 7275,5618 7275,5604 C 7275,5586 7270,5573 7261,5563 7251,5553 7238,5548 7221,5548 7205,5548 7193,5553 7184,5563 7175,5573 7170,5587 7170,5604 L 7170,5773 7108,5773 7108,5501 Z"/>
        </g>
       </g>
       <g class="com.sun.star.drawing.ClosedBezierShape">
        <g id="id10">
         <rect class="BoundingBox" stroke="none" fill="none" x="7387" y="5496" width="238" height="283"/>
         <path fill="rgb(0,0,0)" stroke="none" d="M 7506,5778 C 7488,5778 7472,5775 7457,5770 7442,5765 7430,5758 7420,5749 7410,5740 7402,5728 7396,5715 7390,5702 7388,5687 7388,5671 L 7388,5602 C 7388,5586 7390,5572 7396,5558 7402,5545 7410,5534 7420,5525 7430,5515 7442,5508 7457,5503 7472,5498 7488,5496 7506,5496 7523,5496 7540,5499 7554,5504 7569,5509 7581,5516 7591,5525 7601,5534 7609,5546 7615,5559 7620,5572 7623,5587 7623,5603 L 7623,5653 7449,5653 7449,5670 C 7449,5688 7454,5703 7464,5713 7474,5723 7488,5728 7506,5728 7519,5728 7531,5726 7540,5722 7549,5718 7556,5712 7560,5704 L 7621,5704 C 7618,5715 7613,5725 7606,5735 7599,5744 7591,5752 7581,5758 7570,5764 7559,5769 7546,5773 7534,5776 7520,5778 7506,5778 Z M 7563,5611 L 7563,5603 C 7563,5585 7558,5571 7548,5561 7538,5551 7524,5545 7506,5545 7488,5545 7474,5551 7464,5561 7454,5571 7449,5585 7449,5603 L 7449,5611 7563,5611 Z"/>
        </g>
       </g>
       <g class="com.sun.star.drawing.ClosedBezierShape">
        <g id="id11">
         <rect class="BoundingBox" stroke="none" fill="none" x="7678" y="5496" width="251" height="278"/>
         <path fill="rgb(0,0,0)" stroke="none" d="M 7679,5501 L 7726,5501 7726,5541 7730,5541 C 7731,5527 7736,5516 7744,5508 7752,5500 7763,5496 7776,5496 7789,5496 7800,5500 7808,5508 7817,5516 7823,5527 7826,5541 L 7828,5541 C 7829,5527 7834,5516 7842,5508 7850,5500 7861,5496 7874,5496 7891,5496 7904,5502 7913,5515 7923,5527 7927,5544 7927,5565 L 7927,5773 7875,5773 7875,5570 C 7875,5550 7867,5540 7852,5540 7836,5540 7829,5550 7829,5571 L 7829,5773 7777,5773 7777,5570 C 7777,5553 7772,5543 7761,5541 7757,5540 7755,5540 7753,5540 7752,5540 7749,5540 7746,5541 7736,5543 7731,5554 7731,5571 L 7731,5773 7679,5773 7679,5501 Z"/>
        </g>
       </g>
       <g class="com.sun.star.drawing.ClosedBezierShape">
        <g id="id12">
         <rect class="BoundingBox" stroke="none" fill="none" x="7980" y="5496" width="238" height="283"/>
         <path fill="rgb(0,0,0)" stroke="none" d="M 8099,5778 C 8081,5778 8065,5775 8050,5770 8035,5765 8023,5758 8013,5749 8003,5740 7995,5728 7989,5715 7983,5702 7981,5687 7981,5671 L 7981,5602 C 7981,5586 7983,5572 7989,5558 7995,5545 8003,5534 8013,5525 8023,5515 8035,5508 8050,5503 8065,5498 8081,5496 8099,5496 8116,5496 8133,5499 8147,5504 8162,5509 8174,5516 8184,5525 8194,5534 8202,5546 8208,5559 8213,5572 8216,5587 8216,5603 L 8216,5653 8042,5653 8042,5670 C 8042,5688 8047,5703 8057,5713 8067,5723 8081,5728 8099,5728 8112,5728 8124,5726 8133,5722 8142,5718 8149,5712 8153,5704 L 8214,5704 C 8211,5715 8206,5725 8199,5735 8192,5744 8184,5752 8174,5758 8163,5764 8152,5769 8139,5773 8127,5776 8113,5778 8099,5778 Z M 8156,5611 L 8156,5603 C 8156,5585 8151,5571 8141,5561 8131,5551 8117,5545 8099,5545 8081,5545 8067,5551 8057,5561 8047,5571 8042,5585 8042,5603 L 8042,5611 8156,5611 Z"/>
        </g>
       </g>
       <g class="com.sun.star.drawing.ClosedBezierShape">
        <g id="id13">
         <rect class="BoundingBox" stroke="none" fill="none" x="8282" y="5496" width="226" height="278"/>
         <path fill="rgb(0,0,0)" stroke="none" d="M 8282,5773 L 8282,5501 8341,5501 8341,5548 8345,5548 C 8348,5531 8356,5519 8369,5510 8381,5501 8397,5496 8417,5496 8444,5496 8466,5505 8482,5523 8498,5541 8506,5565 8506,5595 L 8506,5773 8445,5773 8445,5602 C 8445,5586 8440,5573 8431,5564 8422,5554 8410,5549 8395,5549 8379,5549 8366,5554 8357,5564 8348,5574 8344,5587 8344,5604 L 8344,5773 8282,5773 Z"/>
        </g>
       </g>
       <g class="com.sun.star.drawing.ClosedBezierShape">
        <g id="id14">
         <rect class="BoundingBox" stroke="none" fill="none" x="8565" y="5417" width="242" height="357"/>
         <path fill="rgb(0,0,0)" stroke="none" d="M 8566,5501 L 8641,5501 8641,5417 8703,5417 8703,5501 8806,5501 8806,5557 8703,5557 8703,5689 C 8703,5697 8705,5704 8710,5709 8715,5715 8722,5717 8732,5717 L 8801,5717 8801,5773 8727,5773 C 8701,5773 8680,5765 8664,5750 8649,5735 8641,5715 8641,5689 L 8641,5557 8566,5557 8566,5501 Z"/>
        </g>
       </g>
      </g>
      <g class="Group">
       <g class="com.sun.star.drawing.ClosedBezierShape">
        <g id="id15">
         <rect class="BoundingBox" stroke="none" fill="none" x="7191" y="6383" width="3175" height="953"/>
         <path fill="rgb(255,183,77)" stroke="none" d="M 7191,7335 C 7191,7018 7191,6700 7191,6383 8249,6383 9307,6383 10365,6383 10365,6700 10365,7018 10365,7335 9307,7335 8249,7335 7191,7335 Z"/>
        </g>
       </g>
       <g class="com.sun.star.drawing.ClosedBezierShape">
        <g id="id16">
         <rect class="BoundingBox" stroke="none" fill="none" x="7485" y="6686" width="216" height="358"/>
         <path fill="rgb(0,0,0)" stroke="none" d="M 7486,7043 C 7486,7025 7486,7007 7486,6989 7511,6989 7536,6989 7562,6989 7562,6906 7562,6824 7562,6741 7536,6741 7511,6741 7486,6741 7486,6723 7486,6705 7486,6687 7557,6687 7628,6687 7700,6687 7700,6705 7700,6723 7700,6741 7675,6741 7649,6741 7624,6741 7624,6824 7624,6906 7624,6989 7649,6989 7675,6989 7700,6989 7700,7007 7700,7025 7700,7043 7628,7043 7557,7043 7486,7043 Z"/>
        </g>
       </g>
       <g class="com.sun.star.drawing.ClosedBezierShape">
        <g id="id17">
         <rect class="BoundingBox" stroke="none" fill="none" x="7776" y="6766" width="226" height="279"/>
         <path fill="rgb(0,0,0)" stroke="none" d="M 7776,7043 L 7776,6771 7835,6771 7835,6818 7839,6818 C 7842,6801 7850,6789 7863,6780 7875,6771 7891,6766 7911,6766 7938,6766 7960,6775 7976,6793 7992,6811 8000,6835 8000,6865 L 8000,7043 7939,7043 7939,6872 C 7939,6856 7934,6843 7925,6834 7916,6824 7904,6819 7889,6819 7873,6819 7860,6824 7851,6834 7842,6844 7838,6857 7838,6874 L 7838,7043 7776,7043 Z"/>
        </g>
       </g>
       <g class="com.sun.star.drawing.ClosedBezierShape">
        <g id="id18">
         <rect class="BoundingBox" stroke="none" fill="none" x="8071" y="6766" width="238" height="283"/>
         <path fill="rgb(0,0,0)" stroke="none" d="M 8189,7048 C 8171,7048 8155,7046 8140,7041 8126,7036 8113,7029 8103,7019 8093,7010 8085,6999 8079,6986 8074,6973 8071,6958 8071,6942 L 8071,6872 C 8071,6856 8074,6842 8079,6829 8085,6816 8093,6804 8103,6795 8113,6786 8126,6779 8140,6774 8155,6769 8171,6766 8189,6766 8204,6766 8219,6768 8233,6773 8246,6777 8258,6784 8268,6792 8278,6800 8287,6811 8294,6822 8300,6834 8305,6847 8307,6862 L 8245,6862 C 8243,6849 8237,6839 8227,6832 8217,6824 8204,6820 8189,6820 8171,6820 8158,6825 8148,6834 8138,6843 8133,6856 8133,6872 L 8133,6942 C 8133,6958 8138,6971 8147,6980 8157,6989 8171,6994 8189,6994 8203,6994 8216,6990 8226,6982 8237,6975 8243,6965 8245,6952 L 8307,6952 C 8305,6967 8300,6980 8294,6992 8287,7004 8278,7014 8268,7022 8258,7030 8246,7037 8232,7041 8219,7046 8204,7048 8189,7048 Z"/>
        </g>
       </g>
       <g class="com.sun.star.drawing.ClosedBezierShape">
        <g id="id19">
         <rect class="BoundingBox" stroke="none" fill="none" x="8380" y="6766" width="233" height="279"/>
         <path fill="rgb(0,0,0)" stroke="none" d="M 8380,6771 L 8439,6771 8439,6818 8443,6818 C 8446,6801 8455,6789 8468,6780 8481,6771 8498,6766 8518,6766 8548,6766 8570,6775 8587,6793 8603,6811 8612,6836 8612,6868 L 8612,6888 8547,6888 8547,6874 C 8547,6856 8542,6843 8533,6833 8523,6823 8510,6818 8493,6818 8477,6818 8465,6823 8456,6833 8447,6843 8442,6857 8442,6874 L 8442,7043 8380,7043 8380,6771 Z"/>
        </g>
       </g>
       <g class="com.sun.star.drawing.ClosedBezierShape">
        <g id="id20">
         <rect class="BoundingBox" stroke="none" fill="none" x="8659" y="6766" width="238" height="283"/>
         <path fill="rgb(0,0,0)" stroke="none" d="M 8778,7048 C 8760,7048 8744,7045 8729,7040 8714,7035 8702,7028 8692,7019 8682,7010 8674,6998 8668,6985 8662,6972 8660,6957 8660,6941 L 8660,6872 C 8660,6856 8662,6842 8668,6828 8674,6815 8682,6804 8692,6795 8702,6785 8714,6778 8729,6773 8744,6768 8760,6766 8778,6766 8795,6766 8812,6769 8826,6774 8841,6779 8853,6786 8863,6795 8873,6804 8881,6816 8887,6829 8892,6842 8895,6857 8895,6873 L 8895,6923 8721,6923 8721,6940 C 8721,6958 8726,6973 8736,6983 8746,6993 8760,6998 8778,6998 8791,6998 8803,6996 8812,6992 8821,6988 8828,6982 8832,6974 L 8893,6974 C 8890,6985 8885,6995 8878,7005 8871,7014 8863,7022 8853,7028 8842,7034 8831,7039 8818,7043 8806,7046 8792,7048 8778,7048 Z M 8835,6881 L 8835,6873 C 8835,6855 8830,6841 8820,6831 8810,6821 8796,6815 8778,6815 8760,6815 8746,6821 8736,6831 8726,6841 8721,6855 8721,6873 L 8721,6881 8835,6881 Z"/>
        </g>
       </g>
       <g class="com.sun.star.drawing.ClosedBezierShape">
        <g id="id21">
         <rect class="BoundingBox" stroke="none" fill="none" x="8950" y="6766" width="251" height="279"/>
         <path fill="rgb(0,0,0)" stroke="none" d="M 8951,6771 L 8998,6771 8998,6811 9002,6811 C 9003,6797 9008,6786 9016,6778 9024,6770 9035,6766 9048,6766 9061,6766 9072,6770 9080,6778 9089,6786 9095,6797 9098,6811 L 9100,6811 C 9101,6797 9106,6786 9114,6778 9122,6770 9133,6766 9146,6766 9163,6766 9176,6772 9185,6785 9195,6797 9199,6814 9199,6835 L 9199,7043 9147,7043 9147,6840 C 9147,6820 9139,6810 9124,6810 9108,6810 9101,6820 9101,6841 L 9101,7043 9049,7043 9049,6840 C 9049,6823 9044,6813 9033,6811 9029,6810 9027,6810 9025,6810 9024,6810 9021,6810 9018,6811 9008,6813 9003,6824 9003,6841 L 9003,7043 8951,7043 8951,6771 Z"/>
        </g>
       </g>
       <g class="com.sun.star.drawing.ClosedBezierShape">
        <g id="id22">
         <rect class="BoundingBox" stroke="none" fill="none" x="9252" y="6766" width="238" height="283"/>
         <path fill="rgb(0,0,0)" stroke="none" d="M 9371,7048 C 9353,7048 9337,7045 9322,7040 9307,7035 9295,7028 9285,7019 9275,7010 9267,6998 9261,6985 9255,6972 9253,6957 9253,6941 L 9253,6872 C 9253,6856 9255,6842 9261,6828 9267,6815 9275,6804 9285,6795 9295,6785 9307,6778 9322,6773 9337,6768 9353,6766 9371,6766 9388,6766 9405,6769 9419,6774 9434,6779 9446,6786 9456,6795 9466,6804 9474,6816 9480,6829 9485,6842 9488,6857 9488,6873 L 9488,6923 9314,6923 9314,6940 C 9314,6958 9319,6973 9329,6983 9339,6993 9353,6998 9371,6998 9384,6998 9396,6996 9405,6992 9414,6988 9421,6982 9425,6974 L 9486,6974 C 9483,6985 9478,6995 9471,7005 9464,7014 9456,7022 9446,7028 9435,7034 9424,7039 9411,7043 9399,7046 9385,7048 9371,7048 Z M 9428,6881 L 9428,6873 C 9428,6855 9423,6841 9413,6831 9403,6821 9389,6815 9371,6815 9353,6815 9339,6821 9329,6831 9319,6841 9314,6855 9314,6873 L 9314,6881 9428,6881 Z"/>
        </g>
       </g>
       <g class="com.sun.star.drawing.ClosedBezierShape">
        <g id="id23">
         <rect class="BoundingBox" stroke="none" fill="none" x="9554" y="6766" width="226" height="279"/>
         <path fill="rgb(0,0,0)" stroke="none" d="M 9554,7043 L 9554,6771 9613,6771 9613,6818 9617,6818 C 9620,6801 9628,6789 9641,6780 9653,6771 9669,6766 9689,6766 9716,6766 9738,6775 9754,6793 9770,6811 9778,6835 9778,6865 L 9778,7043 9717,7043 9717,6872 C 9717,6856 9712,6843 9703,6834 9694,6824 9682,6819 9667,6819 9651,6819 9638,6824 9629,6834 9620,6844 9616,6857 9616,6874 L 9616,7043 9554,7043 Z"/>
        </g>
       </g>
       <g class="com.sun.star.drawing.ClosedBezierShape">
        <g id="id24">
         <rect class="BoundingBox" stroke="none" fill="none" x="9837" y="6686" width="242" height="358"/>
         <path fill="rgb(0,0,0)" stroke="none" d="M 9838,6771 L 9913,6771 9913,6687 9975,6687 9975,6771 10078,6771 10078,6827 9975,6827 9975,6959 C 9975,6967 9977,6974 9982,6979 9987,6985 9994,6987 10004,6987 L 10073,6987 10073,7043 9999,7043 C 9973,7043 9952,7035 9936,7020 9921,7005 9913,6985 9913,6959 L 9913,6827 9838,6827 9838,6771 Z"/>
        </g>
       </g>
      </g>
      <g class="Group">
       <g class="com.sun.star.drawing.ClosedBezierShape">
        <g id="id25">
         <rect class="BoundingBox" stroke="none" fill="none" x="4649" y="3842" width="3176" height="954"/>
         <path fill="rgb(255,241,118)" stroke="none" d="M 4649,4795 C 4649,4478 4649,4160 4649,3843 5707,3843 6766,3843 7824,3843 7824,4160 7824,4478 7824,4795 6766,4795 5707,4795 4649,4795 Z"/>
        </g>
       </g>
       <g class="com.sun.star.drawing.ClosedBezierShape">
        <g id="id26">
         <rect class="BoundingBox" stroke="none" fill="none" x="4943" y="4147" width="216" height="357"/>
         <path fill="rgb(0,0,0)" stroke="none" d="M 4944,4503 C 4944,4485 4944,4467 4944,4449 4969,4449 4994,4449 5020,4449 5020,4366 5020,4284 5020,4201 4994,4201 4969,4201 4944,4201 4944,4183 4944,4165 4944,4147 5015,4147 5086,4147 5158,4147 5158,4165 5158,4183 5158,4201 5133,4201 5107,4201 5082,4201 5082,4284 5082,4366 5082,4449 5107,4449 5133,4449 5158,4449 5158,4467 5158,4485 5158,4503 5086,4503 5015,4503 4944,4503 Z"/>
        </g>
       </g>
       <g class="com.sun.star.drawing.ClosedBezierShape">
        <g id="id27">
         <rect class="BoundingBox" stroke="none" fill="none" x="5234" y="4226" width="226" height="278"/>
         <path fill="rgb(0,0,0)" stroke="none" d="M 5234,4503 L 5234,4231 5293,4231 5293,4278 5297,4278 C 5300,4261 5308,4249 5321,4240 5333,4231 5349,4226 5369,4226 5396,4226 5418,4235 5434,4253 5450,4271 5458,4295 5458,4325 L 5458,4503 5397,4503 5397,4332 C 5397,4316 5392,4303 5383,4294 5374,4284 5362,4279 5347,4279 5331,4279 5318,4284 5309,4294 5300,4304 5296,4317 5296,4334 L 5296,4503 5234,4503 Z"/>
        </g>
       </g>
       <g class="com.sun.star.drawing.ClosedBezierShape">
        <g id="id28">
         <rect class="BoundingBox" stroke="none" fill="none" x="5529" y="4226" width="238" height="283"/>
         <path fill="rgb(0,0,0)" stroke="none" d="M 5647,4508 C 5629,4508 5613,4506 5598,4501 5584,4496 5571,4489 5561,4479 5551,4470 5543,4459 5537,4446 5532,4433 5529,4418 5529,4402 L 5529,4332 C 5529,4316 5532,4302 5537,4289 5543,4276 5551,4265 5561,4255 5571,4246 5584,4239 5598,4234 5613,4229 5629,4226 5647,4226 5662,4226 5677,4228 5691,4233 5704,4237 5716,4244 5726,4252 5736,4260 5745,4271 5752,4282 5758,4294 5763,4307 5765,4322 L 5703,4322 C 5701,4310 5695,4299 5685,4292 5675,4284 5662,4280 5647,4280 5629,4280 5616,4285 5606,4294 5596,4303 5591,4316 5591,4332 L 5591,4402 C 5591,4418 5596,4431 5605,4440 5615,4449 5629,4454 5647,4454 5661,4454 5674,4450 5684,4442 5695,4435 5701,4425 5703,4412 L 5765,4412 C 5763,4427 5758,4440 5752,4452 5745,4464 5736,4474 5726,4482 5716,4490 5704,4497 5690,4501 5677,4506 5662,4508 5647,4508 Z"/>
        </g>
       </g>
       <g class="com.sun.star.drawing.ClosedBezierShape">
        <g id="id29">
         <rect class="BoundingBox" stroke="none" fill="none" x="5838" y="4226" width="233" height="278"/>
         <path fill="rgb(0,0,0)" stroke="none" d="M 5838,4231 L 5897,4231 5897,4278 5901,4278 C 5904,4261 5913,4249 5926,4240 5939,4231 5956,4226 5976,4226 6006,4226 6028,4235 6045,4253 6061,4271 6070,4296 6070,4328 L 6070,4348 6005,4348 6005,4334 C 6005,4316 6000,4303 5991,4293 5981,4283 5968,4278 5951,4278 5935,4278 5923,4283 5914,4293 5905,4303 5900,4317 5900,4334 L 5900,4503 5838,4503 5838,4231 Z"/>
        </g>
       </g>
       <g class="com.sun.star.drawing.ClosedBezierShape">
        <g id="id30">
         <rect class="BoundingBox" stroke="none" fill="none" x="6117" y="4226" width="238" height="283"/>
         <path fill="rgb(0,0,0)" stroke="none" d="M 6236,4508 C 6218,4508 6202,4505 6187,4500 6172,4495 6160,4488 6150,4479 6140,4470 6132,4458 6126,4445 6120,4432 6118,4417 6118,4401 L 6118,4332 C 6118,4316 6120,4302 6126,4288 6132,4275 6140,4264 6150,4255 6160,4245 6172,4238 6187,4233 6202,4228 6218,4226 6236,4226 6253,4226 6270,4229 6284,4234 6299,4239 6311,4246 6321,4255 6331,4264 6339,4276 6345,4289 6350,4302 6353,4317 6353,4333 L 6353,4383 6179,4383 6179,4400 C 6179,4418 6184,4433 6194,4443 6204,4453 6218,4458 6236,4458 6249,4458 6261,4456 6270,4452 6279,4448 6286,4442 6290,4434 L 6351,4434 C 6348,4445 6343,4455 6336,4465 6329,4474 6321,4482 6311,4488 6300,4494 6289,4499 6276,4503 6264,4506 6250,4508 6236,4508 Z M 6293,4341 L 6293,4333 C 6293,4315 6288,4301 6278,4291 6268,4281 6254,4275 6236,4275 6218,4275 6204,4281 6194,4291 6184,4301 6179,4315 6179,4333 L 6179,4341 6293,4341 Z"/>
        </g>
       </g>
       <g class="com.sun.star.drawing.ClosedBezierShape">
        <g id="id31">
         <rect class="BoundingBox" stroke="none" fill="none" x="6408" y="4226" width="251" height="278"/>
         <path fill="rgb(0,0,0)" stroke="none" d="M 6409,4231 L 6456,4231 6456,4271 6460,4271 C 6461,4257 6466,4246 6474,4238 6482,4230 6493,4226 6506,4226 6519,4226 6530,4230 6538,4238 6547,4246 6553,4257 6556,4271 L 6558,4271 C 6559,4257 6564,4246 6572,4238 6580,4230 6591,4226 6604,4226 6621,4226 6634,4232 6643,4245 6653,4257 6657,4274 6657,4295 L 6657,4503 6605,4503 6605,4300 C 6605,4280 6597,4270 6582,4270 6566,4270 6559,4280 6559,4301 L 6559,4503 6507,4503 6507,4300 C 6507,4283 6502,4273 6491,4271 6487,4270 6485,4270 6483,4270 6482,4270 6479,4270 6476,4271 6466,4273 6461,4284 6461,4301 L 6461,4503 6409,4503 6409,4231 Z"/>
        </g>
       </g>
       <g class="com.sun.star.drawing.ClosedBezierShape">
        <g id="id32">
         <rect class="BoundingBox" stroke="none" fill="none" x="6710" y="4226" width="238" height="283"/>
         <path fill="rgb(0,0,0)" stroke="none" d="M 6829,4508 C 6811,4508 6795,4505 6780,4500 6765,4495 6753,4488 6743,4479 6733,4470 6725,4458 6719,4445 6713,4432 6711,4417 6711,4401 L 6711,4332 C 6711,4316 6713,4302 6719,4288 6725,4275 6733,4264 6743,4255 6753,4245 6765,4238 6780,4233 6795,4228 6811,4226 6829,4226 6846,4226 6863,4229 6877,4234 6892,4239 6904,4246 6914,4255 6924,4264 6932,4276 6938,4289 6943,4302 6946,4317 6946,4333 L 6946,4383 6772,4383 6772,4400 C 6772,4418 6777,4433 6787,4443 6797,4453 6811,4458 6829,4458 6842,4458 6854,4456 6863,4452 6872,4448 6879,4442 6883,4434 L 6944,4434 C 6941,4445 6936,4455 6929,4465 6922,4474 6914,4482 6904,4488 6893,4494 6882,4499 6869,4503 6857,4506 6843,4508 6829,4508 Z M 6886,4341 L 6886,4333 C 6886,4315 6881,4301 6871,4291 6861,4281 6847,4275 6829,4275 6811,4275 6797,4281 6787,4291 6777,4301 6772,4315 6772,4333 L 6772,4341 6886,4341 Z"/>
        </g>
       </g>
       <g class="com.sun.star.drawing.ClosedBezierShape">
        <g id="id33">
         <rect class="BoundingBox" stroke="none" fill="none" x="7012" y="4226" width="226" height="278"/>
         <path fill="rgb(0,0,0)" stroke="none" d="M 7012,4503 L 7012,4231 7071,4231 7071,4278 7075,4278 C 7078,4261 7086,4249 7099,4240 7111,4231 7127,4226 7147,4226 7174,4226 7196,4235 7212,4253 7228,4271 7236,4295 7236,4325 L 7236,4503 7175,4503 7175,4332 C 7175,4316 7170,4303 7161,4294 7152,4284 7140,4279 7125,4279 7109,4279 7096,4284 7087,4294 7078,4304 7074,4317 7074,4334 L 7074,4503 7012,4503 Z"/>
        </g>
       </g>
       <g class="com.sun.star.drawing.ClosedBezierShape">
        <g id="id34">
         <rect class="BoundingBox" stroke="none" fill="none" x="7295" y="4147" width="242" height="357"/>
         <path fill="rgb(0,0,0)" stroke="none" d="M 7296,4231 L 7371,4231 7371,4147 7433,4147 7433,4231 7536,4231 7536,4287 7433,4287 7433,4419 C 7433,4427 7435,4434 7440,4439 7445,4445 7452,4447 7462,4447 L 7531,4447 7531,4503 7457,4503 C 7431,4503 7410,4495 7394,4480 7379,4465 7371,4445 7371,4419 L 7371,4287 7296,4287 7296,4231 Z"/>
        </g>
       </g>
      </g>
      <g class="com.sun.star.drawing.OpenBezierShape">
       <g id="id35">
        <rect class="BoundingBox" stroke="none" fill="none" x="4510" y="4795" width="281" height="3059"/>
        <path fill="none" stroke="rgb(255,255,255)" stroke-width="53" stroke-linejoin="round" stroke-linecap="round" d="M 4650,5166 L 4650,7826"/>
        <path fill="rgb(255,255,255)" stroke="none" d="M 4760,5163 L 4789,5185 4650,4795 4510,5185 4539,5164 4572,5147 4609,5136 4648,5131 4688,5135 4726,5146 4760,5163 Z"/>
       </g>
      </g>
      <g class="Group">
       <g class="com.sun.star.drawing.ClosedBezierShape">
        <g id="id36">
         <rect class="BoundingBox" stroke="none" fill="none" x="4428" y="8906" width="403" height="275"/>
         <path fill="rgb(255,255,255)" stroke="none" d="M 4428,9019 C 4428,8995 4431,8976 4437,8960 4443,8944 4453,8928 4466,8911 L 4501,8940 C 4482,8964 4472,8989 4472,9015 4472,9048 4484,9074 4509,9093 4534,9113 4574,9123 4629,9123 4682,9123 4721,9113 4747,9094 4772,9074 4785,9048 4785,9016 4785,8999 4782,8985 4776,8973 4771,8961 4763,8948 4752,8934 L 4787,8906 C 4799,8918 4809,8933 4818,8952 4826,8971 4830,8993 4830,9018 4830,9049 4822,9077 4807,9102 4791,9127 4768,9146 4738,9159 4708,9173 4671,9180 4629,9180 4586,9180 4550,9173 4520,9159 4489,9144 4467,9125 4451,9100 4436,9076 4428,9049 4428,9019 Z"/>
        </g>
       </g>
       <g class="com.sun.star.drawing.ClosedBezierShape">
        <g id="id37">
         <rect class="BoundingBox" stroke="none" fill="none" x="4400" y="8744" width="431" height="105"/>
         <path fill="rgb(255,255,255)" stroke="none" d="M 4830,8785 C 4830,8804 4824,8820 4813,8831 4801,8842 4785,8847 4765,8847 L 4406,8847 4400,8795 4763,8795 C 4772,8795 4778,8794 4782,8791 4785,8788 4787,8784 4787,8777 4787,8770 4786,8763 4784,8758 L 4820,8744 C 4827,8756 4830,8770 4830,8785 Z"/>
        </g>
       </g>
       <g class="com.sun.star.drawing.ClosedBezierShape">
        <g id="id38">
         <rect class="BoundingBox" stroke="none" fill="none" x="4383" y="8617" width="441" height="75"/>
         <path fill="rgb(255,255,255)" stroke="none" d="M 4823,8628 L 4823,8679 4526,8679 4526,8628 4823,8628 Z M 4383,8654 C 4383,8643 4386,8634 4393,8628 4400,8621 4408,8617 4419,8617 4429,8617 4437,8621 4444,8628 4450,8634 4454,8643 4454,8654 4454,8665 4450,8673 4444,8680 4437,8687 4429,8690 4419,8690 4408,8690 4400,8687 4393,8680 4386,8673 4383,8665 4383,8654 Z"/>
        </g>
       </g>
       <g class="com.sun.star.drawing.ClosedBezierShape">
        <g id="id39">
         <rect class="BoundingBox" stroke="none" fill="none" x="4519" y="8319" width="312" height="222"/>
         <path fill="rgb(255,255,255)" stroke="none" d="M 4519,8410 C 4519,8392 4522,8376 4527,8362 4532,8347 4540,8333 4551,8319 L 4584,8344 C 4576,8355 4571,8365 4567,8375 4564,8385 4562,8396 4562,8408 4562,8432 4572,8451 4591,8464 4610,8477 4638,8484 4676,8484 4714,8484 4741,8477 4759,8464 4777,8451 4786,8432 4786,8408 4786,8396 4784,8386 4781,8376 4777,8366 4771,8355 4763,8343 L 4797,8319 C 4819,8346 4830,8377 4830,8410 4830,8450 4816,8482 4789,8505 4762,8528 4725,8540 4677,8540 4646,8540 4618,8535 4594,8524 4570,8514 4552,8499 4539,8479 4526,8460 4519,8437 4519,8410 Z"/>
        </g>
       </g>
       <g class="com.sun.star.drawing.ClosedBezierShape">
        <g id="id40">
         <rect class="BoundingBox" stroke="none" fill="none" x="4399" y="8012" width="425" height="237"/>
         <path fill="rgb(255,255,255)" stroke="none" d="M 4823,8196 C 4823,8213 4823,8230 4823,8247 4684,8247 4545,8247 4406,8247 4404,8230 4402,8213 4400,8196 4541,8196 4682,8196 4823,8196 Z M 4657,8134 C 4712,8093 4768,8053 4823,8012 4823,8033 4823,8054 4823,8074 4769,8114 4715,8153 4661,8192 4616,8156 4571,8119 4526,8083 4526,8063 4526,8044 4526,8025 4570,8061 4613,8098 4657,8134 Z"/>
        </g>
       </g>
      </g>
      <g class="com.sun.star.drawing.OpenBezierShape">
       <g id="id41">
        <rect class="BoundingBox" stroke="none" fill="none" x="5780" y="6065" width="281" height="1789"/>
        <path fill="none" stroke="rgb(255,255,255)" stroke-width="53" stroke-linejoin="round" stroke-linecap="round" d="M 5920,6436 L 5920,7826"/>
        <path fill="rgb(255,255,255)" stroke="none" d="M 6030,6433 L 6060,6455 5920,6065 5781,6455 5809,6434 5842,6417 5879,6406 5918,6401 5958,6405 5996,6416 6030,6433 Z"/>
       </g>
      </g>
      <g class="Group">
       <g class="com.sun.star.drawing.ClosedBezierShape">
        <g id="id42">
         <rect class="BoundingBox" stroke="none" fill="none" x="5698" y="8906" width="403" height="275"/>
         <path fill="rgb(255,255,255)" stroke="none" d="M 5698,9019 C 5698,8995 5701,8976 5707,8960 5713,8944 5723,8928 5736,8911 L 5771,8940 C 5752,8964 5742,8989 5742,9015 5742,9048 5754,9074 5779,9093 5804,9113 5844,9123 5899,9123 5952,9123 5991,9113 6017,9094 6042,9074 6055,9048 6055,9016 6055,8999 6052,8985 6046,8973 6041,8961 6033,8948 6022,8934 L 6057,8906 C 6069,8918 6079,8933 6088,8952 6096,8971 6100,8993 6100,9018 6100,9049 6092,9077 6077,9102 6061,9127 6038,9146 6008,9159 5978,9173 5941,9180 5899,9180 5856,9180 5820,9173 5790,9159 5759,9144 5737,9125 5721,9100 5706,9076 5698,9049 5698,9019 Z"/>
        </g>
       </g>
       <g class="com.sun.star.drawing.ClosedBezierShape">
        <g id="id43">
         <rect class="BoundingBox" stroke="none" fill="none" x="5670" y="8744" width="431" height="105"/>
         <path fill="rgb(255,255,255)" stroke="none" d="M 6100,8785 C 6100,8804 6094,8820 6083,8831 6071,8842 6055,8847 6035,8847 L 5676,8847 5670,8795 6033,8795 C 6042,8795 6048,8794 6051,8791 6055,8788 6057,8784 6057,8777 6057,8770 6056,8763 6054,8758 L 6090,8744 C 6097,8756 6100,8770 6100,8785 Z"/>
        </g>
       </g>
       <g class="com.sun.star.drawing.ClosedBezierShape">
        <g id="id44">
         <rect class="BoundingBox" stroke="none" fill="none" x="5653" y="8617" width="441" height="75"/>
         <path fill="rgb(255,255,255)" stroke="none" d="M 6093,8628 L 6093,8679 5796,8679 5796,8628 6093,8628 Z M 5653,8654 C 5653,8643 5656,8634 5663,8628 5670,8621 5678,8617 5689,8617 5699,8617 5707,8621 5714,8628 5720,8634 5724,8643 5724,8654 5724,8665 5720,8673 5714,8680 5707,8687 5699,8690 5689,8690 5678,8690 5670,8687 5663,8680 5656,8673 5653,8665 5653,8654 Z"/>
        </g>
       </g>
       <g class="com.sun.star.drawing.ClosedBezierShape">
        <g id="id45">
         <rect class="BoundingBox" stroke="none" fill="none" x="5789" y="8319" width="312" height="222"/>
         <path fill="rgb(255,255,255)" stroke="none" d="M 5789,8410 C 5789,8392 5792,8376 5797,8362 5802,8347 5810,8333 5821,8319 L 5854,8344 C 5846,8355 5841,8365 5837,8375 5834,8385 5832,8396 5832,8408 5832,8432 5842,8451 5861,8464 5880,8477 5908,8484 5946,8484 5984,8484 6011,8477 6029,8464 6047,8451 6056,8432 6056,8408 6056,8396 6054,8386 6051,8376 6047,8366 6041,8355 6033,8343 L 6067,8319 C 6089,8346 6100,8377 6100,8410 6100,8450 6086,8482 6059,8505 6032,8528 5995,8540 5947,8540 5916,8540 5888,8535 5864,8524 5840,8514 5822,8499 5809,8479 5796,8460 5789,8437 5789,8410 Z"/>
        </g>
       </g>
       <g class="com.sun.star.drawing.ClosedBezierShape">
        <g id="id46">
         <rect class="BoundingBox" stroke="none" fill="none" x="5670" y="8012" width="424" height="237"/>
         <path fill="rgb(255,255,255)" stroke="none" d="M 6093,8196 C 6093,8213 6093,8230 6093,8247 5954,8247 5815,8247 5676,8247 5674,8230 5672,8213 5670,8196 5811,8196 5952,8196 6093,8196 Z M 5927,8134 C 5982,8093 6038,8053 6093,8012 6093,8033 6093,8054 6093,8074 6039,8114 5985,8153 5931,8192 5886,8156 5841,8119 5796,8083 5796,8063 5796,8044 5796,8025 5840,8061 5883,8098 5927,8134 Z"/>
        </g>
       </g>
      </g>
      <g class="com.sun.star.drawing.OpenBezierShape">
       <g id="id47">
        <rect class="BoundingBox" stroke="none" fill="none" x="7050" y="7335" width="281" height="519"/>
        <path fill="none" stroke="rgb(255,255,255)" stroke-width="53" stroke-linejoin="round" stroke-linecap="round" d="M 7190,7706 L 7190,7826"/>
        <path fill="rgb(255,255,255)" stroke="none" d="M 7300,7703 L 7329,7725 7190,7335 7050,7725 7079,7704 7112,7687 7149,7676 7188,7671 7228,7675 7266,7686 7300,7703 Z"/>
       </g>
      </g>
      <g class="Group">
       <g class="com.sun.star.drawing.ClosedBezierShape">
        <g id="id48">
         <rect class="BoundingBox" stroke="none" fill="none" x="6968" y="8898" width="403" height="275"/>
         <path fill="rgb(255,255,255)" stroke="none" d="M 6968,9011 C 6968,8987 6971,8968 6977,8952 6983,8936 6993,8920 7006,8903 L 7041,8932 C 7022,8956 7012,8981 7012,9007 7012,9040 7024,9066 7049,9085 7074,9105 7114,9115 7169,9115 7222,9115 7261,9105 7287,9086 7312,9066 7325,9040 7325,9008 7325,8991 7322,8977 7316,8965 7311,8953 7303,8940 7292,8926 L 7327,8898 C 7339,8910 7349,8925 7358,8944 7366,8963 7370,8985 7370,9010 7370,9041 7362,9069 7347,9094 7331,9119 7308,9138 7278,9151 7248,9165 7211,9172 7169,9172 7126,9172 7090,9165 7060,9151 7029,9136 7007,9117 6991,9092 6976,9068 6968,9041 6968,9011 Z"/>
        </g>
       </g>
       <g class="com.sun.star.drawing.ClosedBezierShape">
        <g id="id49">
         <rect class="BoundingBox" stroke="none" fill="none" x="6940" y="8736" width="431" height="105"/>
         <path fill="rgb(255,255,255)" stroke="none" d="M 7370,8777 C 7370,8796 7364,8812 7353,8823 7341,8834 7325,8839 7305,8839 L 6946,8839 6940,8787 7303,8787 C 7312,8787 7318,8786 7322,8783 7325,8780 7327,8775 7327,8769 7327,8762 7326,8755 7324,8750 L 7360,8736 C 7367,8748 7370,8762 7370,8777 Z"/>
        </g>
       </g>
       <g class="com.sun.star.drawing.ClosedBezierShape">
        <g id="id50">
         <rect class="BoundingBox" stroke="none" fill="none" x="6922" y="8609" width="442" height="75"/>
         <path fill="rgb(255,255,255)" stroke="none" d="M 7363,8620 L 7363,8671 7066,8671 7066,8620 7363,8620 Z M 6923,8646 C 6923,8635 6926,8626 6933,8620 6940,8613 6948,8609 6959,8609 6969,8609 6977,8613 6984,8620 6990,8626 6993,8635 6993,8646 6993,8657 6990,8665 6984,8672 6977,8679 6969,8682 6959,8682 6948,8682 6940,8679 6933,8672 6926,8665 6923,8657 6923,8646 Z"/>
        </g>
       </g>
       <g class="com.sun.star.drawing.ClosedBezierShape">
        <g id="id51">
         <rect class="BoundingBox" stroke="none" fill="none" x="7059" y="8311" width="312" height="222"/>
         <path fill="rgb(255,255,255)" stroke="none" d="M 7059,8402 C 7059,8384 7062,8368 7067,8354 7072,8339 7080,8325 7091,8311 L 7124,8336 C 7116,8347 7111,8357 7107,8367 7104,8377 7102,8388 7102,8400 7102,8424 7112,8443 7131,8456 7150,8469 7178,8476 7216,8476 7254,8476 7281,8469 7299,8456 7317,8443 7326,8424 7326,8400 7326,8388 7324,8378 7321,8368 7317,8358 7311,8347 7303,8335 L 7337,8311 C 7359,8338 7370,8369 7370,8402 7370,8442 7356,8474 7329,8497 7302,8520 7265,8532 7217,8532 7186,8532 7158,8527 7134,8516 7110,8506 7092,8491 7079,8471 7066,8452 7059,8429 7059,8402 Z"/>
        </g>
       </g>
       <g class="com.sun.star.drawing.ClosedBezierShape">
        <g id="id52">
         <rect class="BoundingBox" stroke="none" fill="none" x="6940" y="8004" width="424" height="237"/>
         <path fill="rgb(255,255,255)" stroke="none" d="M 7363,8188 C 7363,8205 7363,8222 7363,8239 7224,8239 7085,8239 6946,8239 6944,8222 6942,8205 6940,8188 7081,8188 7222,8188 7363,8188 Z M 7197,8126 C 7252,8085 7308,8045 7363,8004 7363,8025 7363,8046 7363,8066 7309,8106 7255,8145 7201,8184 7156,8148 7111,8111 7066,8075 7066,8055 7066,8036 7066,8017 7110,8053 7153,8090 7197,8126 Z"/>
        </g>
       </g>
      </g>
      <g class="com.sun.star.drawing.OpenBezierShape">
       <g id="id53">
        <rect class="BoundingBox" stroke="none" fill="none" x="7685" y="3064" width="281" height="822"/>
        <path fill="none" stroke="rgb(255,255,255)" stroke-width="53" stroke-linejoin="round" stroke-linecap="round" d="M 7825,3435 L 7825,3858"/>
        <path fill="rgb(255,255,255)" stroke="none" d="M 7935,3432 L 7964,3454 7825,3064 7685,3454 7714,3433 7747,3416 7784,3405 7823,3400 7863,3404 7901,3415 7935,3432 Z"/>
       </g>
      </g>
      <g class="Group">
       <g class="com.sun.star.drawing.ClosedBezierShape">
        <g id="id54">
         <rect class="BoundingBox" stroke="none" fill="none" x="2268" y="2395" width="275" height="403"/>
         <path fill="rgb(255,255,255)" stroke="none" d="M 2429,2395 C 2453,2395 2472,2398 2488,2404 2504,2410 2521,2420 2537,2433 L 2508,2468 C 2484,2449 2459,2439 2433,2439 2400,2439 2374,2451 2355,2476 2335,2501 2325,2541 2325,2596 2325,2649 2335,2688 2354,2714 2374,2739 2400,2752 2432,2752 2449,2752 2463,2749 2475,2743 2487,2738 2500,2730 2514,2719 L 2542,2754 C 2530,2766 2515,2776 2496,2785 2477,2793 2455,2797 2430,2797 2399,2797 2371,2789 2346,2774 2321,2758 2302,2735 2289,2705 2275,2675 2268,2638 2268,2596 2268,2553 2275,2517 2289,2487 2304,2456 2323,2434 2348,2418 2372,2403 2399,2395 2429,2395 Z"/>
        </g>
       </g>
       <g class="com.sun.star.drawing.ClosedBezierShape">
        <g id="id55">
         <rect class="BoundingBox" stroke="none" fill="none" x="2578" y="2486" width="267" height="312"/>
         <path fill="rgb(255,255,255)" stroke="none" d="M 2711,2486 C 2753,2486 2785,2500 2809,2528 2832,2556 2843,2594 2843,2641 2843,2672 2838,2699 2827,2723 2817,2746 2802,2765 2782,2778 2762,2790 2738,2797 2711,2797 2669,2797 2636,2783 2613,2755 2590,2727 2578,2690 2578,2642 2578,2611 2583,2584 2594,2560 2604,2537 2620,2519 2640,2506 2660,2493 2683,2486 2711,2486 Z M 2711,2528 C 2660,2528 2634,2566 2634,2642 2634,2717 2660,2755 2711,2755 2762,2755 2787,2717 2787,2641 2787,2566 2762,2528 2711,2528 Z"/>
        </g>
       </g>
       <g class="com.sun.star.drawing.ClosedBezierShape">
        <g id="id56">
         <rect class="BoundingBox" stroke="none" fill="none" x="2926" y="2493" width="226" height="305"/>
         <path fill="rgb(255,255,255)" stroke="none" d="M 3151,2790 L 3106,2790 3102,2744 C 3091,2762 3078,2776 3063,2784 3049,2793 3031,2797 3010,2797 2984,2797 2963,2789 2949,2773 2934,2758 2927,2735 2927,2706 L 2927,2493 2979,2493 2979,2701 C 2979,2721 2982,2735 2989,2744 2997,2752 3008,2756 3024,2756 3053,2756 3078,2739 3099,2705 L 3099,2493 3151,2493 3151,2790 Z"/>
        </g>
       </g>
       <g class="com.sun.star.drawing.ClosedBezierShape">
        <g id="id57">
         <rect class="BoundingBox" stroke="none" fill="none" x="3255" y="2486" width="228" height="305"/>
         <path fill="rgb(255,255,255)" stroke="none" d="M 3395,2486 C 3423,2486 3444,2494 3459,2510 3474,2526 3482,2549 3482,2577 L 3482,2790 3430,2790 3430,2584 C 3430,2563 3426,2548 3418,2540 3410,2531 3398,2527 3383,2527 3367,2527 3353,2531 3341,2540 3329,2549 3318,2562 3307,2579 L 3307,2790 3256,2790 3256,2493 3300,2493 3305,2537 C 3315,2521 3328,2509 3344,2500 3359,2491 3377,2486 3395,2486 Z"/>
        </g>
       </g>
       <g class="com.sun.star.drawing.ClosedBezierShape">
        <g id="id58">
         <rect class="BoundingBox" stroke="none" fill="none" x="3537" y="2419" width="200" height="379"/>
         <path fill="rgb(255,255,255)" stroke="none" d="M 3736,2777 C 3716,2790 3694,2797 3669,2797 3644,2797 3624,2790 3610,2775 3596,2761 3589,2740 3589,2712 L 3589,2533 3537,2533 3537,2493 3589,2493 3589,2426 3641,2420 3641,2493 3711,2493 3706,2533 3641,2533 3641,2710 C 3641,2726 3644,2737 3649,2744 3654,2751 3664,2754 3676,2754 3689,2754 3702,2750 3716,2741 L 3736,2777 Z"/>
        </g>
       </g>
       <g class="com.sun.star.drawing.ClosedBezierShape">
        <g id="id59">
         <rect class="BoundingBox" stroke="none" fill="none" x="3763" y="2486" width="248" height="313"/>
         <path fill="rgb(255,255,255)" stroke="none" d="M 4009,2633 C 4009,2641 4009,2650 4008,2659 L 3818,2659 C 3821,2692 3829,2716 3843,2732 3858,2747 3876,2755 3899,2755 3913,2755 3926,2753 3938,2749 3950,2744 3963,2738 3976,2729 L 3998,2760 C 3967,2785 3932,2797 3895,2797 3853,2797 3821,2783 3798,2756 3775,2729 3763,2692 3763,2645 3763,2614 3768,2586 3778,2562 3788,2539 3802,2520 3821,2506 3840,2493 3861,2486 3887,2486 3926,2486 3956,2499 3977,2525 3999,2551 4009,2587 4009,2633 Z M 3958,2618 C 3958,2588 3952,2566 3940,2550 3929,2535 3911,2527 3888,2527 3845,2527 3822,2558 3818,2621 L 3958,2621 3958,2618 Z"/>
        </g>
       </g>
       <g class="com.sun.star.drawing.ClosedBezierShape">
        <g id="id60">
         <rect class="BoundingBox" stroke="none" fill="none" x="4093" y="2486" width="161" height="305"/>
         <path fill="rgb(255,255,255)" stroke="none" d="M 4223,2486 C 4233,2486 4243,2487 4252,2489 L 4242,2540 C 4233,2538 4225,2537 4217,2537 4198,2537 4183,2544 4172,2557 4161,2571 4152,2592 4145,2620 L 4145,2790 4094,2790 4094,2493 4138,2493 4143,2553 C 4151,2531 4162,2514 4175,2503 4189,2492 4205,2486 4223,2486 Z"/>
        </g>
       </g>
       <g class="com.sun.star.drawing.ClosedBezierShape">
        <g id="id61">
         <rect class="BoundingBox" stroke="none" fill="none" x="4284" y="2511" width="80" height="287"/>
         <path fill="rgb(255,255,255)" stroke="none" d="M 4323,2719 C 4334,2719 4344,2722 4351,2730 4359,2737 4363,2747 4363,2758 4363,2768 4359,2778 4351,2785 4344,2793 4334,2797 4323,2797 4312,2797 4303,2793 4295,2785 4288,2778 4284,2768 4284,2758 4284,2747 4288,2737 4295,2730 4303,2722 4312,2719 4323,2719 Z M 4323,2511 C 4334,2511 4344,2515 4351,2522 4359,2530 4363,2539 4363,2550 4363,2561 4359,2570 4351,2578 4344,2586 4334,2589 4323,2589 4312,2589 4303,2586 4295,2578 4288,2570 4284,2561 4284,2550 4284,2539 4288,2530 4295,2522 4303,2515 4312,2511 4323,2511 Z"/>
        </g>
       </g>
       <g class="com.sun.star.drawing.ClosedBezierShape">
        <g id="id62">
         <rect class="BoundingBox" stroke="none" fill="none" x="4719" y="2407" width="254" height="391"/>
         <path fill="rgb(255,255,255)" stroke="none" d="M 4845,2407 C 4887,2407 4919,2424 4940,2457 4961,2490 4972,2539 4972,2602 4972,2665 4961,2713 4940,2747 4919,2780 4887,2797 4845,2797 4804,2797 4772,2780 4751,2747 4730,2713 4719,2665 4719,2602 4719,2539 4730,2490 4751,2457 4772,2424 4804,2407 4845,2407 Z M 4845,2448 C 4821,2448 4803,2460 4791,2484 4779,2508 4773,2548 4773,2602 4773,2656 4779,2695 4791,2719 4803,2744 4821,2756 4845,2756 4869,2756 4887,2744 4899,2719 4912,2695 4918,2656 4918,2602 4918,2548 4912,2509 4899,2485 4887,2460 4869,2448 4845,2448 Z"/>
        </g>
       </g>
      </g>
      <g class="com.sun.star.drawing.ClosedBezierShape">
       <g id="id63">
        <rect class="BoundingBox" stroke="none" fill="none" x="7721" y="2412" width="165" height="379"/>
        <path fill="rgb(255,255,255)" stroke="none" d="M 7884,2790 C 7867,2790 7850,2790 7832,2790 7832,2683 7832,2575 7832,2468 7803,2486 7774,2504 7744,2522 7737,2509 7729,2497 7722,2485 7761,2461 7800,2437 7838,2413 7854,2413 7869,2413 7884,2413 7884,2538 7884,2664 7884,2790 Z"/>
       </g>
      </g>
      <g class="com.sun.star.drawing.OpenBezierShape">
       <g id="id64">
        <rect class="BoundingBox" stroke="none" fill="none" x="8955" y="3064" width="281" height="2092"/>
        <path fill="none" stroke="rgb(255,255,255)" stroke-width="53" stroke-linejoin="round" stroke-linecap="round" d="M 9095,3435 L 9095,5128"/>
        <path fill="rgb(255,255,255)" stroke="none" d="M 9205,3432 L 9235,3454 9095,3064 8956,3454 8984,3433 9017,3416 9054,3405 9093,3400 9133,3404 9171,3415 9205,3432 Z"/>
       </g>
      </g>
      <g class="com.sun.star.drawing.OpenBezierShape">
       <g id="id65">
        <rect class="BoundingBox" stroke="none" fill="none" x="10225" y="3064" width="281" height="3362"/>
        <path fill="none" stroke="rgb(255,255,255)" stroke-width="53" stroke-linejoin="round" stroke-linecap="round" d="M 10365,3435 L 10365,6398"/>
        <path fill="rgb(255,255,255)" stroke="none" d="M 10475,3432 L 10504,3454 10365,3064 10225,3454 10254,3433 10287,3416 10324,3405 10363,3400 10403,3404 10441,3415 10475,3432 Z"/>
       </g>
      </g>
      <g class="com.sun.star.drawing.ClosedBezierShape">
       <g id="id66">
        <rect class="BoundingBox" stroke="none" fill="none" x="8970" y="2407" width="238" height="384"/>
        <path fill="rgb(255,255,255)" stroke="none" d="M 9085,2407 C 9107,2407 9127,2412 9144,2421 9161,2430 9174,2442 9184,2457 9193,2473 9198,2491 9198,2510 9198,2533 9193,2555 9182,2576 9172,2597 9156,2620 9135,2644 9113,2669 9081,2703 9037,2747 L 9207,2747 9201,2790 8978,2790 8978,2749 C 9028,2697 9064,2658 9085,2634 9106,2610 9121,2589 9130,2571 9139,2553 9144,2533 9144,2512 9144,2493 9138,2478 9127,2467 9116,2455 9101,2450 9082,2450 9066,2450 9053,2453 9041,2459 9030,2466 9017,2476 9005,2491 L 8970,2464 C 8986,2445 9003,2431 9021,2421 9040,2412 9061,2407 9085,2407 Z"/>
       </g>
      </g>
      <g class="com.sun.star.drawing.ClosedBezierShape">
       <g id="id67">
        <rect class="BoundingBox" stroke="none" fill="none" x="10233" y="2407" width="244" height="391"/>
        <path fill="rgb(255,255,255)" stroke="none" d="M 10352,2407 C 10375,2407 10395,2412 10412,2420 10429,2429 10441,2441 10450,2455 10459,2470 10464,2486 10464,2503 10464,2526 10457,2545 10444,2560 10430,2575 10412,2585 10390,2590 10415,2592 10436,2601 10452,2617 10468,2633 10475,2654 10475,2681 10475,2703 10470,2723 10460,2741 10449,2758 10434,2772 10415,2782 10395,2792 10372,2797 10347,2797 10324,2797 10303,2793 10284,2784 10264,2776 10248,2763 10233,2746 L 10264,2717 C 10277,2730 10290,2740 10303,2746 10316,2752 10330,2755 10345,2755 10369,2755 10387,2748 10401,2735 10415,2721 10421,2703 10421,2681 10421,2656 10415,2638 10402,2628 10389,2618 10371,2613 10346,2613 L 10318,2613 10324,2573 10343,2573 C 10363,2573 10379,2567 10392,2556 10405,2544 10412,2528 10412,2507 10412,2489 10406,2475 10395,2465 10383,2454 10368,2449 10349,2449 10334,2449 10321,2452 10309,2457 10297,2462 10284,2471 10271,2483 L 10244,2452 C 10276,2422 10312,2407 10352,2407 Z"/>
       </g>
      </g>
      <g class="com.sun.star.drawing.ClosedBezierShape">
       <g id="id68">
        <rect class="BoundingBox" stroke="none" fill="none" x="2095" y="2096" width="8602" height="982"/>
        <path fill="none" stroke="rgb(255,255,255)" stroke-width="28" stroke-linejoin="round" d="M 2109,3063 L 2109,2110 10682,2110 10682,3063 2109,3063 Z"/>
       </g>
      </g>
      <g class="Group">
       <g class="com.sun.star.drawing.ClosedBezierShape">
        <g id="id69">
         <rect class="BoundingBox" stroke="none" fill="none" x="18621" y="5127" width="3176" height="953"/>
         <path fill="rgb(229,115,115)" stroke="none" d="M 18621,6079 C 18621,5762 18621,5444 18621,5127 19679,5127 20738,5127 21796,5127 21796,5444 21796,5762 21796,6079 20738,6079 19679,6079 18621,6079 Z"/>
        </g>
       </g>
       <g class="com.sun.star.drawing.ClosedBezierShape">
        <g id="id70">
         <rect class="BoundingBox" stroke="none" fill="none" x="18915" y="5431" width="216" height="357"/>
         <path fill="rgb(0,0,0)" stroke="none" d="M 18916,5787 C 18916,5769 18916,5751 18916,5733 18941,5733 18966,5733 18992,5733 18992,5650 18992,5568 18992,5485 18966,5485 18941,5485 18916,5485 18916,5467 18916,5449 18916,5431 18987,5431 19058,5431 19130,5431 19130,5449 19130,5467 19130,5485 19105,5485 19079,5485 19054,5485 19054,5568 19054,5650 19054,5733 19079,5733 19105,5733 19130,5733 19130,5751 19130,5769 19130,5787 19058,5787 18987,5787 18916,5787 Z"/>
        </g>
       </g>
       <g class="com.sun.star.drawing.ClosedBezierShape">
        <g id="id71">
         <rect class="BoundingBox" stroke="none" fill="none" x="19206" y="5510" width="226" height="279"/>
         <path fill="rgb(0,0,0)" stroke="none" d="M 19206,5787 L 19206,5515 19265,5515 19265,5562 19269,5562 C 19272,5545 19280,5533 19293,5524 19305,5515 19321,5510 19341,5510 19368,5510 19390,5519 19406,5537 19422,5555 19430,5579 19430,5609 L 19430,5787 19369,5787 19369,5616 C 19369,5600 19364,5587 19355,5578 19346,5568 19334,5563 19319,5563 19303,5563 19290,5568 19281,5578 19272,5588 19268,5601 19268,5618 L 19268,5787 19206,5787 Z"/>
        </g>
       </g>
       <g class="com.sun.star.drawing.ClosedBezierShape">
        <g id="id72">
         <rect class="BoundingBox" stroke="none" fill="none" x="19501" y="5510" width="238" height="283"/>
         <path fill="rgb(0,0,0)" stroke="none" d="M 19619,5792 C 19601,5792 19585,5790 19570,5785 19556,5780 19543,5773 19533,5763 19523,5754 19515,5743 19509,5730 19504,5717 19501,5702 19501,5686 L 19501,5616 C 19501,5600 19504,5586 19509,5573 19515,5560 19523,5549 19533,5539 19543,5530 19556,5523 19570,5518 19585,5513 19601,5510 19619,5510 19634,5510 19649,5512 19663,5517 19676,5521 19688,5528 19698,5536 19708,5544 19717,5555 19724,5566 19730,5578 19735,5591 19737,5606 L 19675,5606 C 19673,5594 19667,5583 19657,5576 19647,5568 19634,5564 19619,5564 19601,5564 19588,5569 19578,5578 19568,5587 19563,5600 19563,5616 L 19563,5686 C 19563,5702 19568,5715 19577,5724 19587,5733 19601,5738 19619,5738 19633,5738 19646,5734 19656,5726 19667,5719 19673,5709 19675,5696 L 19737,5696 C 19735,5711 19730,5724 19724,5736 19717,5748 19708,5758 19698,5766 19688,5774 19676,5781 19662,5785 19649,5790 19634,5792 19619,5792 Z"/>
        </g>
       </g>
       <g class="com.sun.star.drawing.ClosedBezierShape">
        <g id="id73">
         <rect class="BoundingBox" stroke="none" fill="none" x="19810" y="5510" width="233" height="279"/>
         <path fill="rgb(0,0,0)" stroke="none" d="M 19810,5515 L 19869,5515 19869,5562 19873,5562 C 19876,5545 19885,5533 19898,5524 19911,5515 19928,5510 19948,5510 19978,5510 20000,5519 20017,5537 20033,5555 20042,5580 20042,5612 L 20042,5632 19977,5632 19977,5618 C 19977,5600 19972,5587 19963,5577 19953,5567 19940,5562 19923,5562 19907,5562 19895,5567 19886,5577 19877,5587 19872,5601 19872,5618 L 19872,5787 19810,5787 19810,5515 Z"/>
        </g>
       </g>
       <g class="com.sun.star.drawing.ClosedBezierShape">
        <g id="id74">
         <rect class="BoundingBox" stroke="none" fill="none" x="20089" y="5510" width="238" height="283"/>
         <path fill="rgb(0,0,0)" stroke="none" d="M 20208,5792 C 20190,5792 20174,5789 20159,5784 20144,5779 20132,5772 20122,5763 20112,5754 20104,5742 20098,5729 20092,5716 20090,5701 20090,5685 L 20090,5616 C 20090,5600 20092,5586 20098,5572 20104,5559 20112,5548 20122,5539 20132,5529 20144,5522 20159,5517 20174,5512 20190,5510 20208,5510 20225,5510 20242,5513 20256,5518 20271,5523 20283,5530 20293,5539 20303,5548 20311,5560 20317,5573 20322,5586 20325,5601 20325,5617 L 20325,5667 20151,5667 20151,5684 C 20151,5702 20156,5717 20166,5727 20176,5737 20190,5742 20208,5742 20221,5742 20233,5740 20242,5736 20251,5732 20258,5726 20262,5718 L 20323,5718 C 20320,5729 20315,5739 20308,5749 20301,5758 20293,5766 20283,5772 20272,5778 20261,5783 20248,5787 20236,5790 20222,5792 20208,5792 Z M 20265,5625 L 20265,5617 C 20265,5599 20260,5585 20250,5575 20240,5565 20226,5559 20208,5559 20190,5559 20176,5565 20166,5575 20156,5585 20151,5599 20151,5617 L 20151,5625 20265,5625 Z"/>
        </g>
       </g>
       <g class="com.sun.star.drawing.ClosedBezierShape">
        <g id="id75">
         <rect class="BoundingBox" stroke="none" fill="none" x="20380" y="5510" width="251" height="279"/>
         <path fill="rgb(0,0,0)" stroke="none" d="M 20381,5515 L 20428,5515 20428,5555 20432,5555 C 20433,5541 20438,5530 20446,5522 20454,5514 20465,5510 20478,5510 20491,5510 20502,5514 20510,5522 20519,5530 20525,5541 20528,5555 L 20530,5555 C 20531,5541 20536,5530 20544,5522 20552,5514 20563,5510 20576,5510 20593,5510 20606,5516 20615,5529 20625,5541 20629,5558 20629,5579 L 20629,5787 20577,5787 20577,5584 C 20577,5564 20569,5554 20554,5554 20538,5554 20531,5564 20531,5585 L 20531,5787 20479,5787 20479,5584 C 20479,5567 20474,5557 20463,5555 20459,5554 20457,5554 20455,5554 20454,5554 20451,5554 20448,5555 20438,5557 20433,5568 20433,5585 L 20433,5787 20381,5787 20381,5515 Z"/>
        </g>
       </g>
       <g class="com.sun.star.drawing.ClosedBezierShape">
        <g id="id76">
         <rect class="BoundingBox" stroke="none" fill="none" x="20682" y="5510" width="238" height="283"/>
         <path fill="rgb(0,0,0)" stroke="none" d="M 20801,5792 C 20783,5792 20767,5789 20752,5784 20737,5779 20725,5772 20715,5763 20705,5754 20697,5742 20691,5729 20685,5716 20683,5701 20683,5685 L 20683,5616 C 20683,5600 20685,5586 20691,5572 20697,5559 20705,5548 20715,5539 20725,5529 20737,5522 20752,5517 20767,5512 20783,5510 20801,5510 20818,5510 20835,5513 20849,5518 20864,5523 20876,5530 20886,5539 20896,5548 20904,5560 20910,5573 20915,5586 20918,5601 20918,5617 L 20918,5667 20744,5667 20744,5684 C 20744,5702 20749,5717 20759,5727 20769,5737 20783,5742 20801,5742 20814,5742 20826,5740 20835,5736 20844,5732 20851,5726 20855,5718 L 20916,5718 C 20913,5729 20908,5739 20901,5749 20894,5758 20886,5766 20876,5772 20865,5778 20854,5783 20841,5787 20829,5790 20815,5792 20801,5792 Z M 20858,5625 L 20858,5617 C 20858,5599 20853,5585 20843,5575 20833,5565 20819,5559 20801,5559 20783,5559 20769,5565 20759,5575 20749,5585 20744,5599 20744,5617 L 20744,5625 20858,5625 Z"/>
        </g>
       </g>
       <g class="com.sun.star.drawing.ClosedBezierShape">
        <g id="id77">
         <rect class="BoundingBox" stroke="none" fill="none" x="20984" y="5510" width="226" height="279"/>
         <path fill="rgb(0,0,0)" stroke="none" d="M 20984,5787 L 20984,5515 21043,5515 21043,5562 21047,5562 C 21050,5545 21058,5533 21071,5524 21083,5515 21099,5510 21119,5510 21146,5510 21168,5519 21184,5537 21200,5555 21208,5579 21208,5609 L 21208,5787 21147,5787 21147,5616 C 21147,5600 21142,5587 21133,5578 21124,5568 21112,5563 21097,5563 21081,5563 21068,5568 21059,5578 21050,5588 21046,5601 21046,5618 L 21046,5787 20984,5787 Z"/>
        </g>
       </g>
       <g class="com.sun.star.drawing.ClosedBezierShape">
        <g id="id78">
         <rect class="BoundingBox" stroke="none" fill="none" x="21267" y="5431" width="242" height="357"/>
         <path fill="rgb(0,0,0)" stroke="none" d="M 21268,5515 L 21343,5515 21343,5431 21405,5431 21405,5515 21508,5515 21508,5571 21405,5571 21405,5703 C 21405,5711 21407,5718 21412,5723 21417,5729 21424,5731 21434,5731 L 21503,5731 21503,5787 21429,5787 C 21403,5787 21382,5779 21366,5764 21351,5749 21343,5729 21343,5703 L 21343,5571 21268,5571 21268,5515 Z"/>
        </g>
       </g>
      </g>
      <g class="Group">
       <g class="com.sun.star.drawing.ClosedBezierShape">
        <g id="id79">
         <rect class="BoundingBox" stroke="none" fill="none" x="21798" y="6397" width="3175" height="953"/>
         <path fill="rgb(255,183,77)" stroke="none" d="M 21798,7349 C 21798,7032 21798,6714 21798,6397 22856,6397 23914,6397 24972,6397 24972,6714 24972,7032 24972,7349 23914,7349 22856,7349 21798,7349 Z"/>
        </g>
       </g>
       <g class="com.sun.star.drawing.ClosedBezierShape">
        <g id="id80">
         <rect class="BoundingBox" stroke="none" fill="none" x="22092" y="6701" width="216" height="357"/>
         <path fill="rgb(0,0,0)" stroke="none" d="M 22093,7057 C 22093,7039 22093,7021 22093,7003 22118,7003 22143,7003 22169,7003 22169,6920 22169,6838 22169,6755 22143,6755 22118,6755 22093,6755 22093,6737 22093,6719 22093,6701 22164,6701 22235,6701 22307,6701 22307,6719 22307,6737 22307,6755 22282,6755 22256,6755 22231,6755 22231,6838 22231,6920 22231,7003 22256,7003 22282,7003 22307,7003 22307,7021 22307,7039 22307,7057 22235,7057 22164,7057 22093,7057 Z"/>
        </g>
       </g>
       <g class="com.sun.star.drawing.ClosedBezierShape">
        <g id="id81">
         <rect class="BoundingBox" stroke="none" fill="none" x="22383" y="6780" width="226" height="278"/>
         <path fill="rgb(0,0,0)" stroke="none" d="M 22383,7057 L 22383,6785 22442,6785 22442,6832 22446,6832 C 22449,6815 22457,6803 22470,6794 22482,6785 22498,6780 22518,6780 22545,6780 22567,6789 22583,6807 22599,6825 22607,6849 22607,6879 L 22607,7057 22546,7057 22546,6886 C 22546,6870 22541,6857 22532,6848 22523,6838 22511,6833 22496,6833 22480,6833 22467,6838 22458,6848 22449,6858 22445,6871 22445,6888 L 22445,7057 22383,7057 Z"/>
        </g>
       </g>
       <g class="com.sun.star.drawing.ClosedBezierShape">
        <g id="id82">
         <rect class="BoundingBox" stroke="none" fill="none" x="22678" y="6780" width="238" height="283"/>
         <path fill="rgb(0,0,0)" stroke="none" d="M 22796,7062 C 22778,7062 22762,7060 22747,7055 22733,7050 22720,7043 22710,7033 22700,7024 22692,7013 22686,7000 22681,6987 22678,6972 22678,6956 L 22678,6886 C 22678,6870 22681,6856 22686,6843 22692,6830 22700,6819 22710,6809 22720,6800 22733,6793 22747,6788 22762,6783 22778,6780 22796,6780 22811,6780 22826,6782 22840,6787 22853,6791 22865,6798 22875,6806 22885,6814 22894,6825 22901,6836 22907,6848 22912,6861 22914,6876 L 22852,6876 C 22850,6864 22844,6853 22834,6846 22824,6838 22811,6834 22796,6834 22778,6834 22765,6839 22755,6848 22745,6857 22740,6870 22740,6886 L 22740,6956 C 22740,6972 22745,6985 22754,6994 22764,7003 22778,7008 22796,7008 22810,7008 22823,7004 22833,6996 22844,6989 22850,6979 22852,6966 L 22914,6966 C 22912,6981 22907,6994 22901,7006 22894,7018 22885,7028 22875,7036 22865,7044 22853,7051 22839,7055 22826,7060 22811,7062 22796,7062 Z"/>
        </g>
       </g>
       <g class="com.sun.star.drawing.ClosedBezierShape">
        <g id="id83">
         <rect class="BoundingBox" stroke="none" fill="none" x="22987" y="6780" width="233" height="278"/>
         <path fill="rgb(0,0,0)" stroke="none" d="M 22987,6785 L 23046,6785 23046,6832 23050,6832 C 23053,6815 23062,6803 23075,6794 23088,6785 23105,6780 23125,6780 23155,6780 23177,6789 23194,6807 23210,6825 23219,6850 23219,6882 L 23219,6902 23154,6902 23154,6888 C 23154,6870 23149,6857 23140,6847 23130,6837 23117,6832 23100,6832 23084,6832 23072,6837 23063,6847 23054,6857 23049,6871 23049,6888 L 23049,7057 22987,7057 22987,6785 Z"/>
        </g>
       </g>
       <g class="com.sun.star.drawing.ClosedBezierShape">
        <g id="id84">
         <rect class="BoundingBox" stroke="none" fill="none" x="23266" y="6780" width="238" height="283"/>
         <path fill="rgb(0,0,0)" stroke="none" d="M 23385,7062 C 23367,7062 23351,7059 23336,7054 23321,7049 23309,7042 23299,7033 23289,7024 23281,7012 23275,6999 23269,6986 23267,6971 23267,6955 L 23267,6886 C 23267,6870 23269,6856 23275,6842 23281,6829 23289,6818 23299,6809 23309,6799 23321,6792 23336,6787 23351,6782 23367,6780 23385,6780 23402,6780 23419,6783 23433,6788 23448,6793 23460,6800 23470,6809 23480,6818 23488,6830 23494,6843 23499,6856 23502,6871 23502,6887 L 23502,6937 23328,6937 23328,6954 C 23328,6972 23333,6987 23343,6997 23353,7007 23367,7012 23385,7012 23398,7012 23410,7010 23419,7006 23428,7002 23435,6996 23439,6988 L 23500,6988 C 23497,6999 23492,7009 23485,7019 23478,7028 23470,7036 23460,7042 23449,7048 23438,7053 23425,7057 23413,7060 23399,7062 23385,7062 Z M 23442,6895 L 23442,6887 C 23442,6869 23437,6855 23427,6845 23417,6835 23403,6829 23385,6829 23367,6829 23353,6835 23343,6845 23333,6855 23328,6869 23328,6887 L 23328,6895 23442,6895 Z"/>
        </g>
       </g>
       <g class="com.sun.star.drawing.ClosedBezierShape">
        <g id="id85">
         <rect class="BoundingBox" stroke="none" fill="none" x="23557" y="6780" width="251" height="278"/>
         <path fill="rgb(0,0,0)" stroke="none" d="M 23558,6785 L 23605,6785 23605,6825 23609,6825 C 23610,6811 23615,6800 23623,6792 23631,6784 23642,6780 23655,6780 23668,6780 23679,6784 23687,6792 23696,6800 23702,6811 23705,6825 L 23707,6825 C 23708,6811 23713,6800 23721,6792 23729,6784 23740,6780 23753,6780 23770,6780 23783,6786 23792,6799 23802,6811 23806,6828 23806,6849 L 23806,7057 23754,7057 23754,6854 C 23754,6834 23746,6824 23731,6824 23715,6824 23708,6834 23708,6855 L 23708,7057 23656,7057 23656,6854 C 23656,6837 23651,6827 23640,6825 23636,6824 23634,6824 23632,6824 23631,6824 23628,6824 23625,6825 23615,6827 23610,6838 23610,6855 L 23610,7057 23558,7057 23558,6785 Z"/>
        </g>
       </g>
       <g class="com.sun.star.drawing.ClosedBezierShape">
        <g id="id86">
         <rect class="BoundingBox" stroke="none" fill="none" x="23859" y="6780" width="238" height="283"/>
         <path fill="rgb(0,0,0)" stroke="none" d="M 23978,7062 C 23960,7062 23944,7059 23929,7054 23914,7049 23902,7042 23892,7033 23882,7024 23874,7012 23868,6999 23862,6986 23860,6971 23860,6955 L 23860,6886 C 23860,6870 23862,6856 23868,6842 23874,6829 23882,6818 23892,6809 23902,6799 23914,6792 23929,6787 23944,6782 23960,6780 23978,6780 23995,6780 24012,6783 24026,6788 24041,6793 24053,6800 24063,6809 24073,6818 24081,6830 24087,6843 24092,6856 24095,6871 24095,6887 L 24095,6937 23921,6937 23921,6954 C 23921,6972 23926,6987 23936,6997 23946,7007 23960,7012 23978,7012 23991,7012 24003,7010 24012,7006 24021,7002 24028,6996 24032,6988 L 24093,6988 C 24090,6999 24085,7009 24078,7019 24071,7028 24063,7036 24053,7042 24042,7048 24031,7053 24018,7057 24006,7060 23992,7062 23978,7062 Z M 24035,6895 L 24035,6887 C 24035,6869 24030,6855 24020,6845 24010,6835 23996,6829 23978,6829 23960,6829 23946,6835 23936,6845 23926,6855 23921,6869 23921,6887 L 23921,6895 24035,6895 Z"/>
        </g>
       </g>
       <g class="com.sun.star.drawing.ClosedBezierShape">
        <g id="id87">
         <rect class="BoundingBox" stroke="none" fill="none" x="24161" y="6780" width="226" height="278"/>
         <path fill="rgb(0,0,0)" stroke="none" d="M 24161,7057 L 24161,6785 24220,6785 24220,6832 24224,6832 C 24227,6815 24235,6803 24248,6794 24260,6785 24276,6780 24296,6780 24323,6780 24345,6789 24361,6807 24377,6825 24385,6849 24385,6879 L 24385,7057 24324,7057 24324,6886 C 24324,6870 24319,6857 24310,6848 24301,6838 24289,6833 24274,6833 24258,6833 24245,6838 24236,6848 24227,6858 24223,6871 24223,6888 L 24223,7057 24161,7057 Z"/>
        </g>
       </g>
       <g class="com.sun.star.drawing.ClosedBezierShape">
        <g id="id88">
         <rect class="BoundingBox" stroke="none" fill="none" x="24444" y="6701" width="242" height="357"/>
         <path fill="rgb(0,0,0)" stroke="none" d="M 24445,6785 L 24520,6785 24520,6701 24582,6701 24582,6785 24685,6785 24685,6841 24582,6841 24582,6973 C 24582,6981 24584,6988 24589,6993 24594,6999 24601,7001 24611,7001 L 24680,7001 24680,7057 24606,7057 C 24580,7057 24559,7049 24543,7034 24528,7019 24520,6999 24520,6973 L 24520,6841 24445,6841 24445,6785 Z"/>
        </g>
       </g>
      </g>
      <g class="Group">
       <g class="com.sun.star.drawing.ClosedBezierShape">
        <g id="id89">
         <rect class="BoundingBox" stroke="none" fill="none" x="15446" y="3842" width="3176" height="953"/>
         <path fill="rgb(255,241,118)" stroke="none" d="M 15446,4794 C 15446,4477 15446,4159 15446,3842 16504,3842 17563,3842 18621,3842 18621,4159 18621,4477 18621,4794 17563,4794 16504,4794 15446,4794 Z"/>
        </g>
       </g>
       <g class="com.sun.star.drawing.ClosedBezierShape">
        <g id="id90">
         <rect class="BoundingBox" stroke="none" fill="none" x="15740" y="4145" width="216" height="358"/>
         <path fill="rgb(0,0,0)" stroke="none" d="M 15741,4502 C 15741,4484 15741,4466 15741,4448 15766,4448 15791,4448 15817,4448 15817,4365 15817,4283 15817,4200 15791,4200 15766,4200 15741,4200 15741,4182 15741,4164 15741,4146 15812,4146 15883,4146 15955,4146 15955,4164 15955,4182 15955,4200 15930,4200 15904,4200 15879,4200 15879,4283 15879,4365 15879,4448 15904,4448 15930,4448 15955,4448 15955,4466 15955,4484 15955,4502 15883,4502 15812,4502 15741,4502 Z"/>
        </g>
       </g>
       <g class="com.sun.star.drawing.ClosedBezierShape">
        <g id="id91">
         <rect class="BoundingBox" stroke="none" fill="none" x="16031" y="4225" width="226" height="278"/>
         <path fill="rgb(0,0,0)" stroke="none" d="M 16031,4502 L 16031,4230 16090,4230 16090,4277 16094,4277 C 16097,4260 16105,4248 16118,4239 16130,4230 16146,4225 16166,4225 16193,4225 16215,4234 16231,4252 16247,4270 16255,4294 16255,4324 L 16255,4502 16194,4502 16194,4331 C 16194,4315 16189,4302 16180,4293 16171,4283 16159,4278 16144,4278 16128,4278 16115,4283 16106,4293 16097,4303 16093,4316 16093,4333 L 16093,4502 16031,4502 Z"/>
        </g>
       </g>
       <g class="com.sun.star.drawing.ClosedBezierShape">
        <g id="id92">
         <rect class="BoundingBox" stroke="none" fill="none" x="16326" y="4225" width="238" height="283"/>
         <path fill="rgb(0,0,0)" stroke="none" d="M 16444,4507 C 16426,4507 16410,4505 16395,4500 16381,4495 16368,4488 16358,4478 16348,4469 16340,4458 16334,4445 16329,4432 16326,4417 16326,4401 L 16326,4331 C 16326,4315 16329,4301 16334,4288 16340,4275 16348,4264 16358,4254 16368,4245 16381,4238 16395,4233 16410,4228 16426,4225 16444,4225 16459,4225 16474,4227 16488,4232 16501,4236 16513,4243 16523,4251 16533,4259 16542,4270 16549,4281 16555,4293 16560,4306 16562,4321 L 16500,4321 C 16498,4309 16492,4298 16482,4291 16472,4283 16459,4279 16444,4279 16426,4279 16413,4284 16403,4293 16393,4302 16388,4315 16388,4331 L 16388,4401 C 16388,4417 16393,4430 16402,4439 16412,4448 16426,4453 16444,4453 16458,4453 16471,4449 16481,4441 16492,4434 16498,4424 16500,4411 L 16562,4411 C 16560,4426 16555,4439 16549,4451 16542,4463 16533,4473 16523,4481 16513,4489 16501,4496 16487,4500 16474,4505 16459,4507 16444,4507 Z"/>
        </g>
       </g>
       <g class="com.sun.star.drawing.ClosedBezierShape">
        <g id="id93">
         <rect class="BoundingBox" stroke="none" fill="none" x="16635" y="4225" width="233" height="278"/>
         <path fill="rgb(0,0,0)" stroke="none" d="M 16635,4230 L 16694,4230 16694,4277 16698,4277 C 16701,4260 16710,4248 16723,4239 16736,4230 16753,4225 16773,4225 16803,4225 16825,4234 16842,4252 16858,4270 16867,4295 16867,4327 L 16867,4347 16802,4347 16802,4333 C 16802,4315 16797,4302 16788,4292 16778,4282 16765,4277 16748,4277 16732,4277 16720,4282 16711,4292 16702,4302 16697,4316 16697,4333 L 16697,4502 16635,4502 16635,4230 Z"/>
        </g>
       </g>
       <g class="com.sun.star.drawing.ClosedBezierShape">
        <g id="id94">
         <rect class="BoundingBox" stroke="none" fill="none" x="16914" y="4225" width="238" height="283"/>
         <path fill="rgb(0,0,0)" stroke="none" d="M 17033,4507 C 17015,4507 16999,4504 16984,4499 16969,4494 16957,4487 16947,4478 16937,4469 16929,4457 16923,4444 16917,4431 16915,4416 16915,4400 L 16915,4331 C 16915,4315 16917,4301 16923,4287 16929,4274 16937,4263 16947,4254 16957,4244 16969,4237 16984,4232 16999,4227 17015,4225 17033,4225 17050,4225 17067,4228 17081,4233 17096,4238 17108,4245 17118,4254 17128,4263 17136,4275 17142,4288 17147,4301 17150,4316 17150,4332 L 17150,4382 16976,4382 16976,4399 C 16976,4417 16981,4432 16991,4442 17001,4452 17015,4457 17033,4457 17046,4457 17058,4455 17067,4451 17076,4447 17083,4441 17087,4433 L 17148,4433 C 17145,4444 17140,4454 17133,4464 17126,4473 17118,4481 17108,4487 17097,4493 17086,4498 17073,4502 17061,4505 17047,4507 17033,4507 Z M 17090,4340 L 17090,4332 C 17090,4314 17085,4300 17075,4290 17065,4280 17051,4274 17033,4274 17015,4274 17001,4280 16991,4290 16981,4300 16976,4314 16976,4332 L 16976,4340 17090,4340 Z"/>
        </g>
       </g>
       <g class="com.sun.star.drawing.ClosedBezierShape">
        <g id="id95">
         <rect class="BoundingBox" stroke="none" fill="none" x="17205" y="4225" width="251" height="278"/>
         <path fill="rgb(0,0,0)" stroke="none" d="M 17206,4230 L 17253,4230 17253,4270 17257,4270 C 17258,4256 17263,4245 17271,4237 17279,4229 17290,4225 17303,4225 17316,4225 17327,4229 17335,4237 17344,4245 17350,4256 17353,4270 L 17355,4270 C 17356,4256 17361,4245 17369,4237 17377,4229 17388,4225 17401,4225 17418,4225 17431,4231 17440,4244 17450,4256 17454,4273 17454,4294 L 17454,4502 17402,4502 17402,4299 C 17402,4279 17394,4269 17379,4269 17363,4269 17356,4279 17356,4300 L 17356,4502 17304,4502 17304,4299 C 17304,4282 17299,4272 17288,4270 17284,4269 17282,4269 17280,4269 17279,4269 17276,4269 17273,4270 17263,4272 17258,4283 17258,4300 L 17258,4502 17206,4502 17206,4230 Z"/>
        </g>
       </g>
       <g class="com.sun.star.drawing.ClosedBezierShape">
        <g id="id96">
         <rect class="BoundingBox" stroke="none" fill="none" x="17507" y="4225" width="238" height="283"/>
         <path fill="rgb(0,0,0)" stroke="none" d="M 17626,4507 C 17608,4507 17592,4504 17577,4499 17562,4494 17550,4487 17540,4478 17530,4469 17522,4457 17516,4444 17510,4431 17508,4416 17508,4400 L 17508,4331 C 17508,4315 17510,4301 17516,4287 17522,4274 17530,4263 17540,4254 17550,4244 17562,4237 17577,4232 17592,4227 17608,4225 17626,4225 17643,4225 17660,4228 17674,4233 17689,4238 17701,4245 17711,4254 17721,4263 17729,4275 17735,4288 17740,4301 17743,4316 17743,4332 L 17743,4382 17569,4382 17569,4399 C 17569,4417 17574,4432 17584,4442 17594,4452 17608,4457 17626,4457 17639,4457 17651,4455 17660,4451 17669,4447 17676,4441 17680,4433 L 17741,4433 C 17738,4444 17733,4454 17726,4464 17719,4473 17711,4481 17701,4487 17690,4493 17679,4498 17666,4502 17654,4505 17640,4507 17626,4507 Z M 17683,4340 L 17683,4332 C 17683,4314 17678,4300 17668,4290 17658,4280 17644,4274 17626,4274 17608,4274 17594,4280 17584,4290 17574,4300 17569,4314 17569,4332 L 17569,4340 17683,4340 Z"/>
        </g>
       </g>
       <g class="com.sun.star.drawing.ClosedBezierShape">
        <g id="id97">
         <rect class="BoundingBox" stroke="none" fill="none" x="17809" y="4225" width="226" height="278"/>
         <path fill="rgb(0,0,0)" stroke="none" d="M 17809,4502 L 17809,4230 17868,4230 17868,4277 17872,4277 C 17875,4260 17883,4248 17896,4239 17908,4230 17924,4225 17944,4225 17971,4225 17993,4234 18009,4252 18025,4270 18033,4294 18033,4324 L 18033,4502 17972,4502 17972,4331 C 17972,4315 17967,4302 17958,4293 17949,4283 17937,4278 17922,4278 17906,4278 17893,4283 17884,4293 17875,4303 17871,4316 17871,4333 L 17871,4502 17809,4502 Z"/>
        </g>
       </g>
       <g class="com.sun.star.drawing.ClosedBezierShape">
        <g id="id98">
         <rect class="BoundingBox" stroke="none" fill="none" x="18092" y="4145" width="242" height="358"/>
         <path fill="rgb(0,0,0)" stroke="none" d="M 18093,4230 L 18168,4230 18168,4146 18230,4146 18230,4230 18333,4230 18333,4286 18230,4286 18230,4418 C 18230,4426 18232,4433 18237,4438 18242,4444 18249,4446 18259,4446 L 18328,4446 18328,4502 18254,4502 C 18228,4502 18207,4494 18191,4479 18176,4464 18168,4444 18168,4418 L 18168,4286 18093,4286 18093,4230 Z"/>
        </g>
       </g>
      </g>
      <g class="com.sun.star.drawing.OpenBezierShape">
       <g id="id99">
        <rect class="BoundingBox" stroke="none" fill="none" x="15465" y="4795" width="281" height="3059"/>
        <path fill="none" stroke="rgb(255,255,255)" stroke-width="53" stroke-linejoin="round" stroke-linecap="round" d="M 15605,5166 L 15605,7826"/>
        <path fill="rgb(255,255,255)" stroke="none" d="M 15715,5163 L 15745,5185 15605,4795 15466,5185 15494,5164 15527,5147 15564,5136 15603,5131 15643,5135 15681,5146 15715,5163 Z"/>
       </g>
      </g>
      <g class="Group">
       <g class="com.sun.star.drawing.ClosedBezierShape">
        <g id="id100">
         <rect class="BoundingBox" stroke="none" fill="none" x="15224" y="8905" width="404" height="275"/>
         <path fill="rgb(255,255,255)" stroke="none" d="M 15225,9018 C 15225,8994 15228,8975 15234,8959 15240,8943 15250,8927 15263,8910 L 15298,8939 C 15279,8963 15269,8988 15269,9014 15269,9047 15281,9073 15306,9092 15331,9112 15371,9122 15426,9122 15479,9122 15518,9112 15544,9093 15569,9073 15582,9047 15582,9015 15582,8998 15579,8984 15573,8972 15568,8960 15560,8947 15549,8933 L 15584,8905 C 15596,8917 15606,8932 15615,8951 15623,8970 15627,8992 15627,9017 15627,9048 15619,9076 15604,9101 15588,9126 15565,9145 15535,9158 15505,9172 15468,9179 15426,9179 15383,9179 15347,9172 15317,9158 15286,9143 15264,9124 15248,9099 15233,9075 15225,9048 15225,9018 Z"/>
        </g>
       </g>
       <g class="com.sun.star.drawing.ClosedBezierShape">
        <g id="id101">
         <rect class="BoundingBox" stroke="none" fill="none" x="15197" y="8743" width="431" height="105"/>
         <path fill="rgb(255,255,255)" stroke="none" d="M 15627,8784 C 15627,8803 15621,8819 15610,8830 15598,8841 15582,8846 15562,8846 L 15203,8846 15197,8794 15560,8794 C 15569,8794 15575,8793 15579,8790 15582,8787 15584,8783 15584,8776 15584,8769 15583,8762 15581,8757 L 15617,8743 C 15624,8755 15627,8769 15627,8784 Z"/>
        </g>
       </g>
       <g class="com.sun.star.drawing.ClosedBezierShape">
        <g id="id102">
         <rect class="BoundingBox" stroke="none" fill="none" x="15180" y="8616" width="441" height="75"/>
         <path fill="rgb(255,255,255)" stroke="none" d="M 15620,8627 L 15620,8678 15323,8678 15323,8627 15620,8627 Z M 15180,8653 C 15180,8642 15183,8633 15190,8627 15197,8620 15205,8616 15216,8616 15226,8616 15234,8620 15241,8627 15247,8633 15250,8642 15250,8653 15250,8664 15247,8672 15241,8679 15234,8686 15226,8689 15216,8689 15205,8689 15197,8686 15190,8679 15183,8672 15180,8664 15180,8653 Z"/>
        </g>
       </g>
       <g class="com.sun.star.drawing.ClosedBezierShape">
        <g id="id103">
         <rect class="BoundingBox" stroke="none" fill="none" x="15316" y="8318" width="312" height="222"/>
         <path fill="rgb(255,255,255)" stroke="none" d="M 15316,8409 C 15316,8391 15319,8375 15324,8361 15329,8346 15337,8332 15348,8318 L 15381,8343 C 15373,8354 15368,8364 15364,8374 15361,8384 15359,8395 15359,8407 15359,8431 15369,8450 15388,8463 15407,8476 15435,8483 15473,8483 15511,8483 15538,8476 15556,8463 15574,8450 15583,8431 15583,8407 15583,8395 15581,8385 15578,8375 15574,8365 15568,8354 15560,8342 L 15594,8318 C 15616,8345 15627,8376 15627,8409 15627,8449 15613,8481 15586,8504 15559,8527 15522,8539 15474,8539 15443,8539 15415,8534 15391,8523 15367,8513 15349,8498 15336,8478 15323,8459 15316,8436 15316,8409 Z"/>
        </g>
       </g>
       <g class="com.sun.star.drawing.ClosedBezierShape">
        <g id="id104">
         <rect class="BoundingBox" stroke="none" fill="none" x="15197" y="8011" width="424" height="237"/>
         <path fill="rgb(255,255,255)" stroke="none" d="M 15620,8195 C 15620,8212 15620,8229 15620,8246 15481,8246 15342,8246 15203,8246 15201,8229 15199,8212 15197,8195 15338,8195 15479,8195 15620,8195 Z M 15454,8133 C 15509,8092 15565,8052 15620,8011 15620,8032 15620,8053 15620,8073 15566,8113 15512,8152 15458,8191 15413,8155 15368,8118 15323,8082 15323,8062 15323,8043 15323,8024 15367,8060 15410,8097 15454,8133 Z"/>
        </g>
       </g>
      </g>
      <g class="com.sun.star.drawing.OpenBezierShape">
       <g id="id105">
        <rect class="BoundingBox" stroke="none" fill="none" x="16577" y="6064" width="281" height="1789"/>
        <path fill="none" stroke="rgb(255,255,255)" stroke-width="53" stroke-linejoin="round" stroke-linecap="round" d="M 16717,6435 L 16717,7825"/>
        <path fill="rgb(255,255,255)" stroke="none" d="M 16827,6432 L 16857,6454 16717,6064 16578,6454 16606,6433 16639,6416 16676,6405 16715,6400 16755,6404 16793,6415 16827,6432 Z"/>
       </g>
      </g>
      <g class="Group">
       <g class="com.sun.star.drawing.ClosedBezierShape">
        <g id="id106">
         <rect class="BoundingBox" stroke="none" fill="none" x="16495" y="8905" width="403" height="275"/>
         <path fill="rgb(255,255,255)" stroke="none" d="M 16495,9018 C 16495,8994 16498,8975 16504,8959 16510,8943 16520,8927 16533,8910 L 16568,8939 C 16549,8963 16539,8988 16539,9014 16539,9047 16551,9073 16576,9092 16601,9112 16641,9122 16696,9122 16749,9122 16788,9112 16814,9093 16839,9073 16852,9047 16852,9015 16852,8998 16849,8984 16843,8972 16838,8960 16830,8947 16819,8933 L 16854,8905 C 16866,8917 16876,8932 16885,8951 16893,8970 16897,8992 16897,9017 16897,9048 16889,9076 16874,9101 16858,9126 16835,9145 16805,9158 16775,9172 16738,9179 16696,9179 16653,9179 16617,9172 16587,9158 16556,9143 16534,9124 16518,9099 16503,9075 16495,9048 16495,9018 Z"/>
        </g>
       </g>
       <g class="com.sun.star.drawing.ClosedBezierShape">
        <g id="id107">
         <rect class="BoundingBox" stroke="none" fill="none" x="16467" y="8743" width="431" height="105"/>
         <path fill="rgb(255,255,255)" stroke="none" d="M 16897,8784 C 16897,8803 16891,8819 16880,8830 16868,8841 16852,8846 16832,8846 L 16473,8846 16467,8794 16830,8794 C 16839,8794 16845,8793 16849,8790 16852,8787 16854,8783 16854,8776 16854,8769 16853,8762 16851,8757 L 16887,8743 C 16894,8755 16897,8769 16897,8784 Z"/>
        </g>
       </g>
       <g class="com.sun.star.drawing.ClosedBezierShape">
        <g id="id108">
         <rect class="BoundingBox" stroke="none" fill="none" x="16450" y="8616" width="441" height="75"/>
         <path fill="rgb(255,255,255)" stroke="none" d="M 16890,8627 L 16890,8678 16593,8678 16593,8627 16890,8627 Z M 16450,8653 C 16450,8642 16453,8633 16460,8627 16467,8620 16475,8616 16486,8616 16496,8616 16504,8620 16511,8627 16517,8633 16521,8642 16521,8653 16521,8664 16517,8672 16511,8679 16504,8686 16496,8689 16486,8689 16475,8689 16467,8686 16460,8679 16453,8672 16450,8664 16450,8653 Z"/>
        </g>
       </g>
       <g class="com.sun.star.drawing.ClosedBezierShape">
        <g id="id109">
         <rect class="BoundingBox" stroke="none" fill="none" x="16586" y="8318" width="312" height="222"/>
         <path fill="rgb(255,255,255)" stroke="none" d="M 16586,8409 C 16586,8391 16589,8375 16594,8361 16599,8346 16607,8332 16618,8318 L 16651,8343 C 16643,8354 16638,8364 16634,8374 16631,8384 16629,8395 16629,8407 16629,8431 16639,8450 16658,8463 16677,8476 16705,8483 16743,8483 16781,8483 16808,8476 16826,8463 16844,8450 16853,8431 16853,8407 16853,8395 16851,8385 16848,8375 16844,8365 16838,8354 16830,8342 L 16864,8318 C 16886,8345 16897,8376 16897,8409 16897,8449 16883,8481 16856,8504 16829,8527 16792,8539 16744,8539 16713,8539 16685,8534 16661,8523 16637,8513 16619,8498 16606,8478 16593,8459 16586,8436 16586,8409 Z"/>
        </g>
       </g>
       <g class="com.sun.star.drawing.ClosedBezierShape">
        <g id="id110">
         <rect class="BoundingBox" stroke="none" fill="none" x="16467" y="8011" width="424" height="237"/>
         <path fill="rgb(255,255,255)" stroke="none" d="M 16890,8195 C 16890,8212 16890,8229 16890,8246 16751,8246 16612,8246 16473,8246 16471,8229 16469,8212 16467,8195 16608,8195 16749,8195 16890,8195 Z M 16724,8133 C 16779,8092 16835,8052 16890,8011 16890,8032 16890,8053 16890,8073 16836,8113 16782,8152 16728,8191 16683,8155 16638,8118 16593,8082 16593,8062 16593,8043 16593,8024 16637,8060 16680,8097 16724,8133 Z"/>
        </g>
       </g>
      </g>
      <g class="com.sun.star.drawing.OpenBezierShape">
       <g id="id111">
        <rect class="BoundingBox" stroke="none" fill="none" x="17847" y="7334" width="281" height="519"/>
        <path fill="none" stroke="rgb(255,255,255)" stroke-width="53" stroke-linejoin="round" stroke-linecap="round" d="M 17987,7705 L 17987,7825"/>
        <path fill="rgb(255,255,255)" stroke="none" d="M 18097,7702 L 18126,7724 17987,7334 17847,7724 17876,7703 17909,7686 17946,7675 17985,7670 18025,7674 18063,7685 18097,7702 Z"/>
       </g>
      </g>
      <g class="Group">
       <g class="com.sun.star.drawing.ClosedBezierShape">
        <g id="id112">
         <rect class="BoundingBox" stroke="none" fill="none" x="17765" y="8897" width="403" height="275"/>
         <path fill="rgb(255,255,255)" stroke="none" d="M 17765,9010 C 17765,8986 17768,8967 17774,8951 17780,8935 17790,8919 17803,8902 L 17838,8931 C 17819,8955 17809,8980 17809,9006 17809,9039 17821,9065 17846,9084 17871,9104 17911,9114 17966,9114 18019,9114 18058,9104 18084,9085 18109,9065 18122,9039 18122,9007 18122,8990 18119,8976 18113,8964 18108,8952 18100,8939 18089,8925 L 18124,8897 C 18136,8909 18146,8924 18155,8943 18163,8962 18167,8984 18167,9009 18167,9040 18159,9068 18144,9093 18128,9118 18105,9137 18075,9150 18045,9164 18008,9171 17966,9171 17923,9171 17887,9164 17857,9150 17826,9135 17804,9116 17788,9091 17773,9067 17765,9040 17765,9010 Z"/>
        </g>
       </g>
       <g class="com.sun.star.drawing.ClosedBezierShape">
        <g id="id113">
         <rect class="BoundingBox" stroke="none" fill="none" x="17737" y="8735" width="431" height="105"/>
         <path fill="rgb(255,255,255)" stroke="none" d="M 18167,8776 C 18167,8795 18161,8811 18150,8822 18138,8833 18122,8838 18102,8838 L 17743,8838 17737,8786 18100,8786 C 18109,8786 18115,8785 18119,8782 18122,8779 18124,8774 18124,8768 18124,8761 18123,8754 18121,8749 L 18157,8735 C 18164,8747 18167,8761 18167,8776 Z"/>
        </g>
       </g>
       <g class="com.sun.star.drawing.ClosedBezierShape">
        <g id="id114">
         <rect class="BoundingBox" stroke="none" fill="none" x="17720" y="8608" width="441" height="75"/>
         <path fill="rgb(255,255,255)" stroke="none" d="M 18160,8619 L 18160,8670 17863,8670 17863,8619 18160,8619 Z M 17720,8645 C 17720,8634 17723,8625 17730,8619 17737,8612 17745,8608 17756,8608 17766,8608 17774,8612 17781,8619 17787,8625 17791,8634 17791,8645 17791,8656 17787,8664 17781,8671 17774,8678 17766,8681 17756,8681 17745,8681 17737,8678 17730,8671 17723,8664 17720,8656 17720,8645 Z"/>
        </g>
       </g>
       <g class="com.sun.star.drawing.ClosedBezierShape">
        <g id="id115">
         <rect class="BoundingBox" stroke="none" fill="none" x="17856" y="8310" width="312" height="222"/>
         <path fill="rgb(255,255,255)" stroke="none" d="M 17856,8401 C 17856,8383 17859,8367 17864,8353 17869,8338 17877,8324 17888,8310 L 17921,8335 C 17913,8346 17908,8356 17904,8366 17901,8376 17899,8387 17899,8399 17899,8423 17909,8442 17928,8455 17947,8468 17975,8475 18013,8475 18051,8475 18078,8468 18096,8455 18114,8442 18123,8423 18123,8399 18123,8387 18121,8377 18118,8367 18114,8357 18108,8346 18100,8334 L 18134,8310 C 18156,8337 18167,8368 18167,8401 18167,8441 18153,8473 18126,8496 18099,8519 18062,8531 18014,8531 17983,8531 17955,8526 17931,8515 17907,8505 17889,8490 17876,8470 17863,8451 17856,8428 17856,8401 Z"/>
        </g>
       </g>
       <g class="com.sun.star.drawing.ClosedBezierShape">
        <g id="id116">
         <rect class="BoundingBox" stroke="none" fill="none" x="17736" y="8003" width="425" height="237"/>
         <path fill="rgb(255,255,255)" stroke="none" d="M 18160,8187 C 18160,8204 18160,8221 18160,8238 18021,8238 17882,8238 17743,8238 17741,8221 17739,8204 17737,8187 17878,8187 18019,8187 18160,8187 Z M 17994,8125 C 18049,8084 18105,8044 18160,8003 18160,8024 18160,8045 18160,8065 18106,8105 18052,8144 17998,8183 17953,8147 17908,8110 17863,8074 17863,8054 17863,8035 17863,8016 17907,8052 17950,8089 17994,8125 Z"/>
        </g>
       </g>
      </g>
      <g class="com.sun.star.drawing.OpenBezierShape">
       <g id="id117">
        <rect class="BoundingBox" stroke="none" fill="none" x="18482" y="3063" width="281" height="822"/>
        <path fill="none" stroke="rgb(255,255,255)" stroke-width="53" stroke-linejoin="round" stroke-linecap="round" d="M 18622,3434 L 18622,3857"/>
        <path fill="rgb(255,255,255)" stroke="none" d="M 18732,3431 L 18762,3453 18622,3063 18483,3453 18511,3432 18544,3415 18581,3404 18620,3399 18660,3403 18698,3414 18732,3431 Z"/>
       </g>
      </g>
      <g class="com.sun.star.drawing.OpenBezierShape">
       <g id="id118">
        <rect class="BoundingBox" stroke="none" fill="none" x="21657" y="3063" width="281" height="2092"/>
        <path fill="none" stroke="rgb(255,255,255)" stroke-width="53" stroke-linejoin="round" stroke-linecap="round" d="M 21797,3434 L 21797,5127"/>
        <path fill="rgb(255,255,255)" stroke="none" d="M 21907,3431 L 21937,3453 21797,3063 21658,3453 21686,3432 21719,3415 21756,3404 21795,3399 21835,3403 21873,3414 21907,3431 Z"/>
       </g>
      </g>
      <g class="com.sun.star.drawing.OpenBezierShape">
       <g id="id119">
        <rect class="BoundingBox" stroke="none" fill="none" x="24832" y="3063" width="281" height="3362"/>
        <path fill="none" stroke="rgb(255,255,255)" stroke-width="53" stroke-linejoin="round" stroke-linecap="round" d="M 24972,3434 L 24972,6397"/>
        <path fill="rgb(255,255,255)" stroke="none" d="M 25082,3431 L 25112,3453 24972,3063 24833,3453 24861,3432 24894,3415 24931,3404 24970,3399 25010,3403 25048,3414 25082,3431 Z"/>
       </g>
      </g>
      <g class="com.sun.star.drawing.ClosedBezierShape">
       <g id="id120">
        <rect class="BoundingBox" stroke="none" fill="none" x="17987" y="6397" width="3810" height="953"/>
        <path fill="rgb(255,183,77)" stroke="none" d="M 17987,7349 C 17987,7032 17987,6714 17987,6397 19257,6397 20526,6397 21796,6397 21796,6714 21796,7032 21796,7349 20526,7349 19257,7349 17987,7349 Z"/>
       </g>
      </g>
      <g class="com.sun.star.drawing.ClosedBezierShape">
       <g id="id121">
        <rect class="BoundingBox" stroke="none" fill="none" x="16716" y="5127" width="1906" height="953"/>
        <path fill="rgb(229,115,115)" stroke="none" d="M 16716,6079 C 16716,5762 16716,5444 16716,5127 17351,5127 17986,5127 18621,5127 18621,5444 18621,5762 18621,6079 17986,6079 17351,6079 16716,6079 Z"/>
       </g>
      </g>
      <g class="Group">
       <g class="com.sun.star.drawing.ClosedBezierShape">
        <g id="id122">
         <rect class="BoundingBox" stroke="none" fill="none" x="13063" y="2395" width="275" height="403"/>
         <path fill="rgb(255,255,255)" stroke="none" d="M 13224,2395 C 13248,2395 13267,2398 13283,2404 13299,2410 13316,2420 13332,2433 L 13303,2468 C 13279,2449 13254,2439 13228,2439 13195,2439 13169,2451 13150,2476 13130,2501 13120,2541 13120,2596 13120,2649 13130,2688 13149,2714 13169,2739 13195,2752 13227,2752 13244,2752 13258,2749 13270,2743 13282,2738 13295,2730 13309,2719 L 13337,2754 C 13325,2766 13310,2776 13291,2785 13272,2793 13250,2797 13225,2797 13194,2797 13166,2789 13141,2774 13117,2758 13097,2735 13084,2705 13070,2675 13063,2638 13063,2596 13063,2553 13070,2517 13084,2487 13099,2456 13118,2434 13143,2418 13167,2403 13194,2395 13224,2395 Z"/>
        </g>
       </g>
       <g class="com.sun.star.drawing.ClosedBezierShape">
        <g id="id123">
         <rect class="BoundingBox" stroke="none" fill="none" x="13373" y="2486" width="267" height="312"/>
         <path fill="rgb(255,255,255)" stroke="none" d="M 13506,2486 C 13548,2486 13580,2500 13604,2528 13627,2556 13638,2594 13638,2641 13638,2672 13633,2699 13622,2723 13612,2746 13597,2765 13577,2778 13557,2790 13533,2797 13506,2797 13464,2797 13431,2783 13408,2755 13385,2727 13373,2690 13373,2642 13373,2611 13378,2584 13389,2560 13399,2537 13415,2519 13435,2506 13455,2493 13478,2486 13506,2486 Z M 13506,2528 C 13455,2528 13429,2566 13429,2642 13429,2717 13455,2755 13506,2755 13557,2755 13582,2717 13582,2641 13582,2566 13557,2528 13506,2528 Z"/>
        </g>
       </g>
       <g class="com.sun.star.drawing.ClosedBezierShape">
        <g id="id124">
         <rect class="BoundingBox" stroke="none" fill="none" x="13721" y="2493" width="226" height="305"/>
         <path fill="rgb(255,255,255)" stroke="none" d="M 13946,2790 L 13901,2790 13897,2744 C 13886,2762 13873,2776 13858,2784 13844,2793 13826,2797 13805,2797 13779,2797 13758,2789 13744,2773 13729,2758 13722,2735 13722,2706 L 13722,2493 13774,2493 13774,2701 C 13774,2721 13777,2735 13784,2744 13792,2752 13803,2756 13819,2756 13848,2756 13873,2739 13894,2705 L 13894,2493 13946,2493 13946,2790 Z"/>
        </g>
       </g>
       <g class="com.sun.star.drawing.ClosedBezierShape">
        <g id="id125">
         <rect class="BoundingBox" stroke="none" fill="none" x="14050" y="2486" width="228" height="305"/>
         <path fill="rgb(255,255,255)" stroke="none" d="M 14190,2486 C 14218,2486 14239,2494 14254,2510 14269,2526 14277,2549 14277,2577 L 14277,2790 14225,2790 14225,2584 C 14225,2563 14221,2548 14213,2540 14205,2531 14193,2527 14178,2527 14162,2527 14148,2531 14136,2540 14124,2549 14113,2562 14102,2579 L 14102,2790 14051,2790 14051,2493 14095,2493 14100,2537 C 14110,2521 14123,2509 14139,2500 14154,2491 14172,2486 14190,2486 Z"/>
        </g>
       </g>
       <g class="com.sun.star.drawing.ClosedBezierShape">
        <g id="id126">
         <rect class="BoundingBox" stroke="none" fill="none" x="14332" y="2419" width="200" height="379"/>
         <path fill="rgb(255,255,255)" stroke="none" d="M 14531,2777 C 14511,2790 14489,2797 14464,2797 14439,2797 14419,2790 14405,2775 14391,2761 14384,2740 14384,2712 L 14384,2533 14332,2533 14332,2493 14384,2493 14384,2426 14436,2420 14436,2493 14506,2493 14501,2533 14436,2533 14436,2710 C 14436,2726 14439,2737 14444,2744 14449,2751 14459,2754 14471,2754 14484,2754 14497,2750 14511,2741 L 14531,2777 Z"/>
        </g>
       </g>
       <g class="com.sun.star.drawing.ClosedBezierShape">
        <g id="id127">
         <rect class="BoundingBox" stroke="none" fill="none" x="14558" y="2486" width="248" height="313"/>
         <path fill="rgb(255,255,255)" stroke="none" d="M 14804,2633 C 14804,2641 14804,2650 14803,2659 L 14613,2659 C 14616,2692 14624,2716 14638,2732 14653,2747 14671,2755 14694,2755 14708,2755 14721,2753 14733,2749 14745,2744 14758,2738 14771,2729 L 14793,2760 C 14762,2785 14727,2797 14690,2797 14648,2797 14616,2783 14593,2756 14570,2729 14558,2692 14558,2645 14558,2614 14563,2586 14573,2562 14583,2539 14597,2520 14616,2506 14635,2493 14656,2486 14682,2486 14721,2486 14751,2499 14772,2525 14794,2551 14804,2587 14804,2633 Z M 14753,2618 C 14753,2588 14747,2566 14735,2550 14724,2535 14706,2527 14683,2527 14640,2527 14617,2558 14613,2621 L 14753,2621 14753,2618 Z"/>
        </g>
       </g>
       <g class="com.sun.star.drawing.ClosedBezierShape">
        <g id="id128">
         <rect class="BoundingBox" stroke="none" fill="none" x="14888" y="2486" width="161" height="305"/>
         <path fill="rgb(255,255,255)" stroke="none" d="M 15018,2486 C 15028,2486 15038,2487 15047,2489 L 15037,2540 C 15028,2538 15020,2537 15012,2537 14993,2537 14978,2544 14967,2557 14956,2571 14947,2592 14940,2620 L 14940,2790 14889,2790 14889,2493 14933,2493 14938,2553 C 14946,2531 14957,2514 14970,2503 14984,2492 15000,2486 15018,2486 Z"/>
        </g>
       </g>
       <g class="com.sun.star.drawing.ClosedBezierShape">
        <g id="id129">
         <rect class="BoundingBox" stroke="none" fill="none" x="15079" y="2511" width="80" height="287"/>
         <path fill="rgb(255,255,255)" stroke="none" d="M 15118,2719 C 15129,2719 15139,2722 15146,2730 15154,2737 15158,2747 15158,2758 15158,2768 15154,2778 15146,2785 15139,2793 15129,2797 15118,2797 15107,2797 15098,2793 15090,2785 15083,2778 15079,2768 15079,2758 15079,2747 15083,2737 15090,2730 15098,2722 15107,2719 15118,2719 Z M 15118,2511 C 15129,2511 15139,2515 15146,2522 15154,2530 15158,2539 15158,2550 15158,2561 15154,2570 15146,2578 15139,2586 15129,2589 15118,2589 15107,2589 15098,2586 15090,2578 15083,2570 15079,2561 15079,2550 15079,2539 15083,2530 15090,2522 15098,2515 15107,2511 15118,2511 Z"/>
        </g>
       </g>
       <g class="com.sun.star.drawing.ClosedBezierShape">
        <g id="id130">
         <rect class="BoundingBox" stroke="none" fill="none" x="15514" y="2407" width="254" height="391"/>
         <path fill="rgb(255,255,255)" stroke="none" d="M 15640,2407 C 15682,2407 15714,2424 15735,2457 15756,2490 15767,2539 15767,2602 15767,2665 15756,2713 15735,2747 15714,2780 15682,2797 15640,2797 15599,2797 15567,2780 15546,2747 15525,2713 15514,2665 15514,2602 15514,2539 15525,2490 15546,2457 15567,2424 15599,2407 15640,2407 Z M 15640,2448 C 15616,2448 15598,2460 15586,2484 15574,2508 15568,2548 15568,2602 15568,2656 15574,2695 15586,2719 15598,2744 15616,2756 15640,2756 15664,2756 15682,2744 15694,2719 15707,2695 15713,2656 15713,2602 15713,2548 15707,2509 15694,2485 15682,2460 15664,2448 15640,2448 Z"/>
        </g>
       </g>
      </g>
      <g class="com.sun.star.drawing.ClosedBezierShape">
       <g id="id131">
        <rect class="BoundingBox" stroke="none" fill="none" x="18516" y="2412" width="165" height="379"/>
        <path fill="rgb(255,255,255)" stroke="none" d="M 18679,2790 C 18662,2790 18645,2790 18627,2790 18627,2683 18627,2575 18627,2468 18598,2486 18569,2504 18539,2522 18532,2509 18524,2497 18517,2485 18556,2461 18595,2437 18633,2413 18649,2413 18664,2413 18679,2413 18679,2538 18679,2664 18679,2790 Z"/>
       </g>
      </g>
      <g class="com.sun.star.drawing.ClosedBezierShape">
       <g id="id132">
        <rect class="BoundingBox" stroke="none" fill="none" x="21671" y="2406" width="238" height="384"/>
        <path fill="rgb(255,255,255)" stroke="none" d="M 21786,2406 C 21808,2406 21828,2411 21845,2420 21862,2429 21875,2441 21885,2456 21894,2472 21899,2490 21899,2509 21899,2532 21894,2554 21883,2575 21873,2596 21857,2619 21836,2643 21814,2668 21782,2702 21738,2746 L 21908,2746 21902,2789 21679,2789 21679,2748 C 21729,2696 21765,2657 21786,2633 21807,2609 21822,2588 21831,2570 21840,2552 21845,2532 21845,2511 21845,2492 21839,2477 21828,2466 21817,2454 21802,2449 21783,2449 21767,2449 21754,2452 21742,2458 21731,2465 21718,2475 21706,2490 L 21671,2463 C 21687,2444 21704,2430 21722,2420 21741,2411 21762,2406 21786,2406 Z"/>
       </g>
      </g>
      <g class="com.sun.star.drawing.ClosedBezierShape">
       <g id="id133">
        <rect class="BoundingBox" stroke="none" fill="none" x="24839" y="2406" width="244" height="391"/>
        <path fill="rgb(255,255,255)" stroke="none" d="M 24958,2406 C 24981,2406 25001,2411 25018,2419 25035,2428 25047,2440 25056,2454 25065,2469 25070,2485 25070,2502 25070,2525 25063,2544 25050,2559 25036,2574 25018,2584 24996,2589 25021,2591 25042,2600 25058,2616 25074,2632 25081,2653 25081,2680 25081,2702 25076,2722 25066,2740 25055,2757 25040,2771 25021,2781 25001,2791 24978,2796 24953,2796 24930,2796 24909,2792 24890,2783 24870,2775 24854,2762 24839,2745 L 24870,2716 C 24883,2729 24896,2739 24909,2745 24922,2751 24936,2754 24951,2754 24975,2754 24993,2747 25007,2734 25021,2720 25027,2702 25027,2680 25027,2655 25021,2637 25008,2627 24995,2617 24977,2612 24952,2612 L 24924,2612 24930,2572 24949,2572 C 24969,2572 24985,2566 24998,2555 25011,2543 25018,2527 25018,2506 25018,2488 25012,2474 25001,2464 24989,2453 24974,2448 24955,2448 24940,2448 24927,2451 24915,2456 24903,2461 24890,2470 24877,2482 L 24850,2451 C 24882,2421 24918,2406 24958,2406 Z"/>
       </g>
      </g>
      <g class="com.sun.star.drawing.ClosedBezierShape">
       <g id="id134">
        <rect class="BoundingBox" stroke="none" fill="none" x="12890" y="2096" width="12413" height="982"/>
        <path fill="none" stroke="rgb(255,255,255)" stroke-width="28" stroke-linejoin="round" d="M 12904,3063 L 12904,2110 25287,2110 25287,3063 12904,3063 Z"/>
       </g>
      </g>
     </g>
    </g>
   </g>
  </g>
 </g>
</svg>